<!-- Generated by IcoMoon.io -->
<svg version="1.1" xmlns="http://www.w3.org/2000/svg" width="24" height="24" viewBox="0 0 24 24">
<title>amazon</title>
<path d="M21.663 20.138c-2.63 1.941-6.436 2.972-9.717 2.972-4.598 0-8.738-1.697-11.869-4.528-0.244-0.22-0.028-0.525 0.267-0.352 3.38 1.969 7.561 3.15 11.878 3.15 2.911 0 6.112-0.605 9.061-1.856 0.441-0.188 0.816 0.295 0.38 0.614z"></path>
<path d="M22.755 18.891c-0.337-0.431-2.222-0.206-3.070-0.103-0.258 0.028-0.295-0.192-0.066-0.356 1.505-1.055 3.97-0.75 4.256-0.398 0.291 0.356-0.075 2.827-1.486 4.008-0.216 0.183-0.422 0.084-0.328-0.155 0.323-0.792 1.031-2.564 0.694-2.995z"></path>
<path d="M16.549 17.147l0.005 0.005c0.581-0.511 1.627-1.425 2.217-1.917 0.234-0.188 0.192-0.502 0.009-0.764-0.53-0.731-1.092-1.327-1.092-2.677v-4.5c0-1.908 0.131-3.656-1.27-4.969-1.106-1.059-2.944-1.434-4.35-1.434-2.747 0-5.812 1.027-6.455 4.42-0.070 0.361 0.197 0.553 0.431 0.605l2.798 0.305c0.262-0.014 0.45-0.272 0.502-0.534 0.239-1.167 1.219-1.734 2.32-1.734 0.595 0 1.27 0.216 1.622 0.75 0.403 0.595 0.352 1.406 0.352 2.095v0.375c-1.673 0.188-3.862 0.309-5.428 0.998-1.809 0.783-3.080 2.377-3.080 4.72 0 3 1.889 4.5 4.322 4.5 2.053 0 3.173-0.483 4.758-2.105 0.525 0.759 0.694 1.13 1.655 1.927 0.22 0.117 0.492 0.108 0.684-0.066zM13.638 10.106c0 1.125 0.028 2.063-0.539 3.061-0.459 0.816-1.186 1.313-1.997 1.313-1.106 0-1.753-0.844-1.753-2.091 0-2.461 2.208-2.906 4.294-2.906v0.623z"></path>
</svg>
