<!-- Generated by IcoMoon.io -->
<svg version="1.1" xmlns="http://www.w3.org/2000/svg" width="8" height="24" viewBox="0 0 8 24">
<title>angle-right</title>
<path d="M7.969 12c0 0.107-0.054 0.228-0.134 0.308l-6.241 6.241c-0.080 0.080-0.201 0.134-0.308 0.134s-0.228-0.054-0.308-0.134l-0.67-0.67c-0.080-0.080-0.134-0.188-0.134-0.308 0-0.107 0.054-0.228 0.134-0.308l5.263-5.263-5.263-5.263c-0.080-0.080-0.134-0.201-0.134-0.308s0.054-0.228 0.134-0.308l0.67-0.67c0.080-0.080 0.201-0.134 0.308-0.134s0.228 0.054 0.308 0.134l6.241 6.241c0.080 0.080 0.134 0.201 0.134 0.308z"></path>
</svg>
