<?xml version="1.0" encoding="utf-8"?>
<!-- Generated by IcoMoon.io -->
<!DOCTYPE svg PUBLIC "-//W3C//DTD SVG 1.1//EN" "http://www.w3.org/Graphics/SVG/1.1/DTD/svg11.dtd">
<svg version="1.1" xmlns="http://www.w3.org/2000/svg" xmlns:xlink="http://www.w3.org/1999/xlink" width="21" height="32" viewBox="0 0 21 32">
<path d="M19.196 12.286c0 0.143-0.071 0.304-0.179 0.411l-8.321 8.321c-0.107 0.107-0.268 0.179-0.411 0.179s-0.304-0.071-0.411-0.179l-8.321-8.321c-0.107-0.107-0.179-0.268-0.179-0.411s0.071-0.304 0.179-0.411l0.893-0.893c0.107-0.107 0.25-0.179 0.411-0.179 0.143 0 0.304 0.071 0.411 0.179l7.018 7.018 7.018-7.018c0.107-0.107 0.268-0.179 0.411-0.179s0.304 0.071 0.411 0.179l0.893 0.893c0.107 0.107 0.179 0.268 0.179 0.411z"></path>
</svg>
