<!-- Generated by IcoMoon.io -->
<svg version="1.1" xmlns="http://www.w3.org/2000/svg" width="9" height="24" viewBox="0 0 9 24">
<title>angle-left</title>
<path d="M8.397 6.429c0 0.107-0.054 0.228-0.134 0.308l-5.263 5.263 5.263 5.263c0.080 0.080 0.134 0.201 0.134 0.308s-0.054 0.228-0.134 0.308l-0.67 0.67c-0.080 0.080-0.201 0.134-0.308 0.134s-0.228-0.054-0.308-0.134l-6.241-6.241c-0.080-0.080-0.134-0.201-0.134-0.308s0.054-0.228 0.134-0.308l6.241-6.241c0.080-0.080 0.201-0.134 0.308-0.134s0.228 0.054 0.308 0.134l0.67 0.67c0.080 0.080 0.134 0.188 0.134 0.308z"></path>
</svg>
