<?xml version="1.0" encoding="utf-8"?>
<!-- Generated by IcoMoon.io -->
<!DOCTYPE svg PUBLIC "-//W3C//DTD SVG 1.1//EN" "http://www.w3.org/Graphics/SVG/1.1/DTD/svg11.dtd">
<svg version="1.1" xmlns="http://www.w3.org/2000/svg" xmlns:xlink="http://www.w3.org/1999/xlink" width="25" height="32" viewBox="0 0 25 32">
<path d="M24.875 21.696c-0.446 1.411-1.161 2.911-2.196 4.464-1.536 2.339-3.071 3.5-4.589 3.5-0.607 0-1.429-0.196-2.5-0.571-1.054-0.393-1.964-0.571-2.696-0.571-0.714 0-1.571 0.196-2.536 0.589-0.982 0.411-1.768 0.607-2.357 0.607-1.839 0-3.607-1.554-5.375-4.625-1.732-3.071-2.625-6.054-2.625-8.982 0-2.732 0.679-4.946 2.018-6.679 1.339-1.714 3.018-2.571 5.071-2.571 0.875 0 1.911 0.179 3.161 0.536 1.232 0.357 2.054 0.536 2.464 0.536 0.518 0 1.375-0.196 2.554-0.607 1.179-0.393 2.214-0.607 3.089-0.607 1.429 0 2.696 0.393 3.804 1.161 0.625 0.429 1.25 1.036 1.857 1.786-0.929 0.786-1.607 1.482-2.036 2.107-0.768 1.107-1.161 2.339-1.161 3.696 0 1.464 0.411 2.804 1.232 3.982s1.768 1.929 2.821 2.25zM18.161 0.75c0 0.732-0.179 1.554-0.518 2.429-0.357 0.893-0.911 1.714-1.661 2.464-0.643 0.643-1.286 1.071-1.929 1.286-0.411 0.125-1.018 0.232-1.857 0.304 0.036-1.768 0.5-3.304 1.393-4.589s2.393-2.161 4.464-2.643c0.036 0.161 0.071 0.286 0.089 0.393 0 0.125 0.018 0.232 0.018 0.357z"></path>
</svg>
