<!-- Generated by IcoMoon.io -->
<svg version="1.1" xmlns="http://www.w3.org/2000/svg" width="24" height="24" viewBox="0 0 24 24">
<title>appleinc</title>
<path d="M19.107 12.724c-0.030-3.039 2.479-4.497 2.591-4.57-1.41-2.063-3.606-2.346-4.388-2.378-1.869-0.189-3.647 1.1-4.595 1.1-0.946 0-2.41-1.072-3.96-1.044-2.037 0.030-3.915 1.184-4.964 3.009-2.117 3.673-0.542 9.113 1.521 12.092 1.008 1.458 2.21 3.096 3.788 3.037 1.52-0.061 2.094-0.983 3.932-0.983s2.354 0.983 3.962 0.953c1.635-0.030 2.671-1.486 3.672-2.948 1.158-1.691 1.634-3.329 1.662-3.413-0.036-0.017-3.189-1.224-3.22-4.855zM16.085 3.804c0.838-1.016 1.403-2.426 1.249-3.833-1.207 0.049-2.669 0.804-3.535 1.818-0.777 0.899-1.457 2.335-1.274 3.713 1.347 0.105 2.722-0.684 3.56-1.698z"></path>
</svg>
