<!-- Generated by IcoMoon.io -->
<svg version="1.1" xmlns="http://www.w3.org/2000/svg" width="22" height="24" viewBox="0 0 22 24">
<title>arrow-down</title>
<path d="M21.576 11.498c0 0.455-0.188 0.897-0.496 1.205l-8.719 8.732c-0.321 0.308-0.763 0.496-1.219 0.496s-0.897-0.188-1.205-0.496l-8.719-8.732c-0.321-0.308-0.509-0.75-0.509-1.205s0.188-0.897 0.509-1.219l0.991-1.004c0.321-0.308 0.763-0.496 1.219-0.496s0.897 0.188 1.205 0.496l3.938 3.938v-9.429c0-0.938 0.777-1.714 1.714-1.714h1.714c0.938 0 1.714 0.777 1.714 1.714v9.429l3.938-3.938c0.308-0.308 0.75-0.496 1.205-0.496s0.897 0.188 1.219 0.496l1.004 1.004c0.308 0.321 0.496 0.763 0.496 1.219z"></path>
</svg>
