<?xml version="1.0" encoding="utf-8"?>
<!-- Generated by IcoMoon.io -->
<!DOCTYPE svg PUBLIC "-//W3C//DTD SVG 1.1//EN" "http://www.w3.org/Graphics/SVG/1.1/DTD/svg11.dtd">
<svg version="1.1" xmlns="http://www.w3.org/2000/svg" xmlns:xlink="http://www.w3.org/1999/xlink" width="30" height="32" viewBox="0 0 30 32">
<path d="M28.768 15.33c0 0.607-0.25 1.196-0.661 1.607l-11.625 11.643c-0.429 0.411-1.018 0.661-1.625 0.661s-1.196-0.25-1.607-0.661l-11.625-11.643c-0.429-0.411-0.679-1-0.679-1.607s0.25-1.196 0.679-1.625l1.321-1.339c0.429-0.411 1.018-0.661 1.625-0.661s1.196 0.25 1.607 0.661l5.25 5.25v-12.571c0-1.25 1.036-2.286 2.286-2.286h2.286c1.25 0 2.286 1.036 2.286 2.286v12.571l5.25-5.25c0.411-0.411 1-0.661 1.607-0.661s1.196 0.25 1.625 0.661l1.339 1.339c0.411 0.429 0.661 1.018 0.661 1.625z"></path>
</svg>
