<!-- Generated by IcoMoon.io -->
<svg version="1.1" xmlns="http://www.w3.org/2000/svg" width="21" height="24" viewBox="0 0 21 24">
<title>arrow-circle-o-right</title>
<path d="M15.429 12c0 0.107-0.040 0.228-0.121 0.308l-4.286 4.286c-0.080 0.080-0.201 0.121-0.308 0.121-0.228 0-0.429-0.201-0.429-0.429v-2.571h-4.714c-0.228 0-0.429-0.201-0.429-0.429v-2.571c0-0.228 0.201-0.429 0.429-0.429h4.714v-2.571c0-0.241 0.188-0.429 0.429-0.429 0.121 0 0.228 0.054 0.321 0.134l4.272 4.272c0.080 0.080 0.121 0.201 0.121 0.308zM17.571 12c0-4.018-3.268-7.286-7.286-7.286s-7.286 3.268-7.286 7.286 3.268 7.286 7.286 7.286 7.286-3.268 7.286-7.286zM20.571 12c0 5.679-4.607 10.286-10.286 10.286s-10.286-4.607-10.286-10.286 4.607-10.286 10.286-10.286 10.286 4.607 10.286 10.286z"></path>
</svg>
