<!-- Generated by IcoMoon.io -->
<svg version="1.1" xmlns="http://www.w3.org/2000/svg" width="21" height="24" viewBox="0 0 21 24">
<title>arrow-circle-right</title>
<path d="M17.21 12c0-0.228-0.080-0.442-0.241-0.603l-6.067-6.067c-0.161-0.161-0.375-0.241-0.603-0.241s-0.442 0.080-0.603 0.241l-1.219 1.219c-0.161 0.161-0.241 0.375-0.241 0.603s0.080 0.442 0.241 0.603l2.531 2.531h-6.723c-0.469 0-0.857 0.388-0.857 0.857v1.714c0 0.469 0.388 0.857 0.857 0.857h6.723l-2.531 2.531c-0.161 0.161-0.254 0.375-0.254 0.603s0.094 0.442 0.254 0.603l1.219 1.219c0.161 0.161 0.375 0.241 0.603 0.241s0.442-0.080 0.603-0.241l6.067-6.067c0.161-0.161 0.241-0.375 0.241-0.603zM20.571 12c0 5.679-4.607 10.286-10.286 10.286s-10.286-4.607-10.286-10.286 4.607-10.286 10.286-10.286 10.286 4.607 10.286 10.286z"></path>
</svg>
