<!-- Generated by IcoMoon.io -->
<svg version="1.1" xmlns="http://www.w3.org/2000/svg" width="21" height="24" viewBox="0 0 21 24">
<title>arrow-circle-o-down</title>
<path d="M15 12.429c0 0.121-0.054 0.228-0.134 0.321l-4.272 4.272c-0.094 0.080-0.201 0.121-0.308 0.121s-0.214-0.040-0.308-0.121l-4.286-4.286c-0.121-0.134-0.161-0.308-0.094-0.469s0.228-0.268 0.402-0.268h2.571v-4.714c0-0.241 0.188-0.429 0.429-0.429h2.571c0.241 0 0.429 0.188 0.429 0.429v4.714h2.571c0.241 0 0.429 0.188 0.429 0.429zM10.286 4.714c-4.018 0-7.286 3.268-7.286 7.286s3.268 7.286 7.286 7.286 7.286-3.268 7.286-7.286-3.268-7.286-7.286-7.286zM20.571 12c0 5.679-4.607 10.286-10.286 10.286s-10.286-4.607-10.286-10.286 4.607-10.286 10.286-10.286v0c5.679 0 10.286 4.607 10.286 10.286z"></path>
</svg>
