<?xml version="1.0" encoding="utf-8"?>
<!-- Generated by IcoMoon.io -->
<!DOCTYPE svg PUBLIC "-//W3C//DTD SVG 1.1//EN" "http://www.w3.org/Graphics/SVG/1.1/DTD/svg11.dtd">
<svg version="1.1" xmlns="http://www.w3.org/2000/svg" xmlns:xlink="http://www.w3.org/1999/xlink" width="27" height="32" viewBox="0 0 27 32">
<path d="M22.911 9.661l-6.339 6.339 6.339 6.339 2.571-2.571c0.321-0.339 0.821-0.429 1.25-0.25 0.411 0.179 0.696 0.589 0.696 1.054v8c0 0.625-0.518 1.143-1.143 1.143h-8c-0.464 0-0.875-0.286-1.054-0.714-0.179-0.411-0.089-0.911 0.25-1.232l2.571-2.571-6.339-6.339-6.339 6.339 2.571 2.571c0.339 0.321 0.429 0.821 0.25 1.232-0.179 0.429-0.589 0.714-1.054 0.714h-8c-0.625 0-1.143-0.518-1.143-1.143v-8c0-0.464 0.286-0.875 0.714-1.054 0.411-0.179 0.911-0.089 1.232 0.25l2.571 2.571 6.339-6.339-6.339-6.339-2.571 2.571c-0.214 0.214-0.5 0.339-0.804 0.339-0.143 0-0.304-0.036-0.429-0.089-0.429-0.179-0.714-0.589-0.714-1.054v-8c0-0.625 0.518-1.143 1.143-1.143h8c0.464 0 0.875 0.286 1.054 0.714 0.179 0.411 0.089 0.911-0.25 1.232l-2.571 2.571 6.339 6.339 6.339-6.339-2.571-2.571c-0.339-0.321-0.429-0.821-0.25-1.232 0.179-0.429 0.589-0.714 1.054-0.714h8c0.625 0 1.143 0.518 1.143 1.143v8c0 0.464-0.286 0.875-0.696 1.054-0.143 0.054-0.304 0.089-0.446 0.089-0.304 0-0.589-0.125-0.804-0.339z"></path>
</svg>
