<?xml version="1.0" encoding="utf-8"?>
<!-- Generated by IcoMoon.io -->
<!DOCTYPE svg PUBLIC "-//W3C//DTD SVG 1.1//EN" "http://www.w3.org/Graphics/SVG/1.1/DTD/svg11.dtd">
<svg version="1.1" xmlns="http://www.w3.org/2000/svg" xmlns:xlink="http://www.w3.org/1999/xlink" width="29" height="32" viewBox="0 0 29 32">
<path d="M27.429 14.857v2.286c0 1.214-0.804 2.286-2.089 2.286h-12.571l5.232 5.25c0.429 0.411 0.679 1 0.679 1.607s-0.25 1.196-0.679 1.607l-1.339 1.357c-0.411 0.411-1 0.661-1.607 0.661s-1.196-0.25-1.625-0.661l-11.625-11.643c-0.411-0.411-0.661-1-0.661-1.607s0.25-1.196 0.661-1.625l11.625-11.607c0.429-0.429 1.018-0.679 1.625-0.679s1.179 0.25 1.607 0.679l1.339 1.321c0.429 0.429 0.679 1.018 0.679 1.625s-0.25 1.196-0.679 1.625l-5.232 5.232h12.571c1.286 0 2.089 1.071 2.089 2.286z"></path>
</svg>
