<!-- Generated by IcoMoon.io -->
<svg version="1.1" xmlns="http://www.w3.org/2000/svg" width="21" height="24" viewBox="0 0 21 24">
<title>arrow-left</title>
<path d="M20.571 11.143v1.714c0 0.911-0.603 1.714-1.567 1.714h-9.429l3.924 3.938c0.321 0.308 0.509 0.75 0.509 1.205s-0.188 0.897-0.509 1.205l-1.004 1.018c-0.308 0.308-0.75 0.496-1.205 0.496s-0.897-0.188-1.219-0.496l-8.719-8.732c-0.308-0.308-0.496-0.75-0.496-1.205s0.188-0.897 0.496-1.219l8.719-8.705c0.321-0.321 0.763-0.509 1.219-0.509s0.884 0.188 1.205 0.509l1.004 0.991c0.321 0.321 0.509 0.763 0.509 1.219s-0.188 0.897-0.509 1.219l-3.924 3.924h9.429c0.964 0 1.567 0.804 1.567 1.714z"></path>
</svg>
