<!-- Generated by IcoMoon.io -->
<svg version="1.1" xmlns="http://www.w3.org/2000/svg" width="22" height="24" viewBox="0 0 22 24">
<title>arrow-up</title>
<path d="M21.576 12.576c0 0.455-0.188 0.884-0.496 1.205l-1.004 1.004c-0.321 0.321-0.763 0.509-1.219 0.509s-0.897-0.188-1.205-0.509l-3.938-3.924v9.429c0 0.964-0.804 1.567-1.714 1.567h-1.714c-0.911 0-1.714-0.603-1.714-1.567v-9.429l-3.938 3.924c-0.308 0.321-0.75 0.509-1.205 0.509s-0.897-0.188-1.205-0.509l-1.004-1.004c-0.321-0.321-0.509-0.75-0.509-1.205s0.188-0.897 0.509-1.219l8.719-8.719c0.308-0.321 0.75-0.496 1.205-0.496s0.897 0.174 1.219 0.496l8.719 8.719c0.308 0.321 0.496 0.763 0.496 1.219z"></path>
</svg>
