<?xml version="1.0" encoding="utf-8"?>
<!-- Generated by IcoMoon.io -->
<!DOCTYPE svg PUBLIC "-//W3C//DTD SVG 1.1//EN" "http://www.w3.org/Graphics/SVG/1.1/DTD/svg11.dtd">
<svg version="1.1" xmlns="http://www.w3.org/2000/svg" xmlns:xlink="http://www.w3.org/1999/xlink" width="30" height="32" viewBox="0 0 30 32">
<path d="M28.768 16.768c0 0.607-0.25 1.179-0.661 1.607l-1.339 1.339c-0.429 0.429-1.018 0.679-1.625 0.679s-1.196-0.25-1.607-0.679l-5.25-5.232v12.571c0 1.286-1.071 2.089-2.286 2.089h-2.286c-1.214 0-2.286-0.804-2.286-2.089v-12.571l-5.25 5.232c-0.411 0.429-1 0.679-1.607 0.679s-1.196-0.25-1.607-0.679l-1.339-1.339c-0.429-0.429-0.679-1-0.679-1.607s0.25-1.196 0.679-1.625l11.625-11.625c0.411-0.429 1-0.661 1.607-0.661s1.196 0.232 1.625 0.661l11.625 11.625c0.411 0.429 0.661 1.018 0.661 1.625z"></path>
</svg>
