<?xml version="1.0" encoding="utf-8"?>
<!-- Generated by IcoMoon.io -->
<!DOCTYPE svg PUBLIC "-//W3C//DTD SVG 1.1//EN" "http://www.w3.org/Graphics/SVG/1.1/DTD/svg11.dtd">
<svg version="1.1" xmlns="http://www.w3.org/2000/svg" xmlns:xlink="http://www.w3.org/1999/xlink" width="27" height="32" viewBox="0 0 27 32">
<path d="M20 16.571c0 0.161-0.071 0.304-0.179 0.429l-5.696 5.696c-0.125 0.107-0.268 0.161-0.411 0.161s-0.286-0.054-0.411-0.161l-5.714-5.714c-0.161-0.179-0.214-0.411-0.125-0.625s0.304-0.357 0.536-0.357h3.429v-6.286c0-0.321 0.25-0.571 0.571-0.571h3.429c0.321 0 0.571 0.25 0.571 0.571v6.286h3.429c0.321 0 0.571 0.25 0.571 0.571zM13.714 6.286c-5.357 0-9.714 4.357-9.714 9.714s4.357 9.714 9.714 9.714 9.714-4.357 9.714-9.714-4.357-9.714-9.714-9.714zM27.429 16c0 7.571-6.143 13.714-13.714 13.714s-13.714-6.143-13.714-13.714 6.143-13.714 13.714-13.714v0c7.571 0 13.714 6.143 13.714 13.714z"></path>
</svg>
