<?xml version="1.0" encoding="utf-8"?>
<!-- Generated by IcoMoon.io -->
<!DOCTYPE svg PUBLIC "-//W3C//DTD SVG 1.1//EN" "http://www.w3.org/Graphics/SVG/1.1/DTD/svg11.dtd">
<svg version="1.1" xmlns="http://www.w3.org/2000/svg" xmlns:xlink="http://www.w3.org/1999/xlink" width="32" height="32" viewBox="0 0 32 32">
<path d="M32 16c0 0.304-0.125 0.589-0.339 0.804l-4.571 4.571c-0.214 0.214-0.5 0.339-0.804 0.339-0.625 0-1.143-0.518-1.143-1.143v-2.286h-6.857v6.857h2.286c0.625 0 1.143 0.518 1.143 1.143 0 0.304-0.125 0.589-0.339 0.804l-4.571 4.571c-0.214 0.214-0.5 0.339-0.804 0.339s-0.589-0.125-0.804-0.339l-4.571-4.571c-0.214-0.214-0.339-0.5-0.339-0.804 0-0.625 0.518-1.143 1.143-1.143h2.286v-6.857h-6.857v2.286c0 0.625-0.518 1.143-1.143 1.143-0.304 0-0.589-0.125-0.804-0.339l-4.571-4.571c-0.214-0.214-0.339-0.5-0.339-0.804s0.125-0.589 0.339-0.804l4.571-4.571c0.214-0.214 0.5-0.339 0.804-0.339 0.625 0 1.143 0.518 1.143 1.143v2.286h6.857v-6.857h-2.286c-0.625 0-1.143-0.518-1.143-1.143 0-0.304 0.125-0.589 0.339-0.804l4.571-4.571c0.214-0.214 0.5-0.339 0.804-0.339s0.589 0.125 0.804 0.339l4.571 4.571c0.214 0.214 0.339 0.5 0.339 0.804 0 0.625-0.518 1.143-1.143 1.143h-2.286v6.857h6.857v-2.286c0-0.625 0.518-1.143 1.143-1.143 0.304 0 0.589 0.125 0.804 0.339l4.571 4.571c0.214 0.214 0.339 0.5 0.339 0.804z"></path>
</svg>
