<!-- Generated by IcoMoon.io -->
<svg version="1.1" xmlns="http://www.w3.org/2000/svg" width="21" height="24" viewBox="0 0 21 24">
<title>arrows-alt</title>
<path d="M17.183 7.246l-4.754 4.754 4.754 4.754 1.929-1.929c0.241-0.254 0.616-0.321 0.938-0.188 0.308 0.134 0.522 0.442 0.522 0.79v6c0 0.469-0.388 0.857-0.857 0.857h-6c-0.348 0-0.656-0.214-0.79-0.536-0.134-0.308-0.067-0.683 0.188-0.924l1.929-1.929-4.754-4.754-4.754 4.754 1.929 1.929c0.254 0.241 0.321 0.616 0.188 0.924-0.134 0.321-0.442 0.536-0.79 0.536h-6c-0.469 0-0.857-0.388-0.857-0.857v-6c0-0.348 0.214-0.656 0.536-0.79 0.308-0.134 0.683-0.067 0.924 0.188l1.929 1.929 4.754-4.754-4.754-4.754-1.929 1.929c-0.161 0.161-0.375 0.254-0.603 0.254-0.107 0-0.228-0.027-0.321-0.067-0.321-0.134-0.536-0.442-0.536-0.79v-6c0-0.469 0.388-0.857 0.857-0.857h6c0.348 0 0.656 0.214 0.79 0.536 0.134 0.308 0.067 0.683-0.188 0.924l-1.929 1.929 4.754 4.754 4.754-4.754-1.929-1.929c-0.254-0.241-0.321-0.616-0.188-0.924 0.134-0.321 0.442-0.536 0.79-0.536h6c0.469 0 0.857 0.388 0.857 0.857v6c0 0.348-0.214 0.656-0.522 0.79-0.107 0.040-0.228 0.067-0.335 0.067-0.228 0-0.442-0.094-0.603-0.254z"></path>
</svg>
