<?xml version="1.0" encoding="utf-8"?>
<!-- Generated by IcoMoon.io -->
<!DOCTYPE svg PUBLIC "-//W3C//DTD SVG 1.1//EN" "http://www.w3.org/Graphics/SVG/1.1/DTD/svg11.dtd">
<svg version="1.1" xmlns="http://www.w3.org/2000/svg" xmlns:xlink="http://www.w3.org/1999/xlink" width="26" height="32" viewBox="0 0 26 32">
<path d="M26.286 16c0 0.607-0.232 1.196-0.661 1.625l-11.625 11.625c-0.429 0.411-1.018 0.661-1.625 0.661s-1.179-0.25-1.607-0.661l-1.339-1.339c-0.429-0.429-0.679-1.018-0.679-1.625s0.25-1.196 0.679-1.625l5.232-5.232h-12.571c-1.286 0-2.089-1.071-2.089-2.286v-2.286c0-1.214 0.804-2.286 2.089-2.286h12.571l-5.232-5.25c-0.429-0.411-0.679-1-0.679-1.607s0.25-1.196 0.679-1.607l1.339-1.339c0.429-0.429 1-0.679 1.607-0.679s1.196 0.25 1.625 0.679l11.625 11.625c0.429 0.411 0.661 1 0.661 1.607z"></path>
</svg>
