<!-- Generated by IcoMoon.io -->
<svg version="1.1" xmlns="http://www.w3.org/2000/svg" width="21" height="24" viewBox="0 0 21 24">
<title>arrow-circle-up</title>
<path d="M17.196 11.987c0-0.228-0.080-0.442-0.241-0.603l-6.067-6.067c-0.161-0.161-0.375-0.241-0.603-0.241s-0.442 0.080-0.603 0.241l-6.067 6.067c-0.161 0.161-0.241 0.375-0.241 0.603s0.080 0.442 0.241 0.603l1.219 1.219c0.161 0.161 0.375 0.241 0.603 0.241s0.442-0.080 0.603-0.241l2.531-2.531v6.723c0 0.469 0.388 0.857 0.857 0.857h1.714c0.469 0 0.857-0.388 0.857-0.857v-6.723l2.531 2.531c0.161 0.161 0.375 0.254 0.603 0.254s0.442-0.094 0.603-0.254l1.219-1.219c0.161-0.161 0.241-0.375 0.241-0.603zM20.571 12c0 5.679-4.607 10.286-10.286 10.286s-10.286-4.607-10.286-10.286 4.607-10.286 10.286-10.286 10.286 4.607 10.286 10.286z"></path>
</svg>
