<!-- Generated by IcoMoon.io -->
<svg version="1.1" xmlns="http://www.w3.org/2000/svg" width="20" height="24" viewBox="0 0 20 24">
<title>arrow-right</title>
<path d="M19.714 12c0 0.455-0.174 0.897-0.496 1.219l-8.719 8.719c-0.321 0.308-0.763 0.496-1.219 0.496s-0.884-0.188-1.205-0.496l-1.004-1.004c-0.321-0.321-0.509-0.763-0.509-1.219s0.188-0.897 0.509-1.219l3.924-3.924h-9.429c-0.964 0-1.567-0.804-1.567-1.714v-1.714c0-0.911 0.603-1.714 1.567-1.714h9.429l-3.924-3.938c-0.321-0.308-0.509-0.75-0.509-1.205s0.188-0.897 0.509-1.205l1.004-1.004c0.321-0.321 0.75-0.509 1.205-0.509s0.897 0.188 1.219 0.509l8.719 8.719c0.321 0.308 0.496 0.75 0.496 1.205z"></path>
</svg>
