<!-- Generated by IcoMoon.io -->
<svg version="1.1" xmlns="http://www.w3.org/2000/svg" width="22" height="24" viewBox="0 0 22 24">
<title>asterisk</title>
<path d="M19.848 14.063c0.817 0.469 1.098 1.527 0.629 2.344l-0.857 1.473c-0.469 0.817-1.527 1.098-2.344 0.629l-3.563-2.049v4.112c0 0.938-0.777 1.714-1.714 1.714h-1.714c-0.938 0-1.714-0.777-1.714-1.714v-4.112l-3.562 2.049c-0.817 0.469-1.875 0.188-2.344-0.629l-0.857-1.473c-0.469-0.817-0.188-1.875 0.629-2.344l3.563-2.063-3.563-2.063c-0.817-0.469-1.098-1.527-0.629-2.344l0.857-1.473c0.469-0.817 1.527-1.098 2.344-0.629l3.562 2.049v-4.112c0-0.938 0.777-1.714 1.714-1.714h1.714c0.938 0 1.714 0.777 1.714 1.714v4.112l3.563-2.049c0.817-0.469 1.875-0.188 2.344 0.629l0.857 1.473c0.469 0.817 0.188 1.875-0.629 2.344l-3.563 2.063z"></path>
</svg>
