<?xml version="1.0" encoding="utf-8"?>
<!-- Generated by IcoMoon.io -->
<!DOCTYPE svg PUBLIC "-//W3C//DTD SVG 1.1//EN" "http://www.w3.org/Graphics/SVG/1.1/DTD/svg11.dtd">
<svg version="1.1" xmlns="http://www.w3.org/2000/svg" xmlns:xlink="http://www.w3.org/1999/xlink" width="30" height="32" viewBox="0 0 30 32">
<path d="M26.464 18.75c1.089 0.625 1.464 2.036 0.839 3.125l-1.143 1.964c-0.625 1.089-2.036 1.464-3.125 0.839l-4.75-2.732v5.482c0 1.25-1.036 2.286-2.286 2.286h-2.286c-1.25 0-2.286-1.036-2.286-2.286v-5.482l-4.75 2.732c-1.089 0.625-2.5 0.25-3.125-0.839l-1.143-1.964c-0.625-1.089-0.25-2.5 0.839-3.125l4.75-2.75-4.75-2.75c-1.089-0.625-1.464-2.036-0.839-3.125l1.143-1.964c0.625-1.089 2.036-1.464 3.125-0.839l4.75 2.732v-5.482c0-1.25 1.036-2.286 2.286-2.286h2.286c1.25 0 2.286 1.036 2.286 2.286v5.482l4.75-2.732c1.089-0.625 2.5-0.25 3.125 0.839l1.143 1.964c0.625 1.089 0.25 2.5-0.839 3.125l-4.75 2.75z"></path>
</svg>
