<!-- Generated by IcoMoon.io -->
<svg version="1.1" xmlns="http://www.w3.org/2000/svg" width="24" height="24" viewBox="0 0 24 24">
<title>behance</title>
<path d="M6.94 4.481c0.708 0 1.345 0.061 1.927 0.188 0.581 0.122 1.073 0.328 1.491 0.609 0.413 0.281 0.731 0.656 0.966 1.125 0.225 0.464 0.337 1.045 0.337 1.734 0 0.745-0.169 1.364-0.506 1.861-0.342 0.497-0.839 0.9-1.505 1.219 0.909 0.262 1.58 0.722 2.030 1.373 0.45 0.656 0.666 1.444 0.666 2.372 0 0.75-0.145 1.392-0.431 1.936-0.291 0.548-0.684 0.994-1.167 1.336-0.487 0.347-1.050 0.6-1.678 0.764-0.623 0.164-1.266 0.248-1.931 0.248h-7.158v-14.766h6.961zM6.518 10.444c0.577 0 1.055-0.136 1.43-0.413 0.375-0.272 0.553-0.722 0.553-1.341 0-0.342-0.061-0.628-0.183-0.848-0.127-0.22-0.291-0.394-0.502-0.516-0.206-0.127-0.441-0.211-0.717-0.258-0.267-0.052-0.548-0.075-0.834-0.075h-3.038v3.45h3.291zM6.696 16.73c0.319 0 0.623-0.028 0.909-0.094 0.291-0.066 0.548-0.164 0.764-0.314 0.216-0.145 0.398-0.337 0.53-0.591 0.131-0.248 0.192-0.567 0.192-0.956 0-0.759-0.216-1.303-0.642-1.631-0.427-0.323-0.994-0.483-1.697-0.483h-3.525v4.064h3.469z"></path>
<path d="M16.976 16.678c0.441 0.431 1.073 0.647 1.898 0.647 0.591 0 1.106-0.15 1.533-0.45s0.684-0.619 0.783-0.947h2.587c-0.417 1.289-1.045 2.203-1.908 2.756-0.848 0.553-1.889 0.834-3.094 0.834-0.844 0-1.598-0.136-2.278-0.403-0.68-0.272-1.247-0.652-1.725-1.148-0.464-0.497-0.83-1.087-1.088-1.781-0.253-0.689-0.384-1.453-0.384-2.278 0-0.802 0.131-1.547 0.394-2.236 0.267-0.694 0.633-1.289 1.12-1.791s1.059-0.9 1.734-1.191c0.67-0.291 1.411-0.436 2.231-0.436 0.905 0 1.697 0.173 2.377 0.53 0.675 0.352 1.233 0.825 1.669 1.416s0.745 1.27 0.938 2.030c0.192 0.759 0.258 1.552 0.206 2.381h-7.72c0 0.839 0.281 1.641 0.727 2.067zM20.346 11.063c-0.347-0.384-0.942-0.595-1.659-0.595-0.469 0-0.858 0.080-1.167 0.239-0.305 0.159-0.553 0.356-0.745 0.591-0.188 0.234-0.319 0.488-0.394 0.755-0.075 0.258-0.122 0.497-0.136 0.703h4.781c-0.070-0.75-0.328-1.303-0.68-1.692z"></path>
<path d="M15.645 5.672h5.986v1.458h-5.986v-1.458z"></path>
</svg>
