<?xml version="1.0" encoding="utf-8"?>
<!-- Generated by IcoMoon.io -->
<!DOCTYPE svg PUBLIC "-//W3C//DTD SVG 1.1//EN" "http://www.w3.org/Graphics/SVG/1.1/DTD/svg11.dtd">
<svg version="1.1" xmlns="http://www.w3.org/2000/svg" xmlns:xlink="http://www.w3.org/1999/xlink" width="37" height="32" viewBox="0 0 37 32">
<path d="M27.821 15.214c0.911 5.321 3.25 8.179 5.321 9.929 0 1.25-1.036 2.286-2.286 2.286h-8c0 2.518-2.054 4.571-4.571 4.571s-4.554-2.036-4.571-4.554zM18.286 30.571c0.161 0 0.286-0.125 0.286-0.286s-0.125-0.286-0.286-0.286c-1.411 0-2.571-1.161-2.571-2.571 0-0.161-0.125-0.286-0.286-0.286s-0.286 0.125-0.286 0.286c0 1.732 1.411 3.143 3.143 3.143zM36.179 2c0.196 0.25 0.179 0.607-0.054 0.821l-33.429 28.964c-0.232 0.196-0.607 0.179-0.804-0.071l-1.5-1.714c-0.196-0.25-0.179-0.607 0.054-0.804l3.321-2.875c-0.214-0.357-0.339-0.75-0.339-1.179 2.643-2.232 5.714-6.232 5.714-14.857 0-3.429 2.839-7.179 7.571-7.875-0.089-0.214-0.143-0.446-0.143-0.696 0-0.946 0.768-1.714 1.714-1.714s1.714 0.768 1.714 1.714c0 0.25-0.054 0.482-0.143 0.696 3.071 0.446 5.339 2.179 6.554 4.286l7.464-6.482c0.232-0.196 0.607-0.179 0.804 0.071z"></path>
</svg>
