<?xml version="1.0" encoding="utf-8"?>
<!-- Generated by IcoMoon.io -->
<!DOCTYPE svg PUBLIC "-//W3C//DTD SVG 1.1//EN" "http://www.w3.org/Graphics/SVG/1.1/DTD/svg11.dtd">
<svg version="1.1" xmlns="http://www.w3.org/2000/svg" xmlns:xlink="http://www.w3.org/1999/xlink" width="32" height="32" viewBox="0 0 32 32">
<path d="M16.286 30.286c0-0.161-0.125-0.286-0.286-0.286-1.411 0-2.571-1.161-2.571-2.571 0-0.161-0.125-0.286-0.286-0.286s-0.286 0.125-0.286 0.286c0 1.732 1.411 3.143 3.143 3.143 0.161 0 0.286-0.125 0.286-0.286zM30.857 25.143c0 1.25-1.036 2.286-2.286 2.286h-8c0 2.518-2.054 4.571-4.571 4.571s-4.571-2.054-4.571-4.571h-8c-1.25 0-2.286-1.036-2.286-2.286 2.643-2.232 5.714-6.232 5.714-14.857 0-3.429 2.839-7.179 7.571-7.875-0.089-0.214-0.143-0.446-0.143-0.696 0-0.946 0.768-1.714 1.714-1.714s1.714 0.768 1.714 1.714c0 0.25-0.054 0.482-0.143 0.696 4.732 0.696 7.571 4.446 7.571 7.875 0 8.625 3.071 12.625 5.714 14.857z"></path>
</svg>
