<!-- Generated by IcoMoon.io -->
<svg version="1.1" xmlns="http://www.w3.org/2000/svg" width="27" height="24" viewBox="0 0 27 24">
<title>books</title>
<path d="M5.813 2.947h-4.5c-0.413 0-0.75 0.337-0.75 0.75v16.5c0 0.413 0.337 0.75 0.75 0.75h4.5c0.412 0 0.75-0.337 0.75-0.75v-16.5c0-0.412-0.337-0.75-0.75-0.75zM5.063 7.447h-3v-1.5h3v1.5z"></path>
<path d="M13.313 2.947h-4.5c-0.413 0-0.75 0.337-0.75 0.75v16.5c0 0.413 0.337 0.75 0.75 0.75h4.5c0.413 0 0.75-0.337 0.75-0.75v-16.5c0-0.412-0.337-0.75-0.75-0.75zM12.563 7.447h-3v-1.5h3v1.5z"></path>
<path d="M18.495 4.107l-4.019 2.025c-0.368 0.186-0.518 0.639-0.332 1.007l6.749 13.396c0.186 0.368 0.639 0.518 1.007 0.332l4.019-2.025c0.368-0.186 0.518-0.639 0.332-1.007l-6.749-13.396c-0.186-0.368-0.639-0.518-1.007-0.332z"></path>
</svg>
