<!-- Generated by IcoMoon.io -->
<svg version="1.1" xmlns="http://www.w3.org/2000/svg" width="24" height="24" viewBox="0 0 24 24">
<title>bullhorn</title>
<path d="M24 10.011c0-4.709-1.378-8.53-3.082-8.56 0.007-0 0.014-0.001 0.020-0.001h-1.944c0 0-4.566 3.43-11.138 4.775-0.201 1.062-0.329 2.327-0.329 3.785s0.128 2.724 0.329 3.785c6.573 1.346 11.138 4.776 11.138 4.776h1.944c-0.007 0-0.014-0.001-0.020-0.001 1.704-0.030 3.082-3.851 3.082-8.56zM20.269 17.276c-0.22 0-0.458-0.228-0.58-0.364-0.296-0.33-0.581-0.843-0.825-1.484-0.545-1.435-0.845-3.359-0.845-5.417s0.3-3.982 0.845-5.417c0.244-0.641 0.529-1.155 0.825-1.484 0.122-0.136 0.36-0.365 0.58-0.365s0.458 0.228 0.58 0.365c0.296 0.33 0.581 0.843 0.825 1.484 0.545 1.435 0.845 3.359 0.845 5.417s-0.3 3.982-0.845 5.417c-0.244 0.641-0.529 1.155-0.825 1.484-0.122 0.136-0.36 0.364-0.58 0.364zM5.902 10.011c0-1.218 0.089-2.401 0.259-3.494-1.11 0.154-2.085 0.242-3.289 0.242-1.572 0-1.572 0-1.572 0l-1.3 2.219v2.066l1.3 2.219c0 0 0 0 1.572 0 1.205 0 2.179 0.088 3.289 0.242-0.17-1.094-0.259-2.277-0.259-3.494zM8.629 15.001l-3-0.574 1.918 7.536c0.099 0.39 0.486 0.587 0.86 0.437l2.779-1.112c0.374-0.149 0.523-0.562 0.333-0.916l-2.889-5.371zM20.269 12.811c-0.085 0-0.176-0.088-0.224-0.14-0.114-0.127-0.224-0.325-0.318-0.572-0.21-0.553-0.326-1.295-0.326-2.088s0.116-1.535 0.326-2.088c0.094-0.247 0.204-0.445 0.318-0.572 0.047-0.053 0.139-0.14 0.224-0.14s0.176 0.088 0.224 0.14c0.114 0.127 0.224 0.325 0.318 0.572 0.21 0.553 0.326 1.295 0.326 2.088s-0.116 1.535-0.326 2.088c-0.094 0.247-0.204 0.445-0.318 0.572-0.047 0.052-0.139 0.14-0.224 0.14z"></path>
</svg>
