<!-- Generated by IcoMoon.io -->
<svg version="1.1" xmlns="http://www.w3.org/2000/svg" width="24" height="24" viewBox="0 0 24 24">
<title>cart</title>
<path d="M9 21c0 1.243-1.007 2.25-2.25 2.25s-2.25-1.007-2.25-2.25c0-1.243 1.007-2.25 2.25-2.25s2.25 1.007 2.25 2.25z"></path>
<path d="M24 21c0 1.243-1.007 2.25-2.25 2.25s-2.25-1.007-2.25-2.25c0-1.243 1.007-2.25 2.25-2.25s2.25 1.007 2.25 2.25z"></path>
<path d="M24 11.25v-9h-18c0-0.828-0.672-1.5-1.5-1.5h-4.5v1.5h3l1.127 9.658c-0.687 0.55-1.127 1.395-1.127 2.342 0 1.657 1.343 3 3 3h18v-1.5h-18c-0.828 0-1.5-0.672-1.5-1.5 0-0.005 0-0.010 0-0.015l19.5-2.985z"></path>
</svg>
