<?xml version="1.0" encoding="utf-8"?>
<!-- Generated by IcoMoon.io -->
<!DOCTYPE svg PUBLIC "-//W3C//DTD SVG 1.1//EN" "http://www.w3.org/Graphics/SVG/1.1/DTD/svg11.dtd">
<svg version="1.1" xmlns="http://www.w3.org/2000/svg" xmlns:xlink="http://www.w3.org/1999/xlink" width="41" height="32" viewBox="0 0 41 32">
<path d="M13.304 16.179c0 0.875-0.696 1.536-1.571 1.536-0.661 0-1.143-0.375-1.143-1.071 0-0.875 0.679-1.571 1.554-1.571 0.661 0 1.161 0.411 1.161 1.107zM27.321 13.518c0 1.071-0.643 1.286-1.571 1.286l-0.571 0.018 0.304-1.911c0.018-0.125 0.107-0.196 0.232-0.196h0.321c0.607 0 1.286 0.036 1.286 0.804zM33.589 16.179c0 0.875-0.696 1.536-1.554 1.536-0.661 0-1.161-0.375-1.161-1.071 0-0.875 0.679-1.571 1.554-1.571 0.661 0 1.161 0.411 1.161 1.107zM9.161 13.125c0-1.5-1.161-2-2.482-2h-2.857c-0.179 0-0.357 0.143-0.375 0.339l-1.161 7.286c-0.018 0.143 0.089 0.286 0.232 0.286h1.357c0.196 0 0.375-0.143 0.393-0.339l0.321-1.964c0.071-0.518 0.946-0.339 1.286-0.339 2.036 0 3.286-1.214 3.286-3.268zM14.679 18.696l0.732-4.661c0.018-0.143-0.089-0.286-0.232-0.286h-1.357c-0.268 0-0.286 0.393-0.304 0.589-0.411-0.607-1.018-0.714-1.696-0.714-1.75 0-3.089 1.536-3.089 3.232 0 1.393 0.875 2.304 2.268 2.304 0.643 0 1.446-0.286 1.893-0.786-0.036 0.107-0.071 0.268-0.071 0.375 0 0.161 0.071 0.286 0.232 0.286h1.232c0.196 0 0.357-0.143 0.393-0.339zM22.661 14c0-0.125-0.107-0.25-0.232-0.25h-1.375c-0.125 0-0.25 0.071-0.321 0.179l-1.893 2.786-0.786-2.679c-0.054-0.161-0.214-0.286-0.393-0.286h-1.339c-0.125 0-0.232 0.125-0.232 0.25 0 0.089 1.393 4.125 1.518 4.5-0.196 0.268-1.464 1.929-1.464 2.143 0 0.125 0.107 0.232 0.232 0.232h1.375c0.125 0 0.25-0.071 0.321-0.179l4.554-6.571c0.036-0.036 0.036-0.071 0.036-0.125zM29.446 13.125c0-1.5-1.161-2-2.482-2h-2.839c-0.196 0-0.375 0.143-0.393 0.339l-1.161 7.286c-0.018 0.143 0.089 0.286 0.232 0.286h1.464c0.143 0 0.25-0.107 0.286-0.232l0.321-2.071c0.071-0.518 0.946-0.339 1.286-0.339 2.036 0 3.286-1.214 3.286-3.268zM34.964 18.696l0.732-4.661c0.018-0.143-0.089-0.286-0.232-0.286h-1.357c-0.268 0-0.286 0.393-0.304 0.589-0.393-0.607-1-0.714-1.696-0.714-1.75 0-3.089 1.536-3.089 3.232 0 1.393 0.875 2.304 2.268 2.304 0.661 0 1.464-0.286 1.893-0.786-0.018 0.107-0.071 0.268-0.071 0.375 0 0.161 0.071 0.286 0.232 0.286h1.232c0.196 0 0.357-0.143 0.393-0.339zM38.857 11.393v-0.018c0-0.143-0.107-0.25-0.232-0.25h-1.321c-0.107 0-0.214 0.089-0.232 0.196l-1.161 7.429-0.018 0.036c0 0.125 0.107 0.25 0.25 0.25h1.179c0.179 0 0.357-0.143 0.375-0.339zM7 13.786c-0.143 0.911-0.75 1.018-1.536 1.018l-0.589 0.018 0.304-1.911c0.018-0.125 0.125-0.196 0.232-0.196h0.339c0.804 0 1.411 0.107 1.25 1.071zM41.143 4.571v22.857c0 1.25-1.036 2.286-2.286 2.286h-36.571c-1.25 0-2.286-1.036-2.286-2.286v-22.857c0-1.25 1.036-2.286 2.286-2.286h36.571c1.25 0 2.286 1.036 2.286 2.286z"></path>
</svg>
