<!-- Generated by IcoMoon.io -->
<svg version="1.1" xmlns="http://www.w3.org/2000/svg" width="31" height="24" viewBox="0 0 31 24">
<title>cc-paypal</title>
<path d="M9.978 12.134c0 0.656-0.522 1.152-1.179 1.152-0.496 0-0.857-0.281-0.857-0.804 0-0.656 0.509-1.179 1.165-1.179 0.496 0 0.871 0.308 0.871 0.83zM20.491 10.138c0 0.804-0.482 0.964-1.179 0.964l-0.429 0.013 0.228-1.433c0.013-0.094 0.080-0.147 0.174-0.147h0.241c0.455 0 0.964 0.027 0.964 0.603zM25.192 12.134c0 0.656-0.522 1.152-1.165 1.152-0.496 0-0.871-0.281-0.871-0.804 0-0.656 0.509-1.179 1.165-1.179 0.496 0 0.871 0.308 0.871 0.83zM6.871 9.844c0-1.125-0.871-1.5-1.862-1.5h-2.143c-0.134 0-0.268 0.107-0.281 0.254l-0.871 5.464c-0.013 0.107 0.067 0.214 0.174 0.214h1.018c0.147 0 0.281-0.107 0.295-0.254l0.241-1.473c0.054-0.388 0.71-0.254 0.964-0.254 1.527 0 2.464-0.911 2.464-2.451zM11.009 14.022l0.549-3.496c0.013-0.107-0.067-0.214-0.174-0.214h-1.018c-0.201 0-0.214 0.295-0.228 0.442-0.308-0.455-0.763-0.536-1.272-0.536-1.312 0-2.317 1.152-2.317 2.424 0 1.045 0.656 1.728 1.701 1.728 0.482 0 1.085-0.214 1.42-0.589-0.027 0.080-0.054 0.201-0.054 0.281 0 0.121 0.054 0.214 0.174 0.214h0.924c0.147 0 0.268-0.107 0.295-0.254zM16.996 10.5c0-0.094-0.080-0.188-0.174-0.188h-1.031c-0.094 0-0.188 0.054-0.241 0.134l-1.42 2.089-0.589-2.009c-0.040-0.121-0.161-0.214-0.295-0.214h-1.004c-0.094 0-0.174 0.094-0.174 0.188 0 0.067 1.045 3.094 1.138 3.375-0.147 0.201-1.098 1.446-1.098 1.607 0 0.094 0.080 0.174 0.174 0.174h1.031c0.094 0 0.188-0.054 0.241-0.134l3.415-4.929c0.027-0.027 0.027-0.054 0.027-0.094zM22.085 9.844c0-1.125-0.871-1.5-1.862-1.5h-2.129c-0.147 0-0.281 0.107-0.295 0.254l-0.871 5.464c-0.013 0.107 0.067 0.214 0.174 0.214h1.098c0.107 0 0.188-0.080 0.214-0.174l0.241-1.554c0.054-0.388 0.71-0.254 0.964-0.254 1.527 0 2.464-0.911 2.464-2.451zM26.223 14.022l0.549-3.496c0.013-0.107-0.067-0.214-0.174-0.214h-1.018c-0.201 0-0.214 0.295-0.228 0.442-0.295-0.455-0.75-0.536-1.272-0.536-1.313 0-2.317 1.152-2.317 2.424 0 1.045 0.656 1.728 1.701 1.728 0.496 0 1.098-0.214 1.42-0.589-0.013 0.080-0.054 0.201-0.054 0.281 0 0.121 0.054 0.214 0.174 0.214h0.924c0.147 0 0.268-0.107 0.295-0.254zM29.143 8.545v-0.013c0-0.107-0.080-0.188-0.174-0.188h-0.991c-0.080 0-0.161 0.067-0.174 0.147l-0.871 5.571-0.013 0.027c0 0.094 0.080 0.188 0.188 0.188h0.884c0.134 0 0.268-0.107 0.281-0.254zM5.25 10.339c-0.107 0.683-0.563 0.763-1.152 0.763l-0.442 0.013 0.228-1.433c0.013-0.094 0.094-0.147 0.174-0.147h0.254c0.603 0 1.058 0.080 0.938 0.804zM30.857 3.429v17.143c0 0.938-0.777 1.714-1.714 1.714h-27.429c-0.938 0-1.714-0.777-1.714-1.714v-17.143c0-0.938 0.777-1.714 1.714-1.714h27.429c0.938 0 1.714 0.777 1.714 1.714z"></path>
</svg>
