<?xml version="1.0" encoding="utf-8"?>
<!-- Generated by IcoMoon.io -->
<!DOCTYPE svg PUBLIC "-//W3C//DTD SVG 1.1//EN" "http://www.w3.org/Graphics/SVG/1.1/DTD/svg11.dtd">
<svg version="1.1" xmlns="http://www.w3.org/2000/svg" xmlns:xlink="http://www.w3.org/1999/xlink" width="41" height="32" viewBox="0 0 41 32">
<path d="M28.518 16.125c0 0.821-0.125 1.446-0.375 1.893-0.214 0.393-0.554 0.625-0.929 0.625-0.268 0-0.518-0.054-0.732-0.161v-4c0.464-0.482 0.875-0.536 1.018-0.536 0.679 0 1.018 0.75 1.018 2.179zM36.339 15.482h-1.964c0.071-1.196 0.393-1.75 1-1.75s0.929 0.571 0.964 1.75zM8.5 17.893c0-1.5-0.911-2.125-2.393-2.661v0c-0.786-0.286-1.214-0.518-1.214-0.875 0-0.304 0.25-0.464 0.679-0.464 0.821 0 1.643 0.304 2.214 0.589l0.321-2c-0.446-0.214-1.375-0.571-2.661-0.571-0.911 0-1.661 0.232-2.196 0.679-0.571 0.464-0.857 1.143-0.857 1.946 0 1.464 0.893 2.107 2.357 2.625 0.929 0.339 1.25 0.571 1.25 0.946 0 0.357-0.304 0.554-0.857 0.554-0.679 0-1.804-0.339-2.536-0.768l-0.321 2.018c0.625 0.357 1.786 0.732 3 0.732 0.964 0 1.75-0.232 2.304-0.661 0.607-0.482 0.911-1.179 0.911-2.089zM13.768 14.054l0.339-1.982h-1.714v-2.411l-2.304 0.375-0.321 2.036-0.821 0.143-0.304 1.839h1.107v3.911c0 1.018 0.268 1.714 0.786 2.143 0.446 0.357 1.089 0.536 1.982 0.536 0.696 0 1.107-0.125 1.411-0.196v-2.107c-0.161 0.036-0.536 0.125-0.786 0.125-0.518 0-0.75-0.286-0.75-0.893v-3.518h1.375zM19.411 14.5v-2.482c-0.179-0.036-0.339-0.054-0.5-0.054-0.75 0-1.357 0.393-1.589 1.107l-0.179-1h-2.339v8.411h2.679v-5.464c0.339-0.411 0.821-0.554 1.464-0.554 0.143 0 0.286 0 0.464 0.036zM20.071 20.482h2.679v-8.411h-2.679v8.411zM31.179 16.036c0-1.429-0.268-2.518-0.804-3.196-0.482-0.625-1.143-0.929-1.982-0.929-0.768 0-1.446 0.321-2.089 1l-0.143-0.839h-2.357v11.518l2.679-0.446v-2.696c0.411 0.125 0.839 0.196 1.214 0.196 0.661 0 1.643-0.179 2.393-1 0.732-0.786 1.089-2 1.089-3.607zM22.821 9.821c0-0.786-0.625-1.411-1.411-1.411s-1.411 0.625-1.411 1.411 0.625 1.429 1.411 1.429 1.411-0.643 1.411-1.429zM38.857 16.196c0-1.339-0.286-2.393-0.857-3.143-0.589-0.75-1.464-1.143-2.571-1.143-2.286 0-3.696 1.679-3.696 4.393 0 1.5 0.375 2.643 1.125 3.357 0.661 0.661 1.625 0.982 2.875 0.982 1.143 0 2.196-0.268 2.857-0.714l-0.286-1.839c-0.661 0.357-1.429 0.554-2.286 0.554-0.518 0-0.875-0.107-1.125-0.339-0.286-0.232-0.446-0.625-0.5-1.179h4.429c0.018-0.125 0.036-0.732 0.036-0.929zM41.143 4.571v22.857c0 1.25-1.036 2.286-2.286 2.286h-36.571c-1.25 0-2.286-1.036-2.286-2.286v-22.857c0-1.25 1.036-2.286 2.286-2.286h36.571c1.25 0 2.286 1.036 2.286 2.286z"></path>
</svg>
