<!-- Generated by IcoMoon.io -->
<svg version="1.1" xmlns="http://www.w3.org/2000/svg" width="31" height="24" viewBox="0 0 31 24">
<title>cc-stripe</title>
<path d="M21.388 12.094c0 0.616-0.094 1.085-0.281 1.42-0.161 0.295-0.415 0.469-0.696 0.469-0.201 0-0.388-0.040-0.549-0.121v-3c0.348-0.362 0.656-0.402 0.763-0.402 0.509 0 0.763 0.563 0.763 1.634zM27.254 11.612h-1.473c0.054-0.897 0.295-1.313 0.75-1.313s0.696 0.429 0.723 1.313zM6.375 13.42c0-1.125-0.683-1.594-1.795-1.996v0c-0.589-0.214-0.911-0.388-0.911-0.656 0-0.228 0.188-0.348 0.509-0.348 0.616 0 1.232 0.228 1.661 0.442l0.241-1.5c-0.335-0.161-1.031-0.429-1.996-0.429-0.683 0-1.246 0.174-1.647 0.509-0.429 0.348-0.643 0.857-0.643 1.46 0 1.098 0.67 1.58 1.768 1.969 0.696 0.254 0.938 0.429 0.938 0.71 0 0.268-0.228 0.415-0.643 0.415-0.509 0-1.353-0.254-1.902-0.576l-0.241 1.513c0.469 0.268 1.339 0.549 2.25 0.549 0.723 0 1.313-0.174 1.728-0.496 0.455-0.362 0.683-0.884 0.683-1.567zM10.326 10.54l0.254-1.487h-1.286v-1.808l-1.728 0.281-0.241 1.527-0.616 0.107-0.228 1.379h0.83v2.933c0 0.763 0.201 1.286 0.589 1.607 0.335 0.268 0.817 0.402 1.487 0.402 0.522 0 0.83-0.094 1.058-0.147v-1.58c-0.121 0.027-0.402 0.094-0.589 0.094-0.388 0-0.563-0.214-0.563-0.67v-2.638h1.031zM14.558 10.875v-1.862c-0.134-0.027-0.254-0.040-0.375-0.040-0.563 0-1.018 0.295-1.192 0.83l-0.134-0.75h-1.754v6.308h2.009v-4.098c0.254-0.308 0.616-0.415 1.098-0.415 0.107 0 0.214 0 0.348 0.027zM15.054 15.362h2.009v-6.308h-2.009v6.308zM23.384 12.027c0-1.071-0.201-1.888-0.603-2.397-0.362-0.469-0.857-0.696-1.487-0.696-0.576 0-1.085 0.241-1.567 0.75l-0.107-0.629h-1.768v8.638l2.009-0.335v-2.022c0.308 0.094 0.629 0.147 0.911 0.147 0.496 0 1.232-0.134 1.795-0.75 0.549-0.589 0.817-1.5 0.817-2.705zM17.116 7.366c0-0.589-0.469-1.058-1.058-1.058s-1.058 0.469-1.058 1.058 0.469 1.071 1.058 1.071 1.058-0.482 1.058-1.071zM29.143 12.147c0-1.004-0.214-1.795-0.643-2.357-0.442-0.563-1.098-0.857-1.929-0.857-1.714 0-2.772 1.259-2.772 3.295 0 1.125 0.281 1.982 0.844 2.518 0.496 0.496 1.219 0.737 2.156 0.737 0.857 0 1.647-0.201 2.143-0.536l-0.214-1.379c-0.496 0.268-1.071 0.415-1.714 0.415-0.388 0-0.656-0.080-0.844-0.254-0.214-0.174-0.335-0.469-0.375-0.884h3.321c0.013-0.094 0.027-0.549 0.027-0.696zM30.857 3.429v17.143c0 0.938-0.777 1.714-1.714 1.714h-27.429c-0.938 0-1.714-0.777-1.714-1.714v-17.143c0-0.938 0.777-1.714 1.714-1.714h27.429c0.938 0 1.714 0.777 1.714 1.714z"></path>
</svg>
