<!-- Generated by IcoMoon.io -->
<svg version="1.1" xmlns="http://www.w3.org/2000/svg" width="31" height="24" viewBox="0 0 31 24">
<title>cc-visa</title>
<path d="M26.451 13.259h-1.848c0 0 0.188-0.496 0.884-2.397-0.013 0.013 0.188-0.496 0.295-0.817l0.161 0.737c0.415 2.049 0.509 2.478 0.509 2.478zM7.112 12.388l-0.777-3.951c-0.107-0.549-0.522-0.723-1.004-0.723h-3.589l-0.027 0.174c2.464 0.629 4.487 1.969 5.397 4.5zM9.509 7.714l-2.17 5.866-0.228-1.192c-0.469-1.246-1.607-2.397-2.893-2.92l1.808 6.83h2.344l3.496-8.585h-2.357zM11.371 16.313h2.223l1.393-8.598h-2.223zM21.656 7.929c-0.442-0.174-1.138-0.362-1.996-0.362-2.196 0-3.737 1.165-3.75 2.839-0.013 1.232 1.098 1.915 1.942 2.33 0.871 0.415 1.152 0.696 1.152 1.071 0 0.576-0.696 0.83-1.326 0.83-0.897 0-1.379-0.107-2.089-0.442l-0.295-0.147-0.308 1.929c0.522 0.241 1.473 0.455 2.478 0.455 2.33 0.013 3.844-1.152 3.871-2.933 0-0.978-0.603-1.714-1.875-2.33-0.777-0.388-1.246-0.67-1.246-1.071 0-0.362 0.402-0.737 1.272-0.737 0.723-0.013 1.259 0.134 1.661 0.321l0.201 0.107zM27.348 7.714h-1.714c-0.536 0-0.938 0.161-1.165 0.723l-3.295 7.875h2.33c0.375-1.058 0.469-1.286 0.469-1.286h2.839c0 0 0.067 0.295 0.268 1.286h2.063zM30.857 3.429v17.143c0 0.938-0.777 1.714-1.714 1.714h-27.429c-0.938 0-1.714-0.777-1.714-1.714v-17.143c0-0.938 0.777-1.714 1.714-1.714h27.429c0.938 0 1.714 0.777 1.714 1.714z"></path>
</svg>
