<?xml version="1.0" encoding="utf-8"?>
<!-- Generated by IcoMoon.io -->
<!DOCTYPE svg PUBLIC "-//W3C//DTD SVG 1.1//EN" "http://www.w3.org/Graphics/SVG/1.1/DTD/svg11.dtd">
<svg version="1.1" xmlns="http://www.w3.org/2000/svg" xmlns:xlink="http://www.w3.org/1999/xlink" width="41" height="32" viewBox="0 0 41 32">
<path d="M35.268 17.679h-2.464c0 0 0.25-0.661 1.179-3.196-0.018 0.018 0.25-0.661 0.393-1.089l0.214 0.982c0.554 2.732 0.679 3.304 0.679 3.304zM9.482 16.518l-1.036-5.268c-0.143-0.732-0.696-0.964-1.339-0.964h-4.786l-0.036 0.232c3.286 0.839 5.982 2.625 7.196 6zM12.679 10.286l-2.893 7.821-0.304-1.589c-0.625-1.661-2.143-3.196-3.857-3.893l2.411 9.107h3.125l4.661-11.446h-3.143zM15.161 21.75h2.964l1.857-11.464h-2.964zM28.875 10.571c-0.589-0.232-1.518-0.482-2.661-0.482-2.929 0-4.982 1.554-5 3.786-0.018 1.643 1.464 2.554 2.589 3.107 1.161 0.554 1.536 0.929 1.536 1.429 0 0.768-0.929 1.107-1.768 1.107-1.196 0-1.839-0.143-2.786-0.589l-0.393-0.196-0.411 2.571c0.696 0.321 1.964 0.607 3.304 0.607 3.107 0.018 5.125-1.536 5.161-3.911 0-1.304-0.804-2.286-2.5-3.107-1.036-0.518-1.661-0.893-1.661-1.429 0-0.482 0.536-0.982 1.696-0.982 0.964-0.018 1.679 0.179 2.214 0.429l0.268 0.143zM36.464 10.286h-2.286c-0.714 0-1.25 0.214-1.554 0.964l-4.393 10.5h3.107c0.5-1.411 0.625-1.714 0.625-1.714h3.786c0 0 0.089 0.393 0.357 1.714h2.75zM41.143 4.571v22.857c0 1.25-1.036 2.286-2.286 2.286h-36.571c-1.25 0-2.286-1.036-2.286-2.286v-22.857c0-1.25 1.036-2.286 2.286-2.286h36.571c1.25 0 2.286 1.036 2.286 2.286z"></path>
</svg>
