<!-- Generated by IcoMoon.io -->
<svg version="1.1" xmlns="http://www.w3.org/2000/svg" width="22" height="24" viewBox="0 0 22 24">
<title>chain-broken</title>
<path d="M5.879 17.879l-3.429 3.429c-0.094 0.080-0.201 0.121-0.308 0.121s-0.214-0.040-0.308-0.121c-0.161-0.174-0.161-0.442 0-0.616l3.429-3.429c0.174-0.161 0.442-0.161 0.616 0 0.161 0.174 0.161 0.442 0 0.616zM8.143 18.429v4.286c0 0.241-0.187 0.429-0.429 0.429s-0.429-0.188-0.429-0.429v-4.286c0-0.241 0.188-0.429 0.429-0.429s0.429 0.188 0.429 0.429zM5.143 15.429c0 0.241-0.188 0.429-0.429 0.429h-4.286c-0.241 0-0.429-0.188-0.429-0.429s0.188-0.429 0.429-0.429h4.286c0.241 0 0.429 0.188 0.429 0.429zM22.071 17.143c0 1.031-0.402 1.996-1.138 2.719l-1.969 1.955c-0.723 0.723-1.688 1.112-2.719 1.112s-2.009-0.402-2.732-1.138l-4.473-4.487c-0.228-0.228-0.402-0.482-0.563-0.75l3.201-0.241 3.656 3.67c0.482 0.482 1.339 0.496 1.821 0.013l1.969-1.955c0.241-0.241 0.375-0.563 0.375-0.897 0-0.348-0.134-0.67-0.375-0.911l-3.67-3.683 0.241-3.201c0.268 0.161 0.522 0.335 0.75 0.563l4.5 4.5c0.723 0.737 1.125 1.701 1.125 2.732zM13.808 7.446l-3.201 0.241-3.656-3.67c-0.241-0.241-0.563-0.375-0.911-0.375s-0.67 0.134-0.911 0.362l-1.969 1.955c-0.241 0.241-0.375 0.563-0.375 0.897 0 0.348 0.134 0.67 0.375 0.911l3.67 3.67-0.241 3.214c-0.268-0.161-0.522-0.335-0.75-0.563l-4.5-4.5c-0.723-0.737-1.125-1.701-1.125-2.732s0.402-1.996 1.138-2.719l1.969-1.955c0.723-0.723 1.688-1.112 2.719-1.112s2.009 0.402 2.732 1.138l4.473 4.487c0.228 0.228 0.402 0.482 0.563 0.75zM22.286 8.571c0 0.241-0.188 0.429-0.429 0.429h-4.286c-0.241 0-0.429-0.188-0.429-0.429s0.188-0.429 0.429-0.429h4.286c0.241 0 0.429 0.188 0.429 0.429zM15 1.286v4.286c0 0.241-0.188 0.429-0.429 0.429s-0.429-0.188-0.429-0.429v-4.286c0-0.241 0.188-0.429 0.429-0.429s0.429 0.188 0.429 0.429zM20.451 3.308l-3.429 3.429c-0.094 0.080-0.201 0.121-0.308 0.121s-0.214-0.040-0.308-0.121c-0.161-0.174-0.161-0.442 0-0.616l3.429-3.429c0.174-0.161 0.442-0.161 0.616 0 0.161 0.174 0.161 0.442 0 0.616z"></path>
</svg>
