<?xml version="1.0" encoding="utf-8"?>
<!-- Generated by IcoMoon.io -->
<!DOCTYPE svg PUBLIC "-//W3C//DTD SVG 1.1//EN" "http://www.w3.org/Graphics/SVG/1.1/DTD/svg11.dtd">
<svg version="1.1" xmlns="http://www.w3.org/2000/svg" xmlns:xlink="http://www.w3.org/1999/xlink" width="30" height="32" viewBox="0 0 30 32">
<path d="M25.143 17.75v5.679c0 2.839-2.304 5.143-5.143 5.143h-14.857c-2.839 0-5.143-2.304-5.143-5.143v-14.857c0-2.839 2.304-5.143 5.143-5.143h14.857c0.714 0 1.429 0.143 2.089 0.446 0.161 0.071 0.286 0.232 0.321 0.411 0.036 0.196-0.018 0.375-0.161 0.518l-0.875 0.875c-0.107 0.107-0.268 0.179-0.411 0.179-0.054 0-0.107-0.018-0.161-0.036-0.268-0.071-0.536-0.107-0.804-0.107h-14.857c-1.571 0-2.857 1.286-2.857 2.857v14.857c0 1.571 1.286 2.857 2.857 2.857h14.857c1.571 0 2.857-1.286 2.857-2.857v-4.536c0-0.143 0.054-0.286 0.161-0.393l1.143-1.143c0.125-0.125 0.268-0.179 0.411-0.179 0.071 0 0.143 0.018 0.214 0.054 0.214 0.089 0.357 0.286 0.357 0.518zM29.268 9.018l-14.536 14.536c-0.571 0.571-1.464 0.571-2.036 0l-7.679-7.679c-0.571-0.571-0.571-1.464 0-2.036l1.964-1.964c0.571-0.571 1.464-0.571 2.036 0l4.696 4.696 11.554-11.554c0.571-0.571 1.464-0.571 2.036 0l1.964 1.964c0.571 0.571 0.571 1.464 0 2.036z"></path>
</svg>
