<!-- Generated by IcoMoon.io -->
<svg version="1.1" xmlns="http://www.w3.org/2000/svg" width="22" height="24" viewBox="0 0 22 24">
<title>check-square-o</title>
<path d="M18.857 13.313v4.259c0 2.129-1.728 3.857-3.857 3.857h-11.143c-2.129 0-3.857-1.728-3.857-3.857v-11.143c0-2.129 1.728-3.857 3.857-3.857h11.143c0.536 0 1.071 0.107 1.567 0.335 0.121 0.054 0.214 0.174 0.241 0.308 0.027 0.147-0.013 0.281-0.121 0.388l-0.656 0.656c-0.080 0.080-0.201 0.134-0.308 0.134-0.040 0-0.080-0.013-0.121-0.027-0.201-0.054-0.402-0.080-0.603-0.080h-11.143c-1.179 0-2.143 0.964-2.143 2.143v11.143c0 1.179 0.964 2.143 2.143 2.143h11.143c1.179 0 2.143-0.964 2.143-2.143v-3.402c0-0.107 0.040-0.214 0.121-0.295l0.857-0.857c0.094-0.094 0.201-0.134 0.308-0.134 0.054 0 0.107 0.013 0.161 0.040 0.161 0.067 0.268 0.214 0.268 0.388zM21.951 6.763l-10.902 10.902c-0.429 0.429-1.098 0.429-1.527 0l-5.759-5.759c-0.429-0.429-0.429-1.098 0-1.527l1.473-1.473c0.429-0.429 1.098-0.429 1.527 0l3.522 3.522 8.665-8.665c0.429-0.429 1.098-0.429 1.527 0l1.473 1.473c0.429 0.429 0.429 1.098 0 1.527z"></path>
</svg>
