<!-- Generated by IcoMoon.io -->
<svg version="1.1" xmlns="http://www.w3.org/2000/svg" width="21" height="24" viewBox="0 0 21 24">
<title>chevron-circle-right</title>
<path d="M9.603 18.683l6.080-6.080c0.335-0.335 0.335-0.871 0-1.205l-6.080-6.080c-0.335-0.335-0.871-0.335-1.205 0l-1.366 1.366c-0.335 0.335-0.335 0.871 0 1.205l4.112 4.112-4.112 4.112c-0.335 0.335-0.335 0.871 0 1.205l1.366 1.366c0.335 0.335 0.871 0.335 1.205 0zM20.571 12c0 5.679-4.607 10.286-10.286 10.286s-10.286-4.607-10.286-10.286 4.607-10.286 10.286-10.286 10.286 4.607 10.286 10.286z"></path>
</svg>
