<!-- Generated by IcoMoon.io -->
<svg version="1.1" xmlns="http://www.w3.org/2000/svg" width="24" height="24" viewBox="0 0 24 24">
<title>chrome</title>
<path d="M6.053 10.467l-3.434-5.948c2.199-2.753 5.584-4.517 9.381-4.517 4.393 0 8.234 2.361 10.325 5.883h-9.791c-0.176-0.015-0.354-0.023-0.533-0.023-2.856 0-5.264 1.96-5.947 4.606zM16.296 7.618h6.878c0.533 1.358 0.826 2.836 0.826 4.383 0 6.582-5.299 11.925-11.864 11.998l4.908-8.5c0.691-0.993 1.097-2.199 1.097-3.498 0-1.715-0.707-3.268-1.844-4.383zM7.641 12.001c0-2.404 1.956-4.359 4.359-4.359s4.359 1.956 4.359 4.359c0 2.404-1.956 4.359-4.359 4.359s-4.359-1.956-4.359-4.359zM13.645 17.917l-3.435 5.95c-5.778-0.864-10.209-5.848-10.209-11.867 0-2.138 0.56-4.145 1.54-5.883l4.899 8.486c0.981 2.089 3.105 3.538 5.561 3.538 0.57 0 1.121-0.078 1.645-0.224z"></path>
</svg>
