<!-- Generated by IcoMoon.io -->
<svg version="1.1" xmlns="http://www.w3.org/2000/svg" width="24" height="24" viewBox="0 0 24 24">
<title>cloud-download</title>
<path d="M20.883 7.941c-0.076-3.016-2.542-5.439-5.575-5.439-1.776 0-3.358 0.832-4.379 2.127-0.573-0.741-1.469-1.218-2.478-1.218-1.73 0-3.132 1.403-3.132 3.134 0 0.151 0.011 0.299 0.032 0.444-0.263-0.047-0.534-0.074-0.81-0.074-2.508-0-4.541 2.034-4.541 4.543s2.033 4.543 4.541 4.543h2.151l5.309 5.496 5.309-5.496 2.613-0c2.253-0.004 4.078-1.833 4.078-4.089 0-1.924-1.328-3.537-3.117-3.972zM12 19.002l-4.5-4.5h3v-4.5h3v4.5h3l-4.5 4.5z"></path>
</svg>
