<?xml version="1.0" encoding="utf-8"?>
<!-- Generated by IcoMoon.io -->
<!DOCTYPE svg PUBLIC "-//W3C//DTD SVG 1.1//EN" "http://www.w3.org/Graphics/SVG/1.1/DTD/svg11.dtd">
<svg version="1.1" xmlns="http://www.w3.org/2000/svg" xmlns:xlink="http://www.w3.org/1999/xlink" width="27" height="32" viewBox="0 0 27 32">
<path d="M18.286 16c0-2.518-2.054-4.571-4.571-4.571s-4.571 2.054-4.571 4.571 2.054 4.571 4.571 4.571 4.571-2.054 4.571-4.571zM27.429 14.054v3.964c0 0.268-0.214 0.589-0.5 0.643l-3.304 0.5c-0.196 0.571-0.411 1.107-0.696 1.625 0.607 0.875 1.25 1.661 1.911 2.464 0.107 0.125 0.179 0.286 0.179 0.446s-0.054 0.286-0.161 0.411c-0.429 0.571-2.839 3.196-3.446 3.196-0.161 0-0.321-0.071-0.464-0.161l-2.464-1.929c-0.518 0.268-1.071 0.5-1.625 0.679-0.125 1.089-0.232 2.25-0.518 3.321-0.071 0.286-0.321 0.5-0.643 0.5h-3.964c-0.321 0-0.607-0.232-0.643-0.536l-0.5-3.286c-0.554-0.179-1.089-0.393-1.607-0.661l-2.518 1.911c-0.125 0.107-0.286 0.161-0.446 0.161s-0.321-0.071-0.446-0.196c-0.946-0.857-2.196-1.964-2.946-3-0.089-0.125-0.125-0.268-0.125-0.411 0-0.161 0.054-0.286 0.143-0.411 0.607-0.821 1.268-1.607 1.875-2.446-0.304-0.571-0.554-1.161-0.732-1.768l-3.268-0.482c-0.304-0.054-0.518-0.339-0.518-0.643v-3.964c0-0.268 0.214-0.589 0.482-0.643l3.321-0.5c0.179-0.571 0.411-1.107 0.696-1.643-0.607-0.857-1.25-1.661-1.911-2.464-0.107-0.125-0.179-0.268-0.179-0.429s0.071-0.286 0.161-0.411c0.429-0.589 2.839-3.196 3.446-3.196 0.161 0 0.321 0.071 0.464 0.179l2.464 1.911c0.518-0.268 1.071-0.5 1.625-0.679 0.125-1.089 0.232-2.25 0.518-3.321 0.071-0.286 0.321-0.5 0.643-0.5h3.964c0.321 0 0.607 0.232 0.643 0.536l0.5 3.286c0.554 0.179 1.089 0.393 1.607 0.661l2.536-1.911c0.107-0.107 0.268-0.161 0.429-0.161s0.321 0.071 0.446 0.179c0.946 0.875 2.196 1.982 2.946 3.036 0.089 0.107 0.125 0.25 0.125 0.393 0 0.161-0.054 0.286-0.143 0.411-0.607 0.821-1.268 1.607-1.875 2.446 0.304 0.571 0.554 1.161 0.732 1.75l3.268 0.5c0.304 0.054 0.518 0.339 0.518 0.643z"></path>
</svg>
