<!-- Generated by IcoMoon.io -->
<svg version="1.1" xmlns="http://www.w3.org/2000/svg" width="21" height="24" viewBox="0 0 21 24">
<title>cog</title>
<path d="M13.714 12c0-1.888-1.54-3.429-3.429-3.429s-3.429 1.54-3.429 3.429 1.54 3.429 3.429 3.429 3.429-1.54 3.429-3.429zM20.571 10.54v2.973c0 0.201-0.161 0.442-0.375 0.482l-2.478 0.375c-0.147 0.429-0.308 0.83-0.522 1.219 0.455 0.656 0.938 1.246 1.433 1.848 0.080 0.094 0.134 0.214 0.134 0.335s-0.040 0.214-0.121 0.308c-0.321 0.429-2.129 2.397-2.585 2.397-0.121 0-0.241-0.054-0.348-0.121l-1.848-1.446c-0.388 0.201-0.804 0.375-1.219 0.509-0.094 0.817-0.174 1.688-0.388 2.491-0.054 0.214-0.241 0.375-0.482 0.375h-2.973c-0.241 0-0.455-0.174-0.482-0.402l-0.375-2.464c-0.415-0.134-0.817-0.295-1.205-0.496l-1.888 1.433c-0.094 0.080-0.214 0.121-0.335 0.121s-0.241-0.054-0.335-0.147c-0.71-0.643-1.647-1.473-2.21-2.25-0.067-0.094-0.094-0.201-0.094-0.308 0-0.121 0.040-0.214 0.107-0.308 0.455-0.616 0.951-1.205 1.406-1.835-0.228-0.429-0.415-0.871-0.549-1.326l-2.451-0.362c-0.228-0.040-0.388-0.254-0.388-0.482v-2.973c0-0.201 0.161-0.442 0.362-0.482l2.491-0.375c0.134-0.429 0.308-0.83 0.522-1.232-0.455-0.643-0.938-1.246-1.433-1.848-0.080-0.094-0.134-0.201-0.134-0.321s0.054-0.214 0.121-0.308c0.321-0.442 2.129-2.397 2.585-2.397 0.121 0 0.241 0.054 0.348 0.134l1.848 1.433c0.388-0.201 0.804-0.375 1.219-0.509 0.094-0.817 0.174-1.688 0.388-2.491 0.054-0.214 0.241-0.375 0.482-0.375h2.973c0.241 0 0.455 0.174 0.482 0.402l0.375 2.464c0.415 0.134 0.817 0.295 1.205 0.496l1.902-1.433c0.080-0.080 0.201-0.121 0.321-0.121s0.241 0.054 0.335 0.134c0.71 0.656 1.647 1.487 2.21 2.277 0.067 0.080 0.094 0.188 0.094 0.295 0 0.121-0.040 0.214-0.107 0.308-0.455 0.616-0.951 1.205-1.406 1.835 0.228 0.429 0.415 0.871 0.549 1.313l2.451 0.375c0.228 0.040 0.388 0.254 0.388 0.482z"></path>
</svg>
