<?xml version="1.0" encoding="utf-8"?>
<!-- Generated by IcoMoon.io -->
<!DOCTYPE svg PUBLIC "-//W3C//DTD SVG 1.1//EN" "http://www.w3.org/Graphics/SVG/1.1/DTD/svg11.dtd">
<svg version="1.1" xmlns="http://www.w3.org/2000/svg" xmlns:xlink="http://www.w3.org/1999/xlink" width="34" height="32" viewBox="0 0 34 32">
<path d="M16 15.991c0-2.518-2.054-4.571-4.571-4.571s-4.571 2.054-4.571 4.571 2.054 4.571 4.571 4.571 4.571-2.054 4.571-4.571zM29.714 25.134c0-1.25-1.036-2.286-2.286-2.286s-2.286 1.036-2.286 2.286c0 1.268 1.036 2.286 2.286 2.286 1.268 0 2.286-1.036 2.286-2.286zM29.714 6.848c0-1.25-1.036-2.286-2.286-2.286s-2.286 1.036-2.286 2.286c0 1.268 1.036 2.286 2.286 2.286 1.268 0 2.286-1.036 2.286-2.286zM22.857 14.366v3.304c0 0.232-0.179 0.5-0.411 0.536l-2.768 0.429c-0.143 0.464-0.339 0.911-0.571 1.357 0.5 0.714 1.036 1.375 1.607 2.054 0.071 0.107 0.125 0.214 0.125 0.357 0 0.125-0.036 0.25-0.125 0.339-0.357 0.482-2.357 2.661-2.875 2.661-0.143 0-0.268-0.054-0.375-0.125l-2.054-1.607c-0.446 0.232-0.893 0.411-1.375 0.554-0.089 0.911-0.179 1.893-0.411 2.768-0.071 0.25-0.286 0.429-0.536 0.429h-3.321c-0.25 0-0.5-0.196-0.536-0.446l-0.411-2.732c-0.464-0.143-0.911-0.339-1.339-0.554l-2.107 1.589c-0.089 0.089-0.232 0.125-0.357 0.125-0.143 0-0.268-0.054-0.375-0.143-0.464-0.429-2.571-2.339-2.571-2.857 0-0.125 0.054-0.232 0.125-0.339 0.518-0.679 1.054-1.339 1.571-2.036-0.25-0.482-0.464-0.964-0.625-1.464l-2.714-0.429c-0.25-0.036-0.429-0.268-0.429-0.518v-3.304c0-0.232 0.179-0.5 0.411-0.536l2.768-0.429c0.143-0.464 0.339-0.911 0.571-1.357-0.5-0.714-1.036-1.375-1.607-2.054-0.071-0.107-0.125-0.232-0.125-0.357s0.036-0.25 0.125-0.357c0.357-0.482 2.357-2.643 2.875-2.643 0.143 0 0.268 0.054 0.375 0.125l2.054 1.607c0.446-0.232 0.893-0.411 1.375-0.571 0.089-0.893 0.179-1.875 0.411-2.75 0.071-0.25 0.286-0.429 0.536-0.429h3.321c0.25 0 0.5 0.196 0.536 0.446l0.411 2.732c0.464 0.143 0.911 0.339 1.339 0.554l2.107-1.589c0.107-0.089 0.232-0.125 0.357-0.125 0.143 0 0.268 0.054 0.375 0.143 0.464 0.429 2.571 2.357 2.571 2.857 0 0.125-0.054 0.232-0.125 0.339-0.518 0.696-1.054 1.339-1.554 2.036 0.232 0.482 0.446 0.964 0.607 1.464l2.714 0.411c0.25 0.054 0.429 0.286 0.429 0.536zM34.286 23.884v2.5c0 0.268-2.304 0.518-2.661 0.554-0.143 0.339-0.321 0.643-0.536 0.929 0.161 0.357 0.911 2.143 0.911 2.464 0 0.054-0.018 0.089-0.071 0.125-0.214 0.125-2.125 1.268-2.214 1.268-0.232 0-1.571-1.786-1.75-2.054-0.179 0.018-0.357 0.036-0.536 0.036s-0.357-0.018-0.536-0.036c-0.179 0.268-1.518 2.054-1.75 2.054-0.089 0-2-1.143-2.214-1.268-0.054-0.036-0.071-0.089-0.071-0.125 0-0.304 0.75-2.107 0.911-2.464-0.214-0.286-0.393-0.589-0.536-0.929-0.357-0.036-2.661-0.286-2.661-0.554v-2.5c0-0.268 2.304-0.518 2.661-0.554 0.143-0.321 0.321-0.643 0.536-0.929-0.161-0.357-0.911-2.161-0.911-2.464 0-0.036 0.018-0.089 0.071-0.125 0.214-0.107 2.125-1.25 2.214-1.25 0.232 0 1.571 1.768 1.75 2.036 0.179-0.018 0.357-0.036 0.536-0.036s0.357 0.018 0.536 0.036c0.5-0.696 1.036-1.393 1.643-2l0.107-0.036c0.089 0 2 1.125 2.214 1.25 0.054 0.036 0.071 0.089 0.071 0.125 0 0.321-0.75 2.107-0.911 2.464 0.214 0.286 0.393 0.607 0.536 0.929 0.357 0.036 2.661 0.286 2.661 0.554zM34.286 5.598v2.5c0 0.268-2.304 0.518-2.661 0.554-0.143 0.339-0.321 0.643-0.536 0.929 0.161 0.357 0.911 2.143 0.911 2.464 0 0.054-0.018 0.089-0.071 0.125-0.214 0.125-2.125 1.268-2.214 1.268-0.232 0-1.571-1.786-1.75-2.054-0.179 0.018-0.357 0.036-0.536 0.036s-0.357-0.018-0.536-0.036c-0.179 0.268-1.518 2.054-1.75 2.054-0.089 0-2-1.143-2.214-1.268-0.054-0.036-0.071-0.089-0.071-0.125 0-0.304 0.75-2.107 0.911-2.464-0.214-0.286-0.393-0.589-0.536-0.929-0.357-0.036-2.661-0.286-2.661-0.554v-2.5c0-0.268 2.304-0.518 2.661-0.554 0.143-0.321 0.321-0.643 0.536-0.929-0.161-0.357-0.911-2.161-0.911-2.464 0-0.036 0.018-0.089 0.071-0.125 0.214-0.107 2.125-1.25 2.214-1.25 0.232 0 1.571 1.768 1.75 2.036 0.179-0.018 0.357-0.036 0.536-0.036s0.357 0.018 0.536 0.036c0.5-0.696 1.036-1.393 1.643-2l0.107-0.036c0.089 0 2 1.125 2.214 1.25 0.054 0.036 0.071 0.089 0.071 0.125 0 0.321-0.75 2.107-0.911 2.464 0.214 0.286 0.393 0.607 0.536 0.929 0.357 0.036 2.661 0.286 2.661 0.554z"></path>
</svg>
