<!-- Generated by IcoMoon.io -->
<svg version="1.1" xmlns="http://www.w3.org/2000/svg" width="26" height="24" viewBox="0 0 26 24">
<title>cogs</title>
<path d="M12 11.993c0-1.888-1.54-3.429-3.429-3.429s-3.429 1.54-3.429 3.429 1.54 3.429 3.429 3.429 3.429-1.54 3.429-3.429zM22.286 18.85c0-0.938-0.777-1.714-1.714-1.714s-1.714 0.777-1.714 1.714c0 0.951 0.777 1.714 1.714 1.714 0.951 0 1.714-0.777 1.714-1.714zM22.286 5.136c0-0.938-0.777-1.714-1.714-1.714s-1.714 0.777-1.714 1.714c0 0.951 0.777 1.714 1.714 1.714 0.951 0 1.714-0.777 1.714-1.714zM17.143 10.775v2.478c0 0.174-0.134 0.375-0.308 0.402l-2.076 0.321c-0.107 0.348-0.254 0.683-0.429 1.018 0.375 0.536 0.777 1.031 1.205 1.54 0.054 0.080 0.094 0.161 0.094 0.268 0 0.094-0.027 0.188-0.094 0.254-0.268 0.362-1.768 1.996-2.156 1.996-0.107 0-0.201-0.040-0.281-0.094l-1.54-1.205c-0.335 0.174-0.67 0.308-1.031 0.415-0.067 0.683-0.134 1.42-0.308 2.076-0.054 0.188-0.214 0.321-0.402 0.321h-2.491c-0.188 0-0.375-0.147-0.402-0.335l-0.308-2.049c-0.348-0.107-0.683-0.254-1.004-0.415l-1.58 1.192c-0.067 0.067-0.174 0.094-0.268 0.094-0.107 0-0.201-0.040-0.281-0.107-0.348-0.321-1.929-1.754-1.929-2.143 0-0.094 0.040-0.174 0.094-0.254 0.388-0.509 0.79-1.004 1.179-1.527-0.188-0.362-0.348-0.723-0.469-1.098l-2.036-0.321c-0.188-0.027-0.321-0.201-0.321-0.388v-2.478c0-0.174 0.134-0.375 0.308-0.402l2.076-0.321c0.107-0.348 0.254-0.683 0.429-1.018-0.375-0.536-0.777-1.031-1.205-1.54-0.054-0.080-0.094-0.174-0.094-0.268s0.027-0.188 0.094-0.268c0.268-0.362 1.768-1.982 2.156-1.982 0.107 0 0.201 0.040 0.281 0.094l1.54 1.205c0.335-0.174 0.67-0.308 1.031-0.429 0.067-0.67 0.134-1.406 0.308-2.063 0.054-0.188 0.214-0.321 0.402-0.321h2.491c0.188 0 0.375 0.147 0.402 0.335l0.308 2.049c0.348 0.107 0.683 0.254 1.004 0.415l1.58-1.192c0.080-0.067 0.174-0.094 0.268-0.094 0.107 0 0.201 0.040 0.281 0.107 0.348 0.321 1.929 1.768 1.929 2.143 0 0.094-0.040 0.174-0.094 0.254-0.388 0.522-0.79 1.004-1.165 1.527 0.174 0.362 0.335 0.723 0.455 1.098l2.036 0.308c0.188 0.040 0.321 0.214 0.321 0.402zM25.714 17.913v1.875c0 0.201-1.728 0.388-1.996 0.415-0.107 0.254-0.241 0.482-0.402 0.696 0.121 0.268 0.683 1.607 0.683 1.848 0 0.040-0.013 0.067-0.054 0.094-0.161 0.094-1.594 0.951-1.661 0.951-0.174 0-1.179-1.339-1.313-1.54-0.134 0.013-0.268 0.027-0.402 0.027s-0.268-0.013-0.402-0.027c-0.134 0.201-1.138 1.54-1.313 1.54-0.067 0-1.5-0.857-1.661-0.951-0.040-0.027-0.054-0.067-0.054-0.094 0-0.228 0.563-1.58 0.683-1.848-0.161-0.214-0.295-0.442-0.402-0.696-0.268-0.027-1.996-0.214-1.996-0.415v-1.875c0-0.201 1.728-0.388 1.996-0.415 0.107-0.241 0.241-0.482 0.402-0.696-0.121-0.268-0.683-1.621-0.683-1.848 0-0.027 0.013-0.067 0.054-0.094 0.161-0.080 1.594-0.938 1.661-0.938 0.174 0 1.179 1.326 1.313 1.527 0.134-0.013 0.268-0.027 0.402-0.027s0.268 0.013 0.402 0.027c0.375-0.522 0.777-1.045 1.232-1.5l0.080-0.027c0.067 0 1.5 0.844 1.661 0.938 0.040 0.027 0.054 0.067 0.054 0.094 0 0.241-0.563 1.58-0.683 1.848 0.161 0.214 0.295 0.455 0.402 0.696 0.268 0.027 1.996 0.214 1.996 0.415zM25.714 4.199v1.875c0 0.201-1.728 0.388-1.996 0.415-0.107 0.254-0.241 0.482-0.402 0.696 0.121 0.268 0.683 1.607 0.683 1.848 0 0.040-0.013 0.067-0.054 0.094-0.161 0.094-1.594 0.951-1.661 0.951-0.174 0-1.179-1.339-1.313-1.54-0.134 0.013-0.268 0.027-0.402 0.027s-0.268-0.013-0.402-0.027c-0.134 0.201-1.138 1.54-1.313 1.54-0.067 0-1.5-0.857-1.661-0.951-0.040-0.027-0.054-0.067-0.054-0.094 0-0.228 0.563-1.58 0.683-1.848-0.161-0.214-0.295-0.442-0.402-0.696-0.268-0.027-1.996-0.214-1.996-0.415v-1.875c0-0.201 1.728-0.388 1.996-0.415 0.107-0.241 0.241-0.482 0.402-0.696-0.121-0.268-0.683-1.621-0.683-1.848 0-0.027 0.013-0.067 0.054-0.094 0.161-0.080 1.594-0.938 1.661-0.938 0.174 0 1.179 1.326 1.313 1.527 0.134-0.013 0.268-0.027 0.402-0.027s0.268 0.013 0.402 0.027c0.375-0.522 0.777-1.045 1.232-1.5l0.080-0.027c0.067 0 1.5 0.844 1.661 0.938 0.040 0.027 0.054 0.067 0.054 0.094 0 0.241-0.563 1.58-0.683 1.848 0.161 0.214 0.295 0.455 0.402 0.696 0.268 0.027 1.996 0.214 1.996 0.415z"></path>
</svg>
