<!-- Generated by IcoMoon.io -->
<svg version="1.1" xmlns="http://www.w3.org/2000/svg" width="24" height="24" viewBox="0 0 24 24">
<title>coin-dollar</title>
<path d="M12 0.75c-6.213 0-11.25 5.037-11.25 11.25s5.037 11.25 11.25 11.25c6.213 0 11.25-5.037 11.25-11.25s-5.037-11.25-11.25-11.25zM12 21c-4.971 0-9-4.029-9-9s4.029-9 9-9c4.971 0 9 4.029 9 9s-4.029 9-9 9zM12.75 11.25v-3h3v-1.5h-3v-1.5h-1.5v1.5h-3v6h3v3h-3v1.5h3v1.5h1.5v-1.5h3l-0-6h-3zM11.25 11.25h-1.5v-3h1.5v3zM14.25 15.75h-1.5v-3h1.5v3z"></path>
</svg>
