<!-- Generated by IcoMoon.io -->
<svg version="1.1" xmlns="http://www.w3.org/2000/svg" width="24" height="24" viewBox="0 0 24 24">
<title>coin-euro</title>
<path d="M12 0.75c-6.213 0-11.25 5.037-11.25 11.25s5.037 11.25 11.25 11.25c6.213 0 11.25-5.037 11.25-11.25s-5.037-11.25-11.25-11.25zM12 21c-4.971 0-9-4.029-9-9s4.029-9 9-9c4.971 0 9 4.029 9 9s-4.029 9-9 9z"></path>
<path d="M16.472 14.352c-0.358-0.208-0.817-0.087-1.025 0.271-0.404 0.695-1.15 1.127-1.947 1.127h-3c-0.978 0-1.811-0.627-2.121-1.5h3.621c0.414 0 0.75-0.336 0.75-0.75s-0.336-0.75-0.75-0.75h-3.75v-1.5h3.75c0.414 0 0.75-0.336 0.75-0.75s-0.336-0.75-0.75-0.75h-3.621c0.31-0.873 1.143-1.5 2.121-1.5h3c0.797 0 1.543 0.432 1.947 1.127 0.208 0.358 0.667 0.479 1.025 0.271s0.479-0.667 0.271-1.025c-0.672-1.155-1.915-1.873-3.244-1.873h-3c-1.811 0-3.326 1.29-3.675 3h-0.825c-0.414 0-0.75 0.336-0.75 0.75s0.336 0.75 0.75 0.75h0.75v1.5h-0.75c-0.414 0-0.75 0.336-0.75 0.75s0.336 0.75 0.75 0.75h0.825c0.348 1.71 1.864 3 3.675 3h3c1.329 0 2.572-0.718 3.244-1.873 0.208-0.358 0.087-0.817-0.271-1.025z"></path>
</svg>
