<!-- Generated by IcoMoon.io -->
<svg version="1.1" xmlns="http://www.w3.org/2000/svg" width="24" height="24" viewBox="0 0 24 24">
<title>comments</title>
<path d="M18.857 9.415c0 3.79-4.219 6.857-9.429 6.857-0.817 0-1.607-0.080-2.357-0.214-1.112 0.79-2.371 1.366-3.723 1.714-0.362 0.094-0.75 0.161-1.152 0.214h-0.040c-0.201 0-0.388-0.161-0.429-0.388v0c-0.054-0.254 0.121-0.415 0.268-0.589 0.522-0.589 1.112-1.112 1.567-2.223-2.17-1.259-3.563-3.201-3.563-5.371 0-3.79 4.219-6.857 9.429-6.857s9.429 3.067 9.429 6.857zM24 12.844c0 2.183-1.393 4.112-3.563 5.371 0.455 1.112 1.045 1.634 1.567 2.223 0.147 0.174 0.321 0.335 0.268 0.589v0c-0.054 0.241-0.254 0.415-0.469 0.388-0.402-0.054-0.79-0.121-1.152-0.214-1.353-0.348-2.612-0.924-3.723-1.714-0.75 0.134-1.54 0.214-2.357 0.214-2.424 0-4.647-0.67-6.321-1.768 0.388 0.027 0.79 0.054 1.179 0.054 2.879 0 5.598-0.83 7.674-2.33 2.237-1.634 3.469-3.844 3.469-6.241 0-0.696-0.107-1.379-0.308-2.036 2.263 1.246 3.737 3.228 3.737 5.464z"></path>
</svg>
