<?xml version="1.0" encoding="utf-8"?>
<!-- Generated by IcoMoon.io -->
<!DOCTYPE svg PUBLIC "-//W3C//DTD SVG 1.1//EN" "http://www.w3.org/Graphics/SVG/1.1/DTD/svg11.dtd">
<svg version="1.1" xmlns="http://www.w3.org/2000/svg" xmlns:xlink="http://www.w3.org/1999/xlink" width="32" height="32" viewBox="0 0 32 32">
<path d="M32 13.696c0 6.321-7.161 11.429-16 11.429-0.875 0-1.75-0.054-2.589-0.143-2.339 2.071-5.125 3.536-8.214 4.321-0.643 0.179-1.339 0.304-2.036 0.393-0.393 0.036-0.768-0.25-0.857-0.679v-0.018c-0.089-0.446 0.214-0.714 0.482-1.036 1.125-1.268 2.411-2.339 3.25-5.321-3.679-2.089-6.036-5.321-6.036-8.946 0-6.304 7.161-11.429 16-11.429s16 5.107 16 11.429z"></path>
</svg>
