<?xml version="1.0" encoding="utf-8"?>
<!-- Generated by IcoMoon.io -->
<!DOCTYPE svg PUBLIC "-//W3C//DTD SVG 1.1//EN" "http://www.w3.org/Graphics/SVG/1.1/DTD/svg11.dtd">
<svg version="1.1" xmlns="http://www.w3.org/2000/svg" xmlns:xlink="http://www.w3.org/1999/xlink" width="32" height="32" viewBox="0 0 32 32">
<path d="M25.143 12.554c0 5.054-5.625 9.143-12.571 9.143-1.089 0-2.143-0.107-3.143-0.286-1.482 1.054-3.161 1.821-4.964 2.286-0.482 0.125-1 0.214-1.536 0.286h-0.054c-0.268 0-0.518-0.214-0.571-0.518v0c-0.071-0.339 0.161-0.554 0.357-0.786 0.696-0.786 1.482-1.482 2.089-2.964-2.893-1.679-4.75-4.268-4.75-7.161 0-5.054 5.625-9.143 12.571-9.143s12.571 4.089 12.571 9.143zM32 17.125c0 2.911-1.857 5.482-4.75 7.161 0.607 1.482 1.393 2.179 2.089 2.964 0.196 0.232 0.429 0.446 0.357 0.786v0c-0.071 0.321-0.339 0.554-0.625 0.518-0.536-0.071-1.054-0.161-1.536-0.286-1.804-0.464-3.482-1.232-4.964-2.286-1 0.179-2.054 0.286-3.143 0.286-3.232 0-6.196-0.893-8.429-2.357 0.518 0.036 1.054 0.071 1.571 0.071 3.839 0 7.464-1.107 10.232-3.107 2.982-2.179 4.625-5.125 4.625-8.321 0-0.929-0.143-1.839-0.411-2.714 3.018 1.661 4.982 4.304 4.982 7.286z"></path>
</svg>
