<!-- Generated by IcoMoon.io -->
<svg version="1.1" xmlns="http://www.w3.org/2000/svg" width="30" height="24" viewBox="0 0 30 24">
<title>connection</title>
<path d="M15 13.5c2.481 0 4.731 1.009 6.361 2.639l-2.12 2.12c-1.086-1.086-2.586-1.759-4.241-1.759s-3.154 0.673-4.241 1.759l-2.12-2.12c1.63-1.63 3.88-2.639 6.361-2.639zM4.393 11.893c2.833-2.833 6.6-4.393 10.607-4.393s7.773 1.56 10.607 4.393l-2.121 2.121c-2.267-2.267-5.28-3.515-8.485-3.515s-6.219 1.248-8.485 3.515l-2.121-2.121zM23.175 3.151c2.501 1.058 4.746 2.572 6.675 4.5v0l-2.121 2.121c-3.4-3.4-7.92-5.272-12.728-5.272s-9.328 1.872-12.728 5.272l-2.121-2.121c1.928-1.928 4.174-3.442 6.675-4.5 2.59-1.095 5.34-1.651 8.175-1.651s5.585 0.555 8.175 1.651zM13.5 21c0-0.828 0.672-1.5 1.5-1.5s1.5 0.672 1.5 1.5c0 0.828-0.672 1.5-1.5 1.5s-1.5-0.672-1.5-1.5z"></path>
</svg>
