<?xml version="1.0" encoding="utf-8"?>
<!-- Generated by IcoMoon.io -->
<!DOCTYPE svg PUBLIC "-//W3C//DTD SVG 1.1//EN" "http://www.w3.org/Graphics/SVG/1.1/DTD/svg11.dtd">
<svg version="1.1" xmlns="http://www.w3.org/2000/svg" xmlns:xlink="http://www.w3.org/1999/xlink" width="34" height="32" viewBox="0 0 34 32">
<path d="M32 17.714v-14.857c0-0.304-0.268-0.571-0.571-0.571h-28.571c-0.304 0-0.571 0.268-0.571 0.571v14.857c0 0.304 0.268 0.571 0.571 0.571h28.571c0.304 0 0.571-0.268 0.571-0.571zM34.286 2.857v19.429c0 1.571-1.286 2.857-2.857 2.857h-9.714c0 1.518 1.143 2.804 1.143 3.429s-0.518 1.143-1.143 1.143h-9.143c-0.625 0-1.143-0.518-1.143-1.143 0-0.661 1.143-1.875 1.143-3.429h-9.714c-1.571 0-2.857-1.286-2.857-2.857v-19.429c0-1.571 1.286-2.857 2.857-2.857h28.571c1.571 0 2.857 1.286 2.857 2.857z"></path>
</svg>
