<!-- Generated by IcoMoon.io -->
<svg version="1.1" xmlns="http://www.w3.org/2000/svg" width="26" height="24" viewBox="0 0 26 24">
<title>desktop</title>
<path d="M24 13.286v-11.143c0-0.228-0.201-0.429-0.429-0.429h-21.429c-0.228 0-0.429 0.201-0.429 0.429v11.143c0 0.228 0.201 0.429 0.429 0.429h21.429c0.228 0 0.429-0.201 0.429-0.429zM25.714 2.143v14.571c0 1.179-0.964 2.143-2.143 2.143h-7.286c0 1.138 0.857 2.103 0.857 2.571s-0.388 0.857-0.857 0.857h-6.857c-0.469 0-0.857-0.388-0.857-0.857 0-0.496 0.857-1.406 0.857-2.571h-7.286c-1.179 0-2.143-0.964-2.143-2.143v-14.571c0-1.179 0.964-2.143 2.143-2.143h21.429c1.179 0 2.143 0.964 2.143 2.143z"></path>
</svg>
