<!-- Generated by IcoMoon.io -->
<svg version="1.1" xmlns="http://www.w3.org/2000/svg" width="24" height="24" viewBox="0 0 24 24">
<title>dribbble</title>
<path d="M12 24c-6.619 0-12-5.381-12-12s5.381-12 12-12c6.619 0 12 5.381 12 12s-5.381 12-12 12v0zM22.12 13.641c-0.352-0.112-3.173-0.952-6.384-0.436 1.341 3.684 1.884 6.684 1.992 7.308 2.297-1.556 3.938-4.017 4.392-6.872v0zM16.003 21.45c-0.155-0.9-0.745-4.031-2.184-7.772-0.023 0.009-0.047 0.014-0.066 0.023-5.784 2.016-7.861 6.023-8.044 6.398 1.739 1.355 3.923 2.166 6.291 2.166 1.42 0 2.775-0.291 4.003-0.816v0zM4.383 18.867c0.234-0.398 3.047-5.053 8.33-6.764 0.131-0.042 0.267-0.084 0.403-0.122-0.258-0.581-0.539-1.167-0.83-1.739-5.114 1.533-10.083 1.467-10.533 1.462-0.005 0.103-0.005 0.206-0.005 0.314 0 2.63 0.998 5.034 2.634 6.848v0zM1.969 9.914c0.459 0.005 4.683 0.023 9.478-1.247-1.697-3.019-3.53-5.559-3.802-5.93-2.869 1.355-5.016 3.998-5.677 7.177v0zM9.6 2.048c0.281 0.38 2.147 2.916 3.825 6 3.647-1.364 5.189-3.441 5.372-3.703-1.809-1.608-4.191-2.583-6.797-2.583-0.825 0.005-1.631 0.103-2.4 0.286v0zM19.936 5.536c-0.216 0.291-1.936 2.494-5.723 4.041 0.239 0.487 0.469 0.984 0.68 1.486 0.075 0.178 0.15 0.352 0.22 0.53 3.413-0.427 6.802 0.258 7.139 0.328-0.023-2.419-0.891-4.641-2.316-6.384v0z"></path>
</svg>
