<!-- Generated by IcoMoon.io -->
<svg version="1.1" xmlns="http://www.w3.org/2000/svg" width="24" height="24" viewBox="0 0 24 24">
<title>dropbox</title>
<path d="M5.384 9.536l6.616 4.085-4.58 3.817-6.563-4.272zM18.589 16.969v1.446l-6.563 3.924v0.013l-0.013-0.013-0.013 0.013v-0.013l-6.549-3.924v-1.446l1.969 1.286 4.58-3.804v-0.027l0.013 0.013 0.013-0.013v0.027l4.594 3.804zM7.42 1.647l4.58 3.817-6.616 4.071-4.527-3.616zM18.616 9.536l4.527 3.629-6.549 4.272-4.594-3.817zM16.594 1.647l6.549 4.272-4.527 3.616-6.616-4.071z"></path>
</svg>
