<?xml version="1.0" encoding="utf-8"?>
<!-- Generated by IcoMoon.io -->
<!DOCTYPE svg PUBLIC "-//W3C//DTD SVG 1.1//EN" "http://www.w3.org/Graphics/SVG/1.1/DTD/svg11.dtd">
<svg version="1.1" xmlns="http://www.w3.org/2000/svg" xmlns:xlink="http://www.w3.org/1999/xlink" width="32" height="32" viewBox="0 0 32 32">
<path d="M7.179 12.714l8.821 5.446-6.107 5.089-8.75-5.696zM24.786 22.625v1.929l-8.75 5.232v0.018l-0.018-0.018-0.018 0.018v-0.018l-8.732-5.232v-1.929l2.625 1.714 6.107-5.071v-0.036l0.018 0.018 0.018-0.018v0.036l6.125 5.071zM9.893 2.196l6.107 5.089-8.821 5.429-6.036-4.821zM24.821 12.714l6.036 4.839-8.732 5.696-6.125-5.089zM22.125 2.196l8.732 5.696-6.036 4.821-8.821-5.429z"></path>
</svg>
