<!-- Generated by IcoMoon.io -->
<svg version="1.1" xmlns="http://www.w3.org/2000/svg" width="24" height="24" viewBox="0 0 24 24">
<title>edge</title>
<path d="M1.525 10.328c0.665-5.252 4.25-10.016 10.673-10.083 3.877 0.075 7.066 1.832 8.965 5.181 0.954 1.748 1.251 3.584 1.313 5.611v2.382h-14.253c0.067 5.878 8.65 5.678 12.345 3.087v4.786c-2.165 1.3-7.075 2.462-10.877 0.967-3.238-1.215-5.545-4.604-5.532-7.865-0.106-4.227 2.103-7.027 5.532-8.619-0.728 0.9-1.282 1.894-1.57 3.615h8.047c0 0 0.47-4.809-4.556-4.809-4.738 0.164-8.153 2.919-10.087 5.745v0z"></path>
</svg>
