<?xml version="1.0" encoding="utf-8"?>
<!-- Generated by IcoMoon.io -->
<!DOCTYPE svg PUBLIC "-//W3C//DTD SVG 1.1//EN" "http://www.w3.org/Graphics/SVG/1.1/DTD/svg11.dtd">
<svg version="1.1" xmlns="http://www.w3.org/2000/svg" xmlns:xlink="http://www.w3.org/1999/xlink" width="32" height="32" viewBox="0 0 32 32">
<path d="M2.033 13.77c0.887-7.003 5.666-13.355 14.23-13.444 5.169 0.101 9.422 2.443 11.953 6.908 1.272 2.33 1.668 4.779 1.751 7.482v3.176h-19.003c0.089 7.837 11.533 7.571 16.46 4.117v6.382c-2.886 1.733-9.434 3.283-14.503 1.289-4.318-1.621-7.393-6.139-7.375-10.487-0.142-5.637 2.803-9.369 7.375-11.492-0.97 1.201-1.709 2.526-2.094 4.82h10.729c0 0 0.627-6.411-6.074-6.411-6.317 0.219-10.871 3.892-13.45 7.659v0z"></path>
</svg>
