<?xml version="1.0" encoding="utf-8"?>
<!-- Generated by IcoMoon.io -->
<!DOCTYPE svg PUBLIC "-//W3C//DTD SVG 1.1//EN" "http://www.w3.org/Graphics/SVG/1.1/DTD/svg11.dtd">
<svg version="1.1" xmlns="http://www.w3.org/2000/svg" xmlns:xlink="http://www.w3.org/1999/xlink" width="32" height="32" viewBox="0 0 32 32">
<path d="M15.857 21.143l2.071-2.071-2.714-2.714-2.071 2.071v1h1.714v1.714h1zM23.714 8.286c-0.161-0.161-0.429-0.143-0.589 0.018l-6.25 6.25c-0.161 0.161-0.179 0.429-0.018 0.589s0.429 0.143 0.589-0.018l6.25-6.25c0.161-0.161 0.179-0.429 0.018-0.589zM25.143 18.893v3.393c0 2.839-2.304 5.143-5.143 5.143h-14.857c-2.839 0-5.143-2.304-5.143-5.143v-14.857c0-2.839 2.304-5.143 5.143-5.143h14.857c0.714 0 1.429 0.143 2.089 0.446 0.161 0.071 0.286 0.232 0.321 0.411 0.036 0.196-0.018 0.375-0.161 0.518l-0.875 0.875c-0.161 0.161-0.375 0.214-0.571 0.143-0.268-0.071-0.536-0.107-0.804-0.107h-14.857c-1.571 0-2.857 1.286-2.857 2.857v14.857c0 1.571 1.286 2.857 2.857 2.857h14.857c1.571 0 2.857-1.286 2.857-2.857v-2.25c0-0.143 0.054-0.286 0.161-0.393l1.143-1.143c0.179-0.179 0.411-0.214 0.625-0.125s0.357 0.286 0.357 0.518zM23.429 5.714l5.143 5.143-12 12h-5.143v-5.143zM31.357 8.071l-1.643 1.643-5.143-5.143 1.643-1.643c0.661-0.661 1.768-0.661 2.429 0l2.714 2.714c0.661 0.661 0.661 1.768 0 2.429z"></path>
</svg>
