<?xml version="1.0" encoding="utf-8"?>
<!-- Generated by IcoMoon.io -->
<!DOCTYPE svg PUBLIC "-//W3C//DTD SVG 1.1//EN" "http://www.w3.org/Graphics/SVG/1.1/DTD/svg11.dtd">
<svg version="1.1" xmlns="http://www.w3.org/2000/svg" xmlns:xlink="http://www.w3.org/1999/xlink" width="32" height="32" viewBox="0 0 32 32">
<path d="M32 11.536v14.179c0 1.571-1.286 2.857-2.857 2.857h-26.286c-1.571 0-2.857-1.286-2.857-2.857v-14.179c0.536 0.589 1.143 1.107 1.804 1.554 2.964 2.018 5.964 4.036 8.875 6.161 1.5 1.107 3.357 2.464 5.304 2.464h0.036c1.946 0 3.804-1.357 5.304-2.464 2.911-2.107 5.911-4.143 8.893-6.161 0.643-0.446 1.25-0.964 1.786-1.554zM32 6.286c0 2-1.482 3.804-3.054 4.893-2.786 1.929-5.589 3.857-8.357 5.804-1.161 0.804-3.125 2.446-4.571 2.446h-0.036c-1.446 0-3.411-1.643-4.571-2.446-2.768-1.946-5.571-3.875-8.339-5.804-1.268-0.857-3.071-2.875-3.071-4.5 0-1.75 0.946-3.25 2.857-3.25h26.286c1.554 0 2.857 1.286 2.857 2.857z"></path>
</svg>
