<!-- Generated by IcoMoon.io -->
<svg version="1.1" xmlns="http://www.w3.org/2000/svg" width="24" height="24" viewBox="0 0 24 24">
<title>envelope</title>
<path d="M24 8.652v10.634c0 1.179-0.964 2.143-2.143 2.143h-19.714c-1.179 0-2.143-0.964-2.143-2.143v-10.634c0.402 0.442 0.857 0.83 1.353 1.165 2.223 1.513 4.473 3.027 6.656 4.621 1.125 0.83 2.518 1.848 3.978 1.848h0.027c1.46 0 2.853-1.018 3.978-1.848 2.183-1.58 4.433-3.107 6.67-4.621 0.482-0.335 0.938-0.723 1.339-1.165zM24 4.714c0 1.5-1.112 2.853-2.29 3.67-2.089 1.446-4.192 2.893-6.268 4.353-0.871 0.603-2.344 1.835-3.429 1.835h-0.027c-1.085 0-2.558-1.232-3.429-1.835-2.076-1.46-4.179-2.906-6.254-4.353-0.951-0.643-2.304-2.156-2.304-3.375 0-1.312 0.71-2.437 2.143-2.437h19.714c1.165 0 2.143 0.964 2.143 2.143z"></path>
</svg>
