<!-- Generated by IcoMoon.io -->
<svg version="1.1" xmlns="http://www.w3.org/2000/svg" width="21" height="24" viewBox="0 0 21 24">
<title>expand</title>
<path d="M10.112 14.143c0 0.107-0.054 0.228-0.134 0.308l-4.446 4.446 1.929 1.929c0.161 0.161 0.254 0.375 0.254 0.603 0 0.469-0.388 0.857-0.857 0.857h-6c-0.469 0-0.857-0.388-0.857-0.857v-6c0-0.469 0.388-0.857 0.857-0.857 0.228 0 0.442 0.094 0.603 0.254l1.929 1.929 4.446-4.446c0.080-0.080 0.201-0.134 0.308-0.134s0.228 0.054 0.308 0.134l1.527 1.527c0.080 0.080 0.134 0.201 0.134 0.308zM20.571 2.571v6c0 0.469-0.388 0.857-0.857 0.857-0.228 0-0.442-0.094-0.603-0.254l-1.929-1.929-4.446 4.446c-0.080 0.080-0.201 0.134-0.308 0.134s-0.228-0.054-0.308-0.134l-1.527-1.527c-0.080-0.080-0.134-0.201-0.134-0.308s0.054-0.228 0.134-0.308l4.446-4.446-1.929-1.929c-0.161-0.161-0.254-0.375-0.254-0.603 0-0.469 0.388-0.857 0.857-0.857h6c0.469 0 0.857 0.388 0.857 0.857z"></path>
</svg>
