<!-- Generated by IcoMoon.io -->
<svg version="1.1" xmlns="http://www.w3.org/2000/svg" width="24" height="24" viewBox="0 0 24 24">
<title>external-link</title>
<path d="M18.857 14.143v4.286c0 2.129-1.728 3.857-3.857 3.857h-11.143c-2.129 0-3.857-1.728-3.857-3.857v-11.143c0-2.129 1.728-3.857 3.857-3.857h9.429c0.241 0 0.429 0.188 0.429 0.429v0.857c0 0.241-0.188 0.429-0.429 0.429h-9.429c-1.179 0-2.143 0.964-2.143 2.143v11.143c0 1.179 0.964 2.143 2.143 2.143h11.143c1.179 0 2.143-0.964 2.143-2.143v-4.286c0-0.241 0.188-0.429 0.429-0.429h0.857c0.241 0 0.429 0.188 0.429 0.429zM24 2.571v6.857c0 0.469-0.388 0.857-0.857 0.857-0.228 0-0.442-0.094-0.603-0.254l-2.357-2.357-8.732 8.732c-0.080 0.080-0.201 0.134-0.308 0.134s-0.228-0.054-0.308-0.134l-1.527-1.527c-0.080-0.080-0.134-0.201-0.134-0.308s0.054-0.228 0.134-0.308l8.732-8.732-2.357-2.357c-0.161-0.161-0.254-0.375-0.254-0.603 0-0.469 0.388-0.857 0.857-0.857h6.857c0.469 0 0.857 0.388 0.857 0.857z"></path>
</svg>
