<?xml version="1.0" encoding="utf-8"?>
<!-- Generated by IcoMoon.io -->
<!DOCTYPE svg PUBLIC "-//W3C//DTD SVG 1.1//EN" "http://www.w3.org/Graphics/SVG/1.1/DTD/svg11.dtd">
<svg version="1.1" xmlns="http://www.w3.org/2000/svg" xmlns:xlink="http://www.w3.org/1999/xlink" width="32" height="32" viewBox="0 0 32 32">
<path d="M9.911 22.696l1.393-2.518c-2.071-1.5-3.304-3.911-3.304-6.464 0-1.411 0.375-2.804 1.089-4.018-2.786 1.429-5.107 3.679-6.804 6.304 1.857 2.875 4.482 5.286 7.625 6.696zM16.857 9.143c0-0.464-0.393-0.857-0.857-0.857-2.982 0-5.429 2.446-5.429 5.429 0 0.464 0.393 0.857 0.857 0.857s0.857-0.393 0.857-0.857c0-2.054 1.679-3.714 3.714-3.714 0.464 0 0.857-0.393 0.857-0.857zM23.339 5.732c0 0.036 0 0.125-0.018 0.161-3.768 6.732-7.5 13.5-11.268 20.232l-0.875 1.589c-0.107 0.179-0.304 0.286-0.5 0.286-0.321 0-2.018-1.036-2.393-1.25-0.179-0.107-0.286-0.286-0.286-0.5 0-0.286 0.607-1.25 0.786-1.554-3.464-1.571-6.375-4.25-8.429-7.464-0.232-0.357-0.357-0.786-0.357-1.232 0-0.429 0.125-0.875 0.357-1.232 3.536-5.429 9.054-9.054 15.643-9.054 1.071 0 2.161 0.107 3.214 0.304l0.964-1.732c0.107-0.179 0.286-0.286 0.5-0.286 0.321 0 2 1.036 2.375 1.25 0.179 0.107 0.286 0.286 0.286 0.482zM24 13.714c0 3.321-2.054 6.286-5.143 7.464l5-8.964c0.089 0.5 0.143 1 0.143 1.5zM32 16c0 0.464-0.125 0.839-0.357 1.232-0.554 0.911-1.25 1.786-1.946 2.589-3.5 4.018-8.321 6.464-13.696 6.464l1.321-2.357c5.196-0.446 9.607-3.607 12.393-7.929-1.321-2.054-3.018-3.857-5.036-5.25l1.125-2c2.214 1.482 4.446 3.714 5.839 6.018 0.232 0.393 0.357 0.768 0.357 1.232z"></path>
</svg>
