<!-- Generated by IcoMoon.io -->
<svg version="1.1" xmlns="http://www.w3.org/2000/svg" width="24" height="24" viewBox="0 0 24 24">
<title>eye-slash</title>
<path d="M7.433 17.022l1.045-1.888c-1.554-1.125-2.478-2.933-2.478-4.848 0-1.058 0.281-2.103 0.817-3.013-2.089 1.071-3.83 2.759-5.103 4.728 1.393 2.156 3.362 3.964 5.719 5.022zM12.643 6.857c0-0.348-0.295-0.643-0.643-0.643-2.237 0-4.071 1.835-4.071 4.071 0 0.348 0.295 0.643 0.643 0.643s0.643-0.295 0.643-0.643c0-1.54 1.259-2.786 2.786-2.786 0.348 0 0.643-0.295 0.643-0.643zM17.504 4.299c0 0.027 0 0.094-0.013 0.121-2.826 5.049-5.625 10.125-8.451 15.174l-0.656 1.192c-0.080 0.134-0.228 0.214-0.375 0.214-0.241 0-1.513-0.777-1.795-0.938-0.134-0.080-0.214-0.214-0.214-0.375 0-0.214 0.455-0.938 0.589-1.165-2.598-1.179-4.781-3.187-6.321-5.598-0.174-0.268-0.268-0.589-0.268-0.924 0-0.321 0.094-0.656 0.268-0.924 2.652-4.071 6.79-6.79 11.732-6.79 0.804 0 1.621 0.080 2.411 0.228l0.723-1.299c0.080-0.134 0.214-0.214 0.375-0.214 0.241 0 1.5 0.777 1.781 0.938 0.134 0.080 0.214 0.214 0.214 0.362zM18 10.286c0 2.491-1.54 4.714-3.857 5.598l3.75-6.723c0.067 0.375 0.107 0.75 0.107 1.125zM24 12c0 0.348-0.094 0.629-0.268 0.924-0.415 0.683-0.938 1.339-1.46 1.942-2.625 3.013-6.241 4.848-10.272 4.848l0.991-1.768c3.897-0.335 7.205-2.705 9.295-5.946-0.991-1.54-2.263-2.893-3.777-3.938l0.844-1.5c1.661 1.112 3.335 2.786 4.379 4.513 0.174 0.295 0.268 0.576 0.268 0.924z"></path>
</svg>
