<!-- Generated by IcoMoon.io -->
<svg version="1.1" xmlns="http://www.w3.org/2000/svg" width="24" height="24" viewBox="0 0 24 24">
<title>eye</title>
<path d="M22.286 12c-1.272-1.969-3.013-3.656-5.103-4.728 0.536 0.911 0.817 1.955 0.817 3.013 0 3.308-2.692 6-6 6s-6-2.692-6-6c0-1.058 0.281-2.103 0.817-3.013-2.089 1.071-3.83 2.759-5.103 4.728 2.29 3.536 5.987 6 10.286 6s7.996-2.464 10.286-6zM12.643 6.857c0-0.348-0.295-0.643-0.643-0.643-2.237 0-4.071 1.835-4.071 4.071 0 0.348 0.295 0.643 0.643 0.643s0.643-0.295 0.643-0.643c0-1.527 1.259-2.786 2.786-2.786 0.348 0 0.643-0.295 0.643-0.643zM24 12c0 0.335-0.107 0.643-0.268 0.924-2.464 4.058-6.978 6.79-11.732 6.79s-9.268-2.746-11.732-6.79c-0.161-0.281-0.268-0.589-0.268-0.924s0.107-0.643 0.268-0.924c2.464-4.045 6.978-6.79 11.732-6.79s9.268 2.746 11.732 6.79c0.161 0.281 0.268 0.589 0.268 0.924z"></path>
</svg>
