<?xml version="1.0" encoding="utf-8"?>
<!-- Generated by IcoMoon.io -->
<!DOCTYPE svg PUBLIC "-//W3C//DTD SVG 1.1//EN" "http://www.w3.org/Graphics/SVG/1.1/DTD/svg11.dtd">
<svg version="1.1" xmlns="http://www.w3.org/2000/svg" xmlns:xlink="http://www.w3.org/1999/xlink" width="27" height="32" viewBox="0 0 27 32">
<path d="M22.286 2.286c2.839 0 5.143 2.304 5.143 5.143v17.143c0 2.839-2.304 5.143-5.143 5.143h-3.357v-10.625h3.554l0.536-4.143h-4.089v-2.643c0-1.196 0.321-2 2.054-2l2.179-0.018v-3.696c-0.375-0.054-1.679-0.161-3.179-0.161-3.161 0-5.339 1.929-5.339 5.464v3.054h-3.571v4.143h3.571v10.625h-9.5c-2.839 0-5.143-2.304-5.143-5.143v-17.143c0-2.839 2.304-5.143 5.143-5.143h17.143z"></path>
</svg>
