<?xml version="1.0" encoding="utf-8"?>
<!-- Generated by IcoMoon.io -->
<!DOCTYPE svg PUBLIC "-//W3C//DTD SVG 1.1//EN" "http://www.w3.org/Graphics/SVG/1.1/DTD/svg11.dtd">
<svg version="1.1" xmlns="http://www.w3.org/2000/svg" xmlns:xlink="http://www.w3.org/1999/xlink" width="25" height="32" viewBox="0 0 25 32">
<path d="M6.857 25.143c0 1.893-1.536 3.429-3.429 3.429s-3.429-1.536-3.429-3.429 1.536-3.429 3.429-3.429 3.429 1.536 3.429 3.429zM16 27.339c0.018 0.321-0.089 0.625-0.304 0.857-0.214 0.25-0.518 0.375-0.839 0.375h-2.411c-0.589 0-1.071-0.446-1.125-1.036-0.518-5.446-4.839-9.768-10.286-10.286-0.589-0.054-1.036-0.536-1.036-1.125v-2.411c0-0.321 0.125-0.625 0.375-0.839 0.196-0.196 0.482-0.304 0.768-0.304h0.089c3.804 0.304 7.393 1.964 10.089 4.679 2.714 2.696 4.375 6.286 4.679 10.089zM25.143 27.375c0.018 0.304-0.089 0.607-0.321 0.839-0.214 0.232-0.5 0.357-0.821 0.357h-2.554c-0.607 0-1.107-0.464-1.143-1.071-0.589-10.375-8.857-18.643-19.232-19.25-0.607-0.036-1.071-0.536-1.071-1.125v-2.554c0-0.321 0.125-0.607 0.357-0.821 0.214-0.214 0.5-0.321 0.786-0.321h0.054c6.25 0.321 12.125 2.946 16.554 7.393 4.446 4.429 7.071 10.304 7.393 16.554z"></path>
</svg>
