<?xml version="1.0" encoding="utf-8"?>
<!-- Generated by IcoMoon.io -->
<!DOCTYPE svg PUBLIC "-//W3C//DTD SVG 1.1//EN" "http://www.w3.org/Graphics/SVG/1.1/DTD/svg11.dtd">
<svg version="1.1" xmlns="http://www.w3.org/2000/svg" xmlns:xlink="http://www.w3.org/1999/xlink" width="23" height="32" viewBox="0 0 23 32">
<path d="M22.857 18.571c0 0.946-0.768 1.714-1.714 1.714-0.571 0-1.107-0.286-1.429-0.768l-4.054-6.089h-0.804v2.357l4.411 7.339c0.107 0.179 0.161 0.375 0.161 0.589 0 0.625-0.518 1.143-1.143 1.143h-3.429v4.857c0 1.107-0.893 2-2 2h-2.857c-1.089 0-2-0.893-2-2v-4.857h-3.429c-0.625 0-1.143-0.518-1.143-1.143 0-0.214 0.054-0.411 0.161-0.589l4.411-7.339v-2.357h-0.804l-4.054 6.089c-0.321 0.482-0.857 0.768-1.429 0.768-0.946 0-1.714-0.768-1.714-1.714 0-0.339 0.107-0.679 0.286-0.946l4.571-6.857c0.714-1.054 1.821-1.911 3.143-1.911h6.857c1.321 0 2.429 0.857 3.143 1.911l4.571 6.857c0.179 0.268 0.286 0.607 0.286 0.946zM15.428 4.286c0 2.214-1.786 4-4 4s-4-1.786-4-4 1.786-4 4-4 4 1.786 4 4z"></path>
</svg>
