<!-- Generated by IcoMoon.io -->
<svg version="1.1" xmlns="http://www.w3.org/2000/svg" width="21" height="24" viewBox="0 0 21 24">
<title>file-image-o</title>
<path d="M19.661 5.089c0.496 0.496 0.911 1.487 0.911 2.196v15.429c0 0.71-0.576 1.286-1.286 1.286h-18c-0.71 0-1.286-0.576-1.286-1.286v-21.429c0-0.71 0.576-1.286 1.286-1.286h12c0.71 0 1.701 0.415 2.196 0.911zM13.714 1.821v5.036h5.036c-0.080-0.228-0.201-0.455-0.295-0.549l-4.192-4.192c-0.094-0.094-0.321-0.214-0.549-0.295zM18.857 22.286v-13.714h-5.571c-0.71 0-1.286-0.576-1.286-1.286v-5.571h-10.286v20.571h17.143zM17.143 16.286v4.286h-13.714v-2.571l2.571-2.571 1.714 1.714 5.143-5.143zM6 13.714c-1.42 0-2.571-1.152-2.571-2.571s1.152-2.571 2.571-2.571 2.571 1.152 2.571 2.571-1.152 2.571-2.571 2.571z"></path>
</svg>
