<?xml version="1.0" encoding="utf-8"?>
<!-- Generated by IcoMoon.io -->
<!DOCTYPE svg PUBLIC "-//W3C//DTD SVG 1.1//EN" "http://www.w3.org/Graphics/SVG/1.1/DTD/svg11.dtd">
<svg version="1.1" xmlns="http://www.w3.org/2000/svg" xmlns:xlink="http://www.w3.org/1999/xlink" width="27" height="32" viewBox="0 0 27 32">
<path d="M26.214 6.786c0.661 0.661 1.214 1.982 1.214 2.929v20.571c0 0.946-0.768 1.714-1.714 1.714h-24c-0.946 0-1.714-0.768-1.714-1.714v-28.571c0-0.946 0.768-1.714 1.714-1.714h16c0.946 0 2.268 0.554 2.929 1.214zM18.286 2.429v6.714h6.714c-0.107-0.304-0.268-0.607-0.393-0.732l-5.589-5.589c-0.125-0.125-0.429-0.286-0.732-0.393zM25.143 29.714v-18.286h-7.429c-0.946 0-1.714-0.768-1.714-1.714v-7.429h-13.714v27.429h22.857zM22.857 21.714v5.714h-18.286v-3.429l3.429-3.429 2.286 2.286 6.857-6.857zM8 18.286c-1.893 0-3.429-1.536-3.429-3.429s1.536-3.429 3.429-3.429 3.429 1.536 3.429 3.429-1.536 3.429-3.429 3.429z"></path>
</svg>
