<!-- Generated by IcoMoon.io -->
<svg version="1.1" xmlns="http://www.w3.org/2000/svg" width="24" height="24" viewBox="0 0 24 24">
<title>files-empty</title>
<path d="M21.511 8.369c-0.521-0.71-1.246-1.54-2.043-2.337s-1.627-1.523-2.337-2.043c-1.209-0.886-1.795-0.989-2.131-0.989h-8.625c-1.034 0-1.875 0.841-1.875 1.875v17.25c0 1.034 0.841 1.875 1.875 1.875h14.25c1.034 0 1.875-0.841 1.875-1.875v-11.625c0-0.336-0.102-0.922-0.989-2.131zM18.407 7.093c0.72 0.72 1.284 1.369 1.701 1.907h-3.608v-3.608c0.539 0.417 1.188 0.982 1.907 1.701v0zM21 22.125c0 0.203-0.172 0.375-0.375 0.375h-14.25c-0.203 0-0.375-0.172-0.375-0.375v-17.25c0-0.203 0.172-0.375 0.375-0.375 0 0 8.624-0 8.625 0v5.25c0 0.414 0.336 0.75 0.75 0.75h5.25v11.625z"></path>
<path d="M14.131 0.989c-1.209-0.886-1.795-0.989-2.131-0.989h-8.625c-1.034 0-1.875 0.841-1.875 1.875v17.25c0 0.905 0.645 1.663 1.5 1.837v-19.087c0-0.203 0.172-0.375 0.375-0.375h11.411c-0.226-0.186-0.446-0.358-0.655-0.511z"></path>
</svg>
