<!-- Generated by IcoMoon.io -->
<svg version="1.1" xmlns="http://www.w3.org/2000/svg" width="24" height="24" viewBox="0 0 24 24">
<title>file-pdf</title>
<path d="M19.735 13.816c-0.32-0.315-1.029-0.482-2.109-0.496-0.731-0.008-1.61 0.056-2.535 0.186-0.414-0.239-0.841-0.499-1.176-0.812-0.901-0.842-1.654-2.010-2.123-3.295 0.031-0.12 0.057-0.225 0.081-0.333 0 0 0.508-2.884 0.373-3.859-0.019-0.134-0.030-0.173-0.066-0.276l-0.044-0.113c-0.138-0.319-0.409-0.656-0.834-0.638l-0.256-0.008c-0.473 0-0.859 0.242-0.961 0.604-0.308 1.135 0.010 2.833 0.585 5.033l-0.147 0.358c-0.412 1.005-0.929 2.017-1.385 2.91l-0.059 0.116c-0.48 0.938-0.915 1.735-1.309 2.41l-0.407 0.215c-0.030 0.016-0.728 0.385-0.891 0.484-1.389 0.829-2.309 1.771-2.462 2.518-0.049 0.238-0.012 0.543 0.235 0.685l0.394 0.198c0.171 0.086 0.351 0.129 0.536 0.129 0.989 0 2.138-1.232 3.719-3.993 1.826-0.595 3.906-1.089 5.728-1.361 1.389 0.782 3.097 1.325 4.175 1.325 0.191 0 0.357-0.018 0.491-0.054 0.207-0.055 0.381-0.173 0.487-0.333 0.209-0.315 0.252-0.748 0.195-1.192-0.017-0.132-0.122-0.295-0.236-0.406zM4.96 19.079c0.18-0.493 0.894-1.468 1.95-2.333 0.066-0.054 0.23-0.207 0.38-0.349-1.104 1.761-1.843 2.462-2.33 2.683zM11.213 4.68c0.318 0 0.499 0.801 0.514 1.553s-0.161 1.279-0.379 1.669c-0.181-0.578-0.268-1.488-0.268-2.084 0 0-0.013-1.138 0.133-1.138v0zM9.348 14.941c0.221-0.396 0.452-0.815 0.687-1.258 0.574-1.086 0.937-1.935 1.207-2.633 0.537 0.977 1.206 1.807 1.992 2.473 0.098 0.083 0.202 0.166 0.311 0.25-1.599 0.316-2.98 0.701-4.197 1.169v0zM19.427 14.851c-0.097 0.061-0.376 0.096-0.556 0.096-0.579 0-1.295-0.265-2.3-0.695 0.386-0.029 0.74-0.043 1.057-0.043 0.581 0 0.753-0.003 1.321 0.142s0.575 0.439 0.478 0.5v0z"></path>
<path d="M21.511 5.369c-0.521-0.71-1.246-1.54-2.043-2.337s-1.627-1.523-2.337-2.043c-1.209-0.886-1.795-0.989-2.131-0.989h-11.625c-1.034 0-1.875 0.841-1.875 1.875v20.25c0 1.034 0.841 1.875 1.875 1.875h17.25c1.034 0 1.875-0.841 1.875-1.875v-14.625c0-0.336-0.102-0.922-0.989-2.131v0zM18.407 4.093c0.72 0.72 1.284 1.369 1.701 1.907h-3.608v-3.608c0.539 0.417 1.188 0.982 1.907 1.701v0zM21 22.125c0 0.203-0.172 0.375-0.375 0.375h-17.25c-0.203 0-0.375-0.172-0.375-0.375v-20.25c0-0.203 0.172-0.375 0.375-0.375 0 0 11.624-0 11.625 0v5.25c0 0.414 0.336 0.75 0.75 0.75h5.25v14.625z"></path>
</svg>
