<!-- Generated by IcoMoon.io -->
<svg version="1.1" xmlns="http://www.w3.org/2000/svg" width="19" height="24" viewBox="0 0 19 24">
<title>filter</title>
<path d="M18.79 3.094c0.134 0.321 0.067 0.696-0.188 0.938l-6.603 6.603v9.938c0 0.348-0.214 0.656-0.522 0.79-0.107 0.040-0.228 0.067-0.335 0.067-0.228 0-0.442-0.080-0.603-0.254l-3.429-3.429c-0.161-0.161-0.254-0.375-0.254-0.603v-6.509l-6.603-6.603c-0.254-0.241-0.321-0.616-0.188-0.938 0.134-0.308 0.442-0.522 0.79-0.522h17.143c0.348 0 0.656 0.214 0.79 0.522z"></path>
</svg>
