<?xml version="1.0" encoding="utf-8"?>
<!-- Generated by IcoMoon.io -->
<!DOCTYPE svg PUBLIC "-//W3C//DTD SVG 1.1//EN" "http://www.w3.org/Graphics/SVG/1.1/DTD/svg11.dtd">
<svg version="1.1" xmlns="http://www.w3.org/2000/svg" xmlns:xlink="http://www.w3.org/1999/xlink" width="32" height="32" viewBox="0 0 32 32">
<path d="M9.878 31.111c-2.014-4.191-0.942-6.593 0.607-8.855 1.695-2.478 2.132-4.931 2.132-4.931s1.333 1.732 0.8 4.442c2.354-2.621 2.799-6.796 2.443-8.396 5.322 3.719 7.596 11.772 4.531 17.74 16.303-9.224 4.055-23.026 1.923-24.581 0.711 1.555 0.846 4.187-0.59 5.464-2.431-9.216-8.44-11.105-8.44-11.105 0.711 4.753-2.576 9.95-5.746 13.834-0.111-1.895-0.23-3.203-1.226-5.017-0.224 3.443-2.855 6.25-3.567 9.699-0.965 4.672 0.723 8.092 7.135 11.706z"></path>
</svg>
