<!-- Generated by IcoMoon.io -->
<svg version="1.1" xmlns="http://www.w3.org/2000/svg" width="24" height="24" viewBox="0 0 24 24">
<title>glass</title>
<path d="M20.84 2.713c0.177-0.226 0.21-0.533 0.085-0.791s-0.387-0.422-0.675-0.422h-16.5c-0.287 0-0.549 0.164-0.675 0.422s-0.093 0.565 0.085 0.791l7.34 9.341v8.945h-2.25c-0.414 0-0.75 0.336-0.75 0.75s0.336 0.75 0.75 0.75h7.5c0.414 0 0.75-0.336 0.75-0.75s-0.336-0.75-0.75-0.75h-2.25v-8.945l7.34-9.341zM18.707 3l-2.357 3h-8.7l-2.357-3h13.414z"></path>
</svg>
