<!-- Generated by IcoMoon.io -->
<svg version="1.1" xmlns="http://www.w3.org/2000/svg" width="21" height="24" viewBox="0 0 21 24">
<title>globe</title>
<path d="M10.286 1.714c5.679 0 10.286 4.607 10.286 10.286s-4.607 10.286-10.286 10.286-10.286-4.607-10.286-10.286 4.607-10.286 10.286-10.286zM13.955 8.692c-0.107 0.080-0.174 0.228-0.308 0.254 0.067-0.013 0.134-0.254 0.174-0.308 0.080-0.094 0.188-0.147 0.295-0.201 0.228-0.094 0.455-0.121 0.696-0.161 0.228-0.054 0.509-0.054 0.683 0.147-0.040-0.040 0.281-0.321 0.321-0.335 0.121-0.067 0.321-0.040 0.402-0.161 0.027-0.040 0.027-0.295 0.027-0.295-0.228 0.027-0.308-0.188-0.321-0.375 0 0.013-0.027 0.054-0.080 0.107 0.013-0.201-0.241-0.054-0.335-0.080-0.308-0.080-0.268-0.295-0.362-0.522-0.054-0.121-0.201-0.161-0.254-0.281-0.054-0.080-0.080-0.254-0.201-0.268-0.080-0.013-0.228 0.281-0.254 0.268-0.121-0.067-0.174 0.027-0.268 0.080-0.080 0.054-0.147 0.027-0.228 0.067 0.241-0.080-0.107-0.214-0.228-0.188 0.188-0.054 0.094-0.254-0.013-0.348h0.067c-0.027-0.121-0.402-0.228-0.522-0.308s-0.763-0.214-0.897-0.134c-0.161 0.094 0.040 0.362 0.040 0.496 0.013 0.161-0.161 0.201-0.161 0.335 0 0.228 0.429 0.188 0.321 0.496-0.067 0.188-0.321 0.228-0.429 0.375-0.107 0.134 0.013 0.375 0.121 0.469 0.107 0.080-0.188 0.214-0.228 0.241-0.228 0.107-0.402-0.228-0.455-0.429-0.040-0.147-0.054-0.321-0.214-0.402-0.080-0.027-0.335-0.067-0.388 0.013-0.080-0.201-0.362-0.281-0.549-0.348-0.268-0.094-0.496-0.094-0.777-0.054 0.094-0.013-0.027-0.429-0.254-0.362 0.067-0.134 0.040-0.281 0.067-0.415 0.027-0.107 0.080-0.214 0.161-0.308 0.027-0.054 0.321-0.362 0.228-0.375 0.228 0.027 0.482 0.040 0.67-0.147 0.121-0.121 0.174-0.321 0.295-0.455 0.174-0.201 0.388 0.054 0.576 0.067 0.268 0.013 0.254-0.281 0.107-0.415 0.174 0.013 0.027-0.308-0.067-0.348-0.121-0.040-0.576 0.080-0.335 0.174-0.054-0.027-0.375 0.643-0.563 0.308-0.054-0.067-0.080-0.348-0.201-0.362-0.107 0-0.174 0.121-0.214 0.201 0.067-0.174-0.375-0.295-0.469-0.308 0.201-0.134 0.040-0.281-0.107-0.362-0.107-0.067-0.442-0.121-0.536-0.013-0.254 0.308 0.268 0.348 0.402 0.429 0.040 0.027 0.201 0.121 0.107 0.188-0.080 0.040-0.321 0.107-0.348 0.161-0.080 0.121 0.094 0.254-0.027 0.375-0.121-0.121-0.121-0.321-0.214-0.455 0.121 0.147-0.482 0.067-0.469 0.067-0.201 0-0.522 0.134-0.67-0.067-0.027-0.054-0.027-0.362 0.054-0.295-0.121-0.094-0.201-0.188-0.281-0.241-0.442 0.147-0.857 0.335-1.259 0.549 0.054 0.013 0.094 0.013 0.161-0.013 0.107-0.040 0.201-0.107 0.308-0.161 0.134-0.054 0.415-0.214 0.563-0.094 0.013-0.027 0.054-0.054 0.067-0.067 0.094 0.107 0.188 0.214 0.268 0.335-0.107-0.054-0.281-0.027-0.402-0.013-0.094 0.027-0.254 0.054-0.295 0.161 0.040 0.067 0.094 0.174 0.067 0.241-0.174-0.121-0.308-0.321-0.549-0.348-0.107 0-0.214 0-0.295 0.013-1.286 0.71-2.371 1.741-3.147 2.973 0.054 0.054 0.107 0.094 0.161 0.107 0.134 0.040 0 0.429 0.254 0.228 0.080 0.067 0.094 0.161 0.040 0.254 0.013-0.013 0.549 0.335 0.589 0.362 0.094 0.080 0.241 0.174 0.281 0.281 0.027 0.094-0.054 0.201-0.134 0.241-0.013-0.027-0.214-0.228-0.241-0.174-0.040 0.067 0 0.429 0.147 0.415-0.214 0.013-0.121 0.844-0.174 1.004 0 0.013 0.027 0.013 0.027 0.013-0.040 0.161 0.094 0.79 0.362 0.723-0.174 0.040 0.308 0.656 0.375 0.696 0.174 0.121 0.375 0.201 0.496 0.375 0.134 0.188 0.134 0.469 0.321 0.616-0.054 0.161 0.281 0.348 0.268 0.576-0.027 0.013-0.040 0.013-0.067 0.027 0.067 0.188 0.321 0.188 0.415 0.362 0.054 0.107 0 0.362 0.174 0.308 0.027-0.295-0.174-0.589-0.321-0.83-0.080-0.134-0.161-0.254-0.228-0.388-0.067-0.121-0.080-0.268-0.134-0.402 0.054 0.013 0.348 0.121 0.321 0.161-0.107 0.268 0.429 0.737 0.576 0.911 0.040 0.040 0.348 0.442 0.188 0.442 0.174 0 0.415 0.268 0.496 0.402 0.121 0.201 0.094 0.455 0.174 0.67 0.080 0.268 0.455 0.388 0.67 0.509 0.188 0.094 0.348 0.228 0.536 0.295 0.281 0.107 0.348 0.013 0.589-0.027 0.348-0.054 0.388 0.335 0.67 0.482 0.174 0.094 0.549 0.228 0.737 0.147-0.080 0.027 0.281 0.576 0.308 0.616 0.121 0.161 0.348 0.241 0.482 0.402 0.040-0.027 0.080-0.067 0.094-0.121-0.054 0.147 0.201 0.429 0.335 0.402 0.147-0.027 0.188-0.321 0.188-0.429-0.268 0.134-0.509 0.027-0.656-0.241-0.027-0.067-0.241-0.442-0.054-0.442 0.254 0 0.080-0.201 0.054-0.388s-0.214-0.308-0.308-0.469c-0.080 0.161-0.348 0.121-0.429-0.013 0 0.040-0.040 0.107-0.040 0.161-0.067 0-0.134 0.013-0.201-0.013 0.027-0.161 0.040-0.362 0.080-0.536 0.067-0.241 0.509-0.71-0.067-0.683-0.201 0.013-0.281 0.094-0.348 0.268-0.067 0.161-0.040 0.308-0.228 0.388-0.121 0.054-0.522 0.027-0.643-0.040-0.254-0.147-0.429-0.616-0.429-0.884-0.013-0.362 0.174-0.683 0-1.018 0.080-0.067 0.161-0.201 0.254-0.268 0.080-0.054 0.174 0.040 0.214-0.121-0.040-0.027-0.094-0.080-0.107-0.080 0.201 0.094 0.576-0.134 0.75 0 0.107 0.080 0.228 0.107 0.295-0.027 0.013-0.040-0.094-0.201-0.040-0.308 0.040 0.228 0.188 0.268 0.388 0.121 0.080 0.080 0.295 0.054 0.442 0.134 0.147 0.094 0.174 0.241 0.348 0.040 0.107 0.161 0.121 0.161 0.161 0.321 0.040 0.147 0.121 0.522 0.254 0.589 0.281 0.174 0.214-0.295 0.188-0.455-0.013-0.013-0.013-0.455-0.027-0.455-0.429-0.094-0.268-0.429-0.027-0.656 0.040-0.027 0.348-0.134 0.482-0.241 0.121-0.107 0.268-0.295 0.201-0.469 0.067 0 0.121-0.054 0.147-0.121-0.040-0.013-0.201-0.147-0.228-0.134 0.094-0.054 0.080-0.134 0.027-0.214 0.134-0.080 0.067-0.228 0.201-0.281 0.147 0.201 0.442-0.027 0.295-0.188 0.134-0.188 0.442-0.094 0.522-0.268 0.201 0.054 0.054-0.201 0.161-0.348 0.094-0.121 0.254-0.121 0.375-0.188 0 0.013 0.335-0.188 0.228-0.201 0.228 0.027 0.683-0.214 0.335-0.415 0.054-0.121-0.121-0.174-0.241-0.201 0.094-0.027 0.214 0.027 0.295-0.027 0.174-0.121 0.054-0.174-0.094-0.214-0.188-0.054-0.429 0.067-0.576 0.161zM11.772 20.438c1.835-0.321 3.469-1.232 4.701-2.531-0.080-0.080-0.228-0.054-0.335-0.107-0.107-0.040-0.188-0.080-0.321-0.107 0.027-0.268-0.268-0.362-0.455-0.496-0.174-0.134-0.281-0.281-0.536-0.228-0.027 0.013-0.295 0.107-0.241 0.161-0.174-0.147-0.254-0.228-0.482-0.295-0.214-0.067-0.362-0.335-0.576-0.094-0.107 0.107-0.054 0.268-0.107 0.375-0.174-0.147 0.161-0.321 0.027-0.482-0.161-0.188-0.442 0.121-0.576 0.201-0.080 0.067-0.174 0.094-0.228 0.174-0.067 0.094-0.094 0.214-0.147 0.308-0.040-0.107-0.268-0.080-0.281-0.161 0.054 0.321 0.054 0.656 0.121 0.978 0.040 0.188 0 0.496-0.161 0.643s-0.362 0.308-0.388 0.536c-0.027 0.161 0.013 0.308 0.161 0.348 0.013 0.201-0.214 0.348-0.201 0.563 0 0.013 0.013 0.147 0.027 0.214z"></path>
</svg>
