<?xml version="1.0" encoding="utf-8"?>
<!-- Generated by IcoMoon.io -->
<!DOCTYPE svg PUBLIC "-//W3C//DTD SVG 1.1//EN" "http://www.w3.org/Graphics/SVG/1.1/DTD/svg11.dtd">
<svg version="1.1" xmlns="http://www.w3.org/2000/svg" xmlns:xlink="http://www.w3.org/1999/xlink" width="27" height="32" viewBox="0 0 27 32">
<path d="M13.714 2.286c7.571 0 13.714 6.143 13.714 13.714s-6.143 13.714-13.714 13.714-13.714-6.143-13.714-13.714 6.143-13.714 13.714-13.714zM18.607 11.589c-0.143 0.107-0.232 0.304-0.411 0.339 0.089-0.018 0.179-0.339 0.232-0.411 0.107-0.125 0.25-0.196 0.393-0.268 0.304-0.125 0.607-0.161 0.929-0.214 0.304-0.071 0.679-0.071 0.911 0.196-0.054-0.054 0.375-0.429 0.429-0.446 0.161-0.089 0.429-0.054 0.536-0.214 0.036-0.054 0.036-0.393 0.036-0.393-0.304 0.036-0.411-0.25-0.429-0.5 0 0.018-0.036 0.071-0.107 0.143 0.018-0.268-0.321-0.071-0.446-0.107-0.411-0.107-0.357-0.393-0.482-0.696-0.071-0.161-0.268-0.214-0.339-0.375-0.071-0.107-0.107-0.339-0.268-0.357-0.107-0.018-0.304 0.375-0.339 0.357-0.161-0.089-0.232 0.036-0.357 0.107-0.107 0.071-0.196 0.036-0.304 0.089 0.321-0.107-0.143-0.286-0.304-0.25 0.25-0.071 0.125-0.339-0.018-0.464h0.089c-0.036-0.161-0.536-0.304-0.696-0.411s-1.018-0.286-1.196-0.179c-0.214 0.125 0.054 0.482 0.054 0.661 0.018 0.214-0.214 0.268-0.214 0.446 0 0.304 0.571 0.25 0.429 0.661-0.089 0.25-0.429 0.304-0.571 0.5-0.143 0.179 0.018 0.5 0.161 0.625 0.143 0.107-0.25 0.286-0.304 0.321-0.304 0.143-0.536-0.304-0.607-0.571-0.054-0.196-0.071-0.429-0.286-0.536-0.107-0.036-0.446-0.089-0.518 0.018-0.107-0.268-0.482-0.375-0.732-0.464-0.357-0.125-0.661-0.125-1.036-0.071 0.125-0.018-0.036-0.571-0.339-0.482 0.089-0.179 0.054-0.375 0.089-0.554 0.036-0.143 0.107-0.286 0.214-0.411 0.036-0.071 0.429-0.482 0.304-0.5 0.304 0.036 0.643 0.054 0.893-0.196 0.161-0.161 0.232-0.429 0.393-0.607 0.232-0.268 0.518 0.071 0.768 0.089 0.357 0.018 0.339-0.375 0.143-0.554 0.232 0.018 0.036-0.411-0.089-0.464-0.161-0.054-0.768 0.107-0.446 0.232-0.071-0.036-0.5 0.857-0.75 0.411-0.071-0.089-0.107-0.464-0.268-0.482-0.143 0-0.232 0.161-0.286 0.268 0.089-0.232-0.5-0.393-0.625-0.411 0.268-0.179 0.054-0.375-0.143-0.482-0.143-0.089-0.589-0.161-0.714-0.018-0.339 0.411 0.357 0.464 0.536 0.571 0.054 0.036 0.268 0.161 0.143 0.25-0.107 0.054-0.429 0.143-0.464 0.214-0.107 0.161 0.125 0.339-0.036 0.5-0.161-0.161-0.161-0.429-0.286-0.607 0.161 0.196-0.643 0.089-0.625 0.089-0.268 0-0.696 0.179-0.893-0.089-0.036-0.071-0.036-0.482 0.071-0.393-0.161-0.125-0.268-0.25-0.375-0.321-0.589 0.196-1.143 0.446-1.679 0.732 0.071 0.018 0.125 0.018 0.214-0.018 0.143-0.054 0.268-0.143 0.411-0.214 0.179-0.071 0.554-0.286 0.75-0.125 0.018-0.036 0.071-0.071 0.089-0.089 0.125 0.143 0.25 0.286 0.357 0.446-0.143-0.071-0.375-0.036-0.536-0.018-0.125 0.036-0.339 0.071-0.393 0.214 0.054 0.089 0.125 0.232 0.089 0.321-0.232-0.161-0.411-0.429-0.732-0.464-0.143 0-0.286 0-0.393 0.018-1.714 0.946-3.161 2.321-4.196 3.964 0.071 0.071 0.143 0.125 0.214 0.143 0.179 0.054 0 0.571 0.339 0.304 0.107 0.089 0.125 0.214 0.054 0.339 0.018-0.018 0.732 0.446 0.786 0.482 0.125 0.107 0.321 0.232 0.375 0.375 0.036 0.125-0.071 0.268-0.179 0.321-0.018-0.036-0.286-0.304-0.321-0.232-0.054 0.089 0 0.571 0.196 0.554-0.286 0.018-0.161 1.125-0.232 1.339 0 0.018 0.036 0.018 0.036 0.018-0.054 0.214 0.125 1.054 0.482 0.964-0.232 0.054 0.411 0.875 0.5 0.929 0.232 0.161 0.5 0.268 0.661 0.5 0.179 0.25 0.179 0.625 0.429 0.821-0.071 0.214 0.375 0.464 0.357 0.768-0.036 0.018-0.054 0.018-0.089 0.036 0.089 0.25 0.429 0.25 0.554 0.482 0.071 0.143 0 0.482 0.232 0.411 0.036-0.393-0.232-0.786-0.429-1.107-0.107-0.179-0.214-0.339-0.304-0.518-0.089-0.161-0.107-0.357-0.179-0.536 0.071 0.018 0.464 0.161 0.429 0.214-0.143 0.357 0.571 0.982 0.768 1.214 0.054 0.054 0.464 0.589 0.25 0.589 0.232 0 0.554 0.357 0.661 0.536 0.161 0.268 0.125 0.607 0.232 0.893 0.107 0.357 0.607 0.518 0.893 0.679 0.25 0.125 0.464 0.304 0.714 0.393 0.375 0.143 0.464 0.018 0.786-0.036 0.464-0.071 0.518 0.446 0.893 0.643 0.232 0.125 0.732 0.304 0.982 0.196-0.107 0.036 0.375 0.768 0.411 0.821 0.161 0.214 0.464 0.321 0.643 0.536 0.054-0.036 0.107-0.089 0.125-0.161-0.071 0.196 0.268 0.571 0.446 0.536 0.196-0.036 0.25-0.429 0.25-0.571-0.357 0.179-0.679 0.036-0.875-0.321-0.036-0.089-0.321-0.589-0.071-0.589 0.339 0 0.107-0.268 0.071-0.518s-0.286-0.411-0.411-0.625c-0.107 0.214-0.464 0.161-0.571-0.018 0 0.054-0.054 0.143-0.054 0.214-0.089 0-0.179 0.018-0.268-0.018 0.036-0.214 0.054-0.482 0.107-0.714 0.089-0.321 0.679-0.946-0.089-0.911-0.268 0.018-0.375 0.125-0.464 0.357-0.089 0.214-0.054 0.411-0.304 0.518-0.161 0.071-0.696 0.036-0.857-0.054-0.339-0.196-0.571-0.821-0.571-1.179-0.018-0.482 0.232-0.911 0-1.357 0.107-0.089 0.214-0.268 0.339-0.357 0.107-0.071 0.232 0.054 0.286-0.161-0.054-0.036-0.125-0.107-0.143-0.107 0.268 0.125 0.768-0.179 1 0 0.143 0.107 0.304 0.143 0.393-0.036 0.018-0.054-0.125-0.268-0.054-0.411 0.054 0.304 0.25 0.357 0.518 0.161 0.107 0.107 0.393 0.071 0.589 0.179 0.196 0.125 0.232 0.321 0.464 0.054 0.143 0.214 0.161 0.214 0.214 0.429 0.054 0.196 0.161 0.696 0.339 0.786 0.375 0.232 0.286-0.393 0.25-0.607-0.018-0.018-0.018-0.607-0.036-0.607-0.571-0.125-0.357-0.571-0.036-0.875 0.054-0.036 0.464-0.179 0.643-0.321 0.161-0.143 0.357-0.393 0.268-0.625 0.089 0 0.161-0.071 0.196-0.161-0.054-0.018-0.268-0.196-0.304-0.179 0.125-0.071 0.107-0.179 0.036-0.286 0.179-0.107 0.089-0.304 0.268-0.375 0.196 0.268 0.589-0.036 0.393-0.25 0.179-0.25 0.589-0.125 0.696-0.357 0.268 0.071 0.071-0.268 0.214-0.464 0.125-0.161 0.339-0.161 0.5-0.25 0 0.018 0.446-0.25 0.304-0.268 0.304 0.036 0.911-0.286 0.446-0.554 0.071-0.161-0.161-0.232-0.321-0.268 0.125-0.036 0.286 0.036 0.393-0.036 0.232-0.161 0.071-0.232-0.125-0.286-0.25-0.071-0.571 0.089-0.768 0.214zM15.696 27.25c2.446-0.429 4.625-1.643 6.268-3.375-0.107-0.107-0.304-0.071-0.446-0.143-0.143-0.054-0.25-0.107-0.429-0.143 0.036-0.357-0.357-0.482-0.607-0.661-0.232-0.179-0.375-0.375-0.714-0.304-0.036 0.018-0.393 0.143-0.321 0.214-0.232-0.196-0.339-0.304-0.643-0.393-0.286-0.089-0.482-0.446-0.768-0.125-0.143 0.143-0.071 0.357-0.143 0.5-0.232-0.196 0.214-0.429 0.036-0.643-0.214-0.25-0.589 0.161-0.768 0.268-0.107 0.089-0.232 0.125-0.304 0.232-0.089 0.125-0.125 0.286-0.196 0.411-0.054-0.143-0.357-0.107-0.375-0.214 0.071 0.429 0.071 0.875 0.161 1.304 0.054 0.25 0 0.661-0.214 0.857s-0.482 0.411-0.518 0.714c-0.036 0.214 0.018 0.411 0.214 0.464 0.018 0.268-0.286 0.464-0.268 0.75 0 0.018 0.018 0.196 0.036 0.286z"></path>
</svg>
