<?xml version="1.0" encoding="utf-8"?>
<!-- Generated by IcoMoon.io -->
<!DOCTYPE svg PUBLIC "-//W3C//DTD SVG 1.1//EN" "http://www.w3.org/Graphics/SVG/1.1/DTD/svg11.dtd">
<svg version="1.1" xmlns="http://www.w3.org/2000/svg" xmlns:xlink="http://www.w3.org/1999/xlink" width="32" height="32" viewBox="0 0 32 32">
<path d="M17.696 18.286l1.143-4.571h-4.536l-1.143 4.571h4.536zM31.411 9.286l-1 4c-0.071 0.25-0.286 0.429-0.554 0.429h-5.839l-1.143 4.571h5.554c0.179 0 0.339 0.089 0.446 0.214 0.107 0.143 0.161 0.321 0.107 0.5l-1 4c-0.054 0.25-0.286 0.429-0.554 0.429h-5.839l-1.446 5.857c-0.071 0.25-0.304 0.429-0.554 0.429h-4c-0.179 0-0.357-0.089-0.464-0.214-0.107-0.143-0.143-0.321-0.107-0.5l1.393-5.571h-4.536l-1.446 5.857c-0.071 0.25-0.304 0.429-0.554 0.429h-4.018c-0.161 0-0.339-0.089-0.446-0.214-0.107-0.143-0.143-0.321-0.107-0.5l1.393-5.571h-5.554c-0.179 0-0.339-0.089-0.446-0.214-0.107-0.143-0.143-0.321-0.107-0.5l1-4c0.071-0.25 0.286-0.429 0.554-0.429h5.839l1.143-4.571h-5.554c-0.179 0-0.339-0.089-0.446-0.214-0.107-0.143-0.161-0.321-0.107-0.5l1-4c0.054-0.25 0.286-0.429 0.554-0.429h5.839l1.446-5.857c0.071-0.25 0.304-0.429 0.571-0.429h4c0.161 0 0.339 0.089 0.446 0.214 0.107 0.143 0.143 0.321 0.107 0.5l-1.393 5.571h4.536l1.446-5.857c0.071-0.25 0.304-0.429 0.571-0.429h4c0.161 0 0.339 0.089 0.446 0.214 0.107 0.143 0.143 0.321 0.107 0.5l-1.393 5.571h5.554c0.179 0 0.339 0.089 0.446 0.214 0.107 0.143 0.143 0.321 0.107 0.5z"></path>
</svg>
