<!-- Generated by IcoMoon.io -->
<svg version="1.1" xmlns="http://www.w3.org/2000/svg" width="24" height="24" viewBox="0 0 24 24">
<title>hashtag</title>
<path d="M13.272 13.714l0.857-3.429h-3.402l-0.857 3.429h3.402zM23.558 6.964l-0.75 3c-0.054 0.188-0.214 0.321-0.415 0.321h-4.379l-0.857 3.429h4.165c0.134 0 0.254 0.067 0.335 0.161 0.080 0.107 0.121 0.241 0.080 0.375l-0.75 3c-0.040 0.188-0.214 0.321-0.415 0.321h-4.379l-1.085 4.393c-0.054 0.188-0.228 0.321-0.415 0.321h-3c-0.134 0-0.268-0.067-0.348-0.161-0.080-0.107-0.107-0.241-0.080-0.375l1.045-4.179h-3.402l-1.085 4.393c-0.054 0.188-0.228 0.321-0.415 0.321h-3.013c-0.121 0-0.254-0.067-0.335-0.161-0.080-0.107-0.107-0.241-0.080-0.375l1.045-4.179h-4.165c-0.134 0-0.254-0.067-0.335-0.161-0.080-0.107-0.107-0.241-0.080-0.375l0.75-3c0.054-0.188 0.214-0.321 0.415-0.321h4.379l0.857-3.429h-4.165c-0.134 0-0.254-0.067-0.335-0.161-0.080-0.107-0.121-0.241-0.080-0.375l0.75-3c0.040-0.188 0.214-0.321 0.415-0.321h4.379l1.085-4.393c0.054-0.188 0.228-0.321 0.429-0.321h3c0.121 0 0.254 0.067 0.335 0.161 0.080 0.107 0.107 0.241 0.080 0.375l-1.045 4.179h3.402l1.085-4.393c0.054-0.188 0.228-0.321 0.429-0.321h3c0.121 0 0.254 0.067 0.335 0.161 0.080 0.107 0.107 0.241 0.080 0.375l-1.045 4.179h4.165c0.134 0 0.254 0.067 0.335 0.161 0.080 0.107 0.107 0.241 0.080 0.375z"></path>
</svg>
