<!-- Generated by IcoMoon.io -->
<svg version="1.1" xmlns="http://www.w3.org/2000/svg" width="24" height="24" viewBox="0 0 24 24">
<title>headphones</title>
<path d="M6.75 13.5h-1.5v10.5h1.5c0.413 0 0.75-0.337 0.75-0.75v-9c0-0.413-0.337-0.75-0.75-0.75z"></path>
<path d="M17.25 13.5c-0.413 0-0.75 0.337-0.75 0.75v9c0 0.413 0.337 0.75 0.75 0.75h1.5v-10.5h-1.5z"></path>
<path d="M24 12c0-6.627-5.373-12-12-12s-12 5.373-12 12c0 1.439 0.254 2.819 0.718 4.098-0.457 0.778-0.718 1.684-0.718 2.652 0 2.645 1.956 4.833 4.5 5.196v-10.393c-0.748 0.107-1.445 0.371-2.057 0.759-0.126-0.626-0.193-1.274-0.193-1.938 0-5.385 4.365-9.75 9.75-9.75s9.75 4.365 9.75 9.75c0 0.664-0.066 1.312-0.193 1.938-0.612-0.388-1.309-0.653-2.057-0.76v10.393c2.544-0.364 4.5-2.552 4.5-5.196 0-0.967-0.262-1.873-0.718-2.652 0.465-1.279 0.718-2.659 0.718-4.098z"></path>
</svg>
