<!-- Generated by IcoMoon.io -->
<svg version="1.1" xmlns="http://www.w3.org/2000/svg" width="27" height="24" viewBox="0 0 27 24">
<title>images</title>
<path d="M25.5 3h-1.5v-1.5c0-0.825-0.675-1.5-1.5-1.5h-21c-0.825 0-1.5 0.675-1.5 1.5v18c0 0.825 0.675 1.5 1.5 1.5h1.5v1.5c0 0.825 0.675 1.5 1.5 1.5h21c0.825 0 1.5-0.675 1.5-1.5v-18c0-0.825-0.675-1.5-1.5-1.5zM3 4.5v15h-1.497c-0.001-0.001-0.002-0.002-0.003-0.003v-17.995c0.001-0.001 0.002-0.002 0.003-0.003h20.995c0.001 0.001 0.002 0.002 0.003 0.003v1.497h-18c-0.825 0-1.5 0.675-1.5 1.5v0zM25.5 22.497c-0.001 0.001-0.002 0.002-0.003 0.003h-20.995c-0.001-0.001-0.002-0.002-0.003-0.003v-17.995c0.001-0.001 0.002-0.002 0.003-0.003h20.995c0.001 0.001 0.002 0.002 0.003 0.003v17.995z"></path>
<path d="M22.5 8.25c0 1.243-1.007 2.25-2.25 2.25s-2.25-1.007-2.25-2.25 1.007-2.25 2.25-2.25 2.25 1.007 2.25 2.25z"></path>
<path d="M24 21h-18v-3l5.25-9 6 7.5h1.5l5.25-4.5z"></path>
</svg>
