<!-- Generated by IcoMoon.io -->
<svg version="1.1" xmlns="http://www.w3.org/2000/svg" width="24" height="24" viewBox="0 0 24 24">
<title>key</title>
<path d="M16.5 0c-4.142 0-7.5 3.358-7.5 7.5 0 0.469 0.044 0.928 0.126 1.374l-9.126 9.126v4.5c0 0.828 0.672 1.5 1.5 1.5h1.5v-1.5h3v-3h3v-3h3l1.946-1.946c0.797 0.289 1.657 0.446 2.554 0.446 4.142 0 7.5-3.358 7.5-7.5s-3.358-7.5-7.5-7.5zM18.747 7.503c-1.243 0-2.25-1.007-2.25-2.25s1.007-2.25 2.25-2.25 2.25 1.007 2.25 2.25-1.007 2.25-2.25 2.25z"></path>
</svg>
