<!-- Generated by IcoMoon.io -->
<svg version="1.1" xmlns="http://www.w3.org/2000/svg" width="22" height="24" viewBox="0 0 22 24">
<title>link</title>
<path d="M19.5 17.143c0-0.348-0.134-0.67-0.375-0.911l-2.786-2.786c-0.241-0.241-0.576-0.375-0.911-0.375-0.388 0-0.696 0.147-0.964 0.429 0.442 0.442 0.964 0.817 0.964 1.5 0 0.71-0.576 1.286-1.286 1.286-0.683 0-1.058-0.522-1.5-0.964-0.281 0.268-0.442 0.576-0.442 0.978 0 0.335 0.134 0.67 0.375 0.911l2.759 2.772c0.241 0.241 0.576 0.362 0.911 0.362s0.67-0.121 0.911-0.348l1.969-1.955c0.241-0.241 0.375-0.563 0.375-0.897zM10.085 7.701c0-0.335-0.134-0.67-0.375-0.911l-2.759-2.772c-0.241-0.241-0.576-0.375-0.911-0.375s-0.67 0.134-0.911 0.362l-1.969 1.955c-0.241 0.241-0.375 0.563-0.375 0.897 0 0.348 0.134 0.67 0.375 0.911l2.786 2.786c0.241 0.241 0.576 0.362 0.911 0.362 0.388 0 0.696-0.134 0.964-0.415-0.442-0.442-0.964-0.817-0.964-1.5 0-0.71 0.576-1.286 1.286-1.286 0.683 0 1.058 0.522 1.5 0.964 0.281-0.268 0.442-0.576 0.442-0.978zM22.071 17.143c0 1.018-0.415 2.009-1.138 2.719l-1.969 1.955c-0.723 0.723-1.701 1.112-2.719 1.112-1.031 0-2.009-0.402-2.732-1.138l-2.759-2.772c-0.723-0.723-1.112-1.701-1.112-2.719 0-1.058 0.429-2.062 1.179-2.799l-1.179-1.179c-0.737 0.75-1.728 1.179-2.786 1.179-1.018 0-2.009-0.402-2.732-1.125l-2.786-2.786c-0.737-0.737-1.125-1.701-1.125-2.732 0-1.018 0.415-2.009 1.138-2.719l1.969-1.955c0.723-0.723 1.701-1.112 2.719-1.112 1.031 0 2.009 0.402 2.732 1.138l2.759 2.772c0.723 0.723 1.112 1.701 1.112 2.719 0 1.058-0.429 2.063-1.179 2.799l1.179 1.179c0.737-0.75 1.728-1.179 2.786-1.179 1.018 0 2.009 0.402 2.732 1.125l2.786 2.786c0.737 0.737 1.125 1.701 1.125 2.732z"></path>
</svg>
