<?xml version="1.0" encoding="utf-8"?>
<!-- Generated by IcoMoon.io -->
<!DOCTYPE svg PUBLIC "-//W3C//DTD SVG 1.1//EN" "http://www.w3.org/Graphics/SVG/1.1/DTD/svg11.dtd">
<svg version="1.1" xmlns="http://www.w3.org/2000/svg" xmlns:xlink="http://www.w3.org/1999/xlink" width="27" height="32" viewBox="0 0 27 32">
<path d="M4.232 25.25h4.125v-12.393h-4.125v12.393zM8.625 9.036c-0.018-1.214-0.893-2.143-2.304-2.143s-2.339 0.929-2.339 2.143c0 1.179 0.893 2.143 2.286 2.143h0.018c1.446 0 2.339-0.964 2.339-2.143zM19.071 25.25h4.125v-7.107c0-3.804-2.036-5.571-4.75-5.571-2.214 0-3.196 1.232-3.732 2.089h0.036v-1.804h-4.125s0.054 1.161 0 12.393v0h4.125v-6.929c0-0.357 0.018-0.732 0.125-1 0.304-0.732 0.982-1.5 2.125-1.5 1.482 0 2.071 1.125 2.071 2.804v6.625zM27.429 7.429v17.143c0 2.839-2.304 5.143-5.143 5.143h-17.143c-2.839 0-5.143-2.304-5.143-5.143v-17.143c0-2.839 2.304-5.143 5.143-5.143h17.143c2.839 0 5.143 2.304 5.143 5.143z"></path>
</svg>
