<!-- Generated by IcoMoon.io -->
<svg version="1.1" xmlns="http://www.w3.org/2000/svg" width="21" height="24" viewBox="0 0 21 24">
<title>linkedin</title>
<path d="M4.674 8.558v13.272h-4.42v-13.272h4.42zM4.955 4.46c0.013 1.272-0.951 2.29-2.491 2.29v0h-0.027c-1.487 0-2.438-1.018-2.438-2.29 0-1.299 0.991-2.29 2.491-2.29 1.513 0 2.451 0.991 2.464 2.29zM20.571 14.223v7.607h-4.406v-7.098c0-1.781-0.643-3-2.237-3-1.219 0-1.942 0.817-2.263 1.607-0.107 0.295-0.147 0.683-0.147 1.085v7.406h-4.406c0.054-12.027 0-13.272 0-13.272h4.406v1.929h-0.027c0.576-0.911 1.621-2.237 4.004-2.237 2.906 0 5.076 1.902 5.076 5.973z"></path>
</svg>
