<?xml version="1.0" encoding="utf-8"?>
<!-- Generated by IcoMoon.io -->
<!DOCTYPE svg PUBLIC "-//W3C//DTD SVG 1.1//EN" "http://www.w3.org/Graphics/SVG/1.1/DTD/svg11.dtd">
<svg version="1.1" xmlns="http://www.w3.org/2000/svg" xmlns:xlink="http://www.w3.org/1999/xlink" width="30" height="32" viewBox="0 0 30 32">
<path d="M26 22.857c0-0.464-0.179-0.893-0.5-1.214l-3.714-3.714c-0.321-0.321-0.768-0.5-1.214-0.5-0.518 0-0.929 0.196-1.286 0.571 0.589 0.589 1.286 1.089 1.286 2 0 0.946-0.768 1.714-1.714 1.714-0.911 0-1.411-0.696-2-1.286-0.375 0.357-0.589 0.768-0.589 1.304 0 0.446 0.179 0.893 0.5 1.214l3.679 3.696c0.321 0.321 0.768 0.482 1.214 0.482s0.893-0.161 1.214-0.464l2.625-2.607c0.321-0.321 0.5-0.75 0.5-1.196zM13.446 10.268c0-0.446-0.179-0.893-0.5-1.214l-3.679-3.696c-0.321-0.321-0.768-0.5-1.214-0.5s-0.893 0.179-1.214 0.482l-2.625 2.607c-0.321 0.321-0.5 0.75-0.5 1.196 0 0.464 0.179 0.893 0.5 1.214l3.714 3.714c0.321 0.321 0.768 0.482 1.214 0.482 0.518 0 0.929-0.179 1.286-0.554-0.589-0.589-1.286-1.089-1.286-2 0-0.946 0.768-1.714 1.714-1.714 0.911 0 1.411 0.696 2 1.286 0.375-0.357 0.589-0.768 0.589-1.304zM29.429 22.857c0 1.357-0.554 2.679-1.518 3.625l-2.625 2.607c-0.964 0.964-2.268 1.482-3.625 1.482-1.375 0-2.679-0.536-3.643-1.518l-3.679-3.696c-0.964-0.964-1.482-2.268-1.482-3.625 0-1.411 0.571-2.75 1.571-3.732l-1.571-1.571c-0.982 1-2.304 1.571-3.714 1.571-1.357 0-2.679-0.536-3.643-1.5l-3.714-3.714c-0.982-0.982-1.5-2.268-1.5-3.643 0-1.357 0.554-2.679 1.518-3.625l2.625-2.607c0.964-0.964 2.268-1.482 3.625-1.482 1.375 0 2.679 0.536 3.643 1.518l3.679 3.696c0.964 0.964 1.482 2.268 1.482 3.625 0 1.411-0.571 2.75-1.571 3.732l1.571 1.571c0.982-1 2.304-1.571 3.714-1.571 1.357 0 2.679 0.536 3.643 1.5l3.714 3.714c0.982 0.982 1.5 2.268 1.5 3.643z"></path>
</svg>
