<?xml version="1.0" encoding="utf-8"?>
<!-- Generated by IcoMoon.io -->
<!DOCTYPE svg PUBLIC "-//W3C//DTD SVG 1.1//EN" "http://www.w3.org/Graphics/SVG/1.1/DTD/svg11.dtd">
<svg version="1.1" xmlns="http://www.w3.org/2000/svg" xmlns:xlink="http://www.w3.org/1999/xlink" width="32" height="32" viewBox="0 0 32 32">
<path d="M11.429 19.321v1.25c0 0.464-0.286 0.875-0.696 1.054-0.143 0.054-0.304 0.089-0.446 0.089-0.304 0-0.589-0.107-0.804-0.339l-9.143-9.143c-0.446-0.446-0.446-1.161 0-1.607l9.143-9.143c0.321-0.339 0.821-0.429 1.25-0.25 0.411 0.179 0.696 0.589 0.696 1.054v1.232l-7.089 7.107c-0.446 0.446-0.446 1.161 0 1.607zM32 20c0 3.714-2.804 9.179-2.929 9.411-0.089 0.196-0.286 0.304-0.5 0.304-0.054 0-0.107 0-0.161-0.018-0.268-0.089-0.429-0.339-0.411-0.607 0.518-4.875-0.089-8.089-1.893-10.089-1.518-1.696-3.982-2.607-7.821-2.911v4.482c0 0.464-0.286 0.875-0.696 1.054-0.143 0.054-0.304 0.089-0.446 0.089-0.304 0-0.589-0.107-0.804-0.339l-9.143-9.143c-0.446-0.446-0.446-1.161 0-1.607l9.143-9.143c0.321-0.339 0.821-0.429 1.25-0.25 0.411 0.179 0.696 0.589 0.696 1.054v4.679c4.929 0.339 8.446 1.643 10.696 3.946 2.696 2.768 3.018 6.518 3.018 9.089z"></path>
</svg>
