<?xml version="1.0" encoding="utf-8"?>
<!-- Generated by IcoMoon.io -->
<!DOCTYPE svg PUBLIC "-//W3C//DTD SVG 1.1//EN" "http://www.w3.org/Graphics/SVG/1.1/DTD/svg11.dtd">
<svg version="1.1" xmlns="http://www.w3.org/2000/svg" xmlns:xlink="http://www.w3.org/1999/xlink" width="32" height="32" viewBox="0 0 32 32">
<path d="M32 20.571c0 2.5-1.25 5.768-2.268 8.054-0.196 0.411-0.393 0.982-0.661 1.357-0.125 0.179-0.25 0.304-0.5 0.304-0.357 0-0.571-0.286-0.571-0.625 0-0.286 0.071-0.607 0.089-0.893 0.054-0.732 0.089-1.464 0.089-2.196 0-8.518-5.054-10-12.75-10h-4v4.571c0 0.625-0.518 1.143-1.143 1.143-0.304 0-0.589-0.125-0.804-0.339l-9.143-9.143c-0.214-0.214-0.339-0.5-0.339-0.804s0.125-0.589 0.339-0.804l9.143-9.143c0.214-0.214 0.5-0.339 0.804-0.339 0.625 0 1.143 0.518 1.143 1.143v4.571h4c5.857 0 13.143 1.036 15.625 7.196 0.75 1.893 0.946 3.946 0.946 5.946z"></path>
</svg>
