<?xml version="1.0" encoding="utf-8"?>
<!-- Generated by IcoMoon.io -->
<!DOCTYPE svg PUBLIC "-//W3C//DTD SVG 1.1//EN" "http://www.w3.org/Graphics/SVG/1.1/DTD/svg11.dtd">
<svg version="1.1" xmlns="http://www.w3.org/2000/svg" xmlns:xlink="http://www.w3.org/1999/xlink" width="32" height="32" viewBox="0 0 32 32">
<path d="M32 12c0 0.304-0.125 0.589-0.339 0.804l-9.143 9.143c-0.214 0.214-0.5 0.339-0.804 0.339-0.625 0-1.143-0.518-1.143-1.143v-4.571h-4c-7.696 0-12.75 1.482-12.75 10 0 0.732 0.036 1.464 0.089 2.196 0.018 0.286 0.089 0.607 0.089 0.893 0 0.339-0.214 0.625-0.571 0.625-0.25 0-0.375-0.125-0.5-0.304-0.268-0.375-0.464-0.946-0.661-1.357-1.018-2.286-2.268-5.554-2.268-8.054 0-2 0.196-4.054 0.946-5.946 2.482-6.161 9.768-7.196 15.625-7.196h4v-4.571c0-0.625 0.518-1.143 1.143-1.143 0.304 0 0.589 0.125 0.804 0.339l9.143 9.143c0.214 0.214 0.339 0.5 0.339 0.804z"></path>
</svg>
