<!-- Generated by IcoMoon.io -->
<svg version="1.1" xmlns="http://www.w3.org/2000/svg" width="24" height="24" viewBox="0 0 24 24">
<title>mail-forward</title>
<path d="M24 9c0 0.228-0.094 0.442-0.254 0.603l-6.857 6.857c-0.161 0.161-0.375 0.254-0.603 0.254-0.469 0-0.857-0.388-0.857-0.857v-3.429h-3c-5.772 0-9.563 1.112-9.563 7.5 0 0.549 0.027 1.098 0.067 1.647 0.013 0.214 0.067 0.455 0.067 0.67 0 0.254-0.161 0.469-0.429 0.469-0.188 0-0.281-0.094-0.375-0.228-0.201-0.281-0.348-0.71-0.496-1.018-0.763-1.714-1.701-4.165-1.701-6.040 0-1.5 0.147-3.040 0.71-4.46 1.862-4.621 7.326-5.397 11.719-5.397h3v-3.429c0-0.469 0.388-0.857 0.857-0.857 0.228 0 0.442 0.094 0.603 0.254l6.857 6.857c0.161 0.161 0.254 0.375 0.254 0.603z"></path>
</svg>
