<!-- Generated by IcoMoon.io -->
<svg version="1.1" xmlns="http://www.w3.org/2000/svg" width="24" height="24" viewBox="0 0 24 24">
<title>opera</title>
<path d="M24 12v0 0c0 3.553-1.547 6.75-4.003 8.944-3.080 1.5-5.948 0.45-6.895-0.206 3.023-0.661 5.306-4.317 5.306-8.738s-2.283-8.077-5.306-8.742c0.952-0.656 3.82-1.706 6.895-0.206 2.456 2.198 4.003 5.395 4.003 8.948v0 0z"></path>
<path d="M8.048 5.236c-1.327 1.566-2.184 3.881-2.241 6.483 0 0.005 0 0.558 0 0.567 0.056 2.597 0.919 4.912 2.245 6.478 1.72 2.236 4.28 3.652 7.139 3.652 1.758 0 3.403-0.534 4.809-1.467-2.128 1.898-4.931 3.052-8.002 3.052-0.192 0-0.384-0.005-0.572-0.014-6.361-0.3-11.428-5.55-11.428-11.986 0-6.628 5.372-12 12-12 0.014 0 0.028 0 0.047 0 3.056 0.009 5.841 1.163 7.955 3.056-1.406-0.933-3.052-1.472-4.809-1.472-2.859 0-5.419 1.416-7.144 3.652z"></path>
</svg>
