<?xml version="1.0" encoding="utf-8"?>
<!-- Generated by IcoMoon.io -->
<!DOCTYPE svg PUBLIC "-//W3C//DTD SVG 1.1//EN" "http://www.w3.org/Graphics/SVG/1.1/DTD/svg11.dtd">
<svg version="1.1" xmlns="http://www.w3.org/2000/svg" xmlns:xlink="http://www.w3.org/1999/xlink" width="25" height="32" viewBox="0 0 25 32">
<path d="M25.071 24.732c0 2.786-2.125 4.911-4.911 4.911-1.571 0-3.089-0.679-4.196-1.786l-13.875-13.857c-1.268-1.286-2.018-3.036-2.018-4.839 0-3.786 2.982-6.804 6.768-6.804 1.821 0 3.571 0.732 4.875 2.018l10.804 10.821c0.107 0.107 0.179 0.25 0.179 0.393 0 0.375-1 1.375-1.375 1.375-0.161 0-0.304-0.071-0.411-0.179l-10.821-10.839c-0.857-0.839-2.018-1.375-3.232-1.375-2.536 0-4.5 2.054-4.5 4.571 0 1.214 0.5 2.375 1.357 3.232l13.857 13.875c0.679 0.679 1.625 1.125 2.589 1.125 1.518 0 2.643-1.125 2.643-2.643 0-0.982-0.446-1.911-1.125-2.589l-10.375-10.375c-0.286-0.268-0.679-0.429-1.071-0.429-0.679 0-1.196 0.5-1.196 1.196 0 0.393 0.179 0.768 0.446 1.054l7.321 7.321c0.107 0.107 0.179 0.25 0.179 0.393 0 0.375-1.018 1.393-1.393 1.393-0.143 0-0.286-0.071-0.393-0.179l-7.321-7.321c-0.714-0.696-1.125-1.679-1.125-2.661 0-1.964 1.536-3.5 3.5-3.5 1 0 1.964 0.411 2.661 1.125l10.375 10.375c1.125 1.107 1.786 2.625 1.786 4.196z"></path>
</svg>
