<?xml version="1.0" encoding="utf-8"?>
<!-- Generated by IcoMoon.io -->
<!DOCTYPE svg PUBLIC "-//W3C//DTD SVG 1.1//EN" "http://www.w3.org/Graphics/SVG/1.1/DTD/svg11.dtd">
<svg version="1.1" xmlns="http://www.w3.org/2000/svg" xmlns:xlink="http://www.w3.org/1999/xlink" width="32" height="32" viewBox="0 0 32 32">
<path d="M31.5 0.232c0.375 0.268 0.554 0.696 0.482 1.143l-4.571 27.429c-0.054 0.339-0.268 0.625-0.571 0.804-0.161 0.089-0.357 0.143-0.554 0.143-0.143 0-0.286-0.036-0.429-0.089l-9.411-3.839-5.321 5.839c-0.214 0.25-0.518 0.375-0.839 0.375-0.143 0-0.286-0.018-0.411-0.071-0.446-0.179-0.732-0.607-0.732-1.071v-8.071l-8.429-3.446c-0.411-0.161-0.679-0.536-0.714-0.982-0.036-0.429 0.196-0.839 0.571-1.054l29.714-17.143c0.375-0.232 0.857-0.214 1.214 0.036zM25.393 27l3.946-23.625-25.607 14.768 6 2.446 15.411-11.411-8.536 14.232z"></path>
</svg>
