<!-- Generated by IcoMoon.io -->
<svg version="1.1" xmlns="http://www.w3.org/2000/svg" width="24" height="24" viewBox="0 0 24 24">
<title>pinterest-o</title>
<path d="M12 0c-6.619 0-12 5.381-12 12s5.381 12 12 12 12-5.381 12-12-5.381-12-12-12zM12 22.397c-1.073 0-2.105-0.164-3.080-0.464 0.422-0.689 1.059-1.823 1.294-2.723 0.127-0.488 0.647-2.47 0.647-2.47 0.338 0.647 1.331 1.195 2.381 1.195 3.136 0 5.395-2.883 5.395-6.469 0-3.436-2.803-6.005-6.408-6.005-4.486 0-6.867 3.014-6.867 6.291 0 1.523 0.811 3.422 2.109 4.027 0.197 0.094 0.3 0.052 0.347-0.141 0.033-0.145 0.211-0.848 0.291-1.181 0.023-0.103 0.014-0.197-0.070-0.3-0.431-0.52-0.773-1.481-0.773-2.372 0-2.292 1.734-4.514 4.692-4.514 2.555 0 4.341 1.739 4.341 4.228 0 2.813-1.42 4.763-3.267 4.763-1.022 0-1.786-0.844-1.538-1.88 0.295-1.237 0.862-2.569 0.862-3.459 0-0.797-0.427-1.463-1.317-1.463-1.045 0-1.88 1.078-1.88 2.527 0 0.919 0.309 1.542 0.309 1.542s-1.031 4.355-1.219 5.166c-0.211 0.9-0.127 2.161-0.038 2.981-3.867-1.509-6.609-5.269-6.609-9.675 0-5.742 4.655-10.397 10.397-10.397s10.397 4.655 10.397 10.397c0 5.742-4.655 10.397-10.397 10.397z"></path>
</svg>
