<!-- Generated by IcoMoon.io -->
<svg version="1.1" xmlns="http://www.w3.org/2000/svg" width="24" height="24" viewBox="0 0 24 24">
<title>pinterest</title>
<path d="M12 1.601c-5.742 0-10.397 4.655-10.397 10.397 0 4.406 2.742 8.166 6.609 9.68-0.089-0.82-0.173-2.086 0.038-2.981 0.188-0.811 1.219-5.166 1.219-5.166s-0.309-0.623-0.309-1.542c0-1.444 0.839-2.527 1.88-2.527 0.886 0 1.317 0.666 1.317 1.463 0 0.891-0.567 2.227-0.863 3.459-0.248 1.036 0.516 1.88 1.537 1.88 1.847 0 3.267-1.95 3.267-4.762 0-2.489-1.791-4.228-4.341-4.228-2.958 0-4.692 2.217-4.692 4.514 0 0.895 0.342 1.852 0.773 2.372 0.084 0.103 0.098 0.192 0.070 0.3-0.080 0.328-0.253 1.036-0.291 1.181-0.047 0.192-0.15 0.23-0.347 0.141-1.298-0.605-2.109-2.503-2.109-4.027 0-3.281 2.381-6.291 6.867-6.291 3.605 0 6.408 2.569 6.408 6.005 0 3.581-2.259 6.469-5.395 6.469-1.055 0-2.044-0.548-2.381-1.195 0 0-0.52 1.983-0.647 2.47-0.234 0.905-0.867 2.034-1.294 2.723 0.975 0.3 2.006 0.464 3.080 0.464 5.742 0 10.397-4.655 10.397-10.397 0-5.747-4.655-10.402-10.397-10.402z"></path>
</svg>
