<!-- Generated by IcoMoon.io -->
<svg version="1.1" xmlns="http://www.w3.org/2000/svg" width="21" height="24" viewBox="0 0 21 24">
<title>question-circle</title>
<path d="M12 18.429v-2.571c0-0.241-0.188-0.429-0.429-0.429h-2.571c-0.241 0-0.429 0.188-0.429 0.429v2.571c0 0.241 0.188 0.429 0.429 0.429h2.571c0.241 0 0.429-0.188 0.429-0.429zM15.429 9.429c0-2.451-2.571-4.286-4.875-4.286-2.183 0-3.817 0.937-4.969 2.853-0.121 0.188-0.067 0.429 0.107 0.563l1.768 1.339c0.067 0.054 0.161 0.080 0.254 0.080 0.121 0 0.254-0.054 0.335-0.161 0.629-0.804 0.897-1.045 1.152-1.232 0.228-0.161 0.67-0.321 1.152-0.321 0.857 0 1.647 0.549 1.647 1.138 0 0.696-0.362 1.045-1.179 1.42-0.951 0.429-2.25 1.54-2.25 2.839v0.482c0 0.241 0.188 0.429 0.429 0.429h2.571c0.241 0 0.429-0.188 0.429-0.429v0c0-0.308 0.388-0.964 1.018-1.326 1.018-0.576 2.411-1.353 2.411-3.388zM20.571 12c0 5.679-4.607 10.286-10.286 10.286s-10.286-4.607-10.286-10.286 4.607-10.286 10.286-10.286 10.286 4.607 10.286 10.286z"></path>
</svg>
