<!-- Generated by IcoMoon.io -->
<svg version="1.1" xmlns="http://www.w3.org/2000/svg" width="21" height="24" viewBox="0 0 21 24">
<title>question-circle-o</title>
<path d="M11.786 16.071v2.143c0 0.241-0.188 0.429-0.429 0.429h-2.143c-0.241 0-0.429-0.188-0.429-0.429v-2.143c0-0.241 0.188-0.429 0.429-0.429h2.143c0.241 0 0.429 0.188 0.429 0.429zM15.214 9.429c0 1.902-1.326 2.652-2.304 3.201-0.696 0.402-1.125 0.656-1.125 1.085v0.429c0 0.241-0.188 0.429-0.429 0.429h-2.143c-0.241 0-0.429-0.188-0.429-0.429v-0.911c0-1.647 1.179-2.17 2.129-2.598 0.804-0.375 1.299-0.629 1.299-1.232 0-0.777-0.978-1.353-1.862-1.353-0.469 0-0.964 0.147-1.272 0.362-0.295 0.201-0.576 0.496-1.071 1.112-0.080 0.107-0.201 0.161-0.335 0.161-0.094 0-0.188-0.027-0.254-0.080l-1.446-1.098c-0.174-0.134-0.214-0.388-0.094-0.576 1.098-1.728 2.638-2.571 4.674-2.571v0c2.196 0 4.661 1.741 4.661 4.071zM10.286 3.429c-4.728 0-8.571 3.844-8.571 8.571s3.844 8.571 8.571 8.571 8.571-3.844 8.571-8.571-3.844-8.571-8.571-8.571zM20.571 12c0 5.679-4.607 10.286-10.286 10.286s-10.286-4.607-10.286-10.286 4.607-10.286 10.286-10.286v0c5.679 0 10.286 4.607 10.286 10.286z"></path>
</svg>
