<?xml version="1.0" encoding="utf-8"?>
<!-- Generated by IcoMoon.io -->
<!DOCTYPE svg PUBLIC "-//W3C//DTD SVG 1.1//EN" "http://www.w3.org/Graphics/SVG/1.1/DTD/svg11.dtd">
<svg version="1.1" xmlns="http://www.w3.org/2000/svg" xmlns:xlink="http://www.w3.org/1999/xlink" width="27" height="32" viewBox="0 0 27 32">
<path d="M16 24.571v-3.429c0-0.321-0.25-0.571-0.571-0.571h-3.429c-0.321 0-0.571 0.25-0.571 0.571v3.429c0 0.321 0.25 0.571 0.571 0.571h3.429c0.321 0 0.571-0.25 0.571-0.571zM20.571 12.571c0-3.268-3.429-5.714-6.5-5.714-2.911 0-5.089 1.25-6.625 3.804-0.161 0.25-0.089 0.571 0.143 0.75l2.357 1.786c0.089 0.071 0.214 0.107 0.339 0.107 0.161 0 0.339-0.071 0.446-0.214 0.839-1.071 1.196-1.393 1.536-1.643 0.304-0.214 0.893-0.429 1.536-0.429 1.143 0 2.196 0.732 2.196 1.518 0 0.929-0.482 1.393-1.571 1.893-1.268 0.571-3 2.054-3 3.786v0.643c0 0.321 0.25 0.571 0.571 0.571h3.429c0.321 0 0.571-0.25 0.571-0.571v0c0-0.411 0.518-1.286 1.357-1.768 1.357-0.768 3.214-1.804 3.214-4.518zM27.429 16c0 7.571-6.143 13.714-13.714 13.714s-13.714-6.143-13.714-13.714 6.143-13.714 13.714-13.714 13.714 6.143 13.714 13.714z"></path>
</svg>
