<?xml version="1.0" encoding="utf-8"?>
<!-- Generated by IcoMoon.io -->
<!DOCTYPE svg PUBLIC "-//W3C//DTD SVG 1.1//EN" "http://www.w3.org/Graphics/SVG/1.1/DTD/svg11.dtd">
<svg version="1.1" xmlns="http://www.w3.org/2000/svg" xmlns:xlink="http://www.w3.org/1999/xlink" width="27" height="32" viewBox="0 0 27 32">
<path d="M15.714 21.429v2.857c0 0.321-0.25 0.571-0.571 0.571h-2.857c-0.321 0-0.571-0.25-0.571-0.571v-2.857c0-0.321 0.25-0.571 0.571-0.571h2.857c0.321 0 0.571 0.25 0.571 0.571zM20.286 12.571c0 2.536-1.768 3.536-3.071 4.268-0.929 0.536-1.5 0.875-1.5 1.446v0.571c0 0.321-0.25 0.571-0.571 0.571h-2.857c-0.321 0-0.571-0.25-0.571-0.571v-1.214c0-2.196 1.571-2.893 2.839-3.464 1.071-0.5 1.732-0.839 1.732-1.643 0-1.036-1.304-1.804-2.482-1.804-0.625 0-1.286 0.196-1.696 0.482-0.393 0.268-0.768 0.661-1.429 1.482-0.107 0.143-0.268 0.214-0.446 0.214-0.125 0-0.25-0.036-0.339-0.107l-1.929-1.464c-0.232-0.179-0.286-0.518-0.125-0.768 1.464-2.304 3.518-3.429 6.232-3.429v0c2.929 0 6.214 2.321 6.214 5.429zM13.714 4.571c-6.304 0-11.429 5.125-11.429 11.429s5.125 11.429 11.429 11.429 11.429-5.125 11.429-11.429-5.125-11.429-11.429-11.429zM27.429 16c0 7.571-6.143 13.714-13.714 13.714s-13.714-6.143-13.714-13.714 6.143-13.714 13.714-13.714v0c7.571 0 13.714 6.143 13.714 13.714z"></path>
</svg>
