<?xml version="1.0" encoding="utf-8"?>
<!-- Generated by IcoMoon.io -->
<!DOCTYPE svg PUBLIC "-//W3C//DTD SVG 1.1//EN" "http://www.w3.org/Graphics/SVG/1.1/DTD/svg11.dtd">
<svg version="1.1" xmlns="http://www.w3.org/2000/svg" xmlns:xlink="http://www.w3.org/1999/xlink" width="32" height="32" viewBox="0 0 32 32">
<path d="M18.607 12.554c0-1.036-0.357-1.768-1.071-2.161-0.357-0.196-0.857-0.321-2.089-0.321h-2.196v5.018h2.893c1.571 0 2.464-0.929 2.464-2.536zM19.536 17.643l3.661 6.661c0.089 0.179 0.089 0.393-0.018 0.554-0.089 0.179-0.286 0.286-0.482 0.286h-2.714c-0.214 0-0.411-0.107-0.5-0.304l-3.464-6.518h-2.768v6.25c0 0.321-0.25 0.571-0.571 0.571h-2.393c-0.321 0-0.571-0.25-0.571-0.571v-17.143c0-0.321 0.25-0.571 0.571-0.571h5.25c1.875 0 2.696 0.161 3.393 0.429 2.018 0.75 3.268 2.732 3.268 5.161 0 2.196-1.089 4.054-2.821 4.911 0.054 0.089 0.107 0.179 0.161 0.286zM16 2.857c-7.25 0-13.143 5.893-13.143 13.143s5.893 13.143 13.143 13.143 13.143-5.893 13.143-13.143-5.893-13.143-13.143-13.143zM32 16c0 8.839-7.161 16-16 16s-16-7.161-16-16 7.161-16 16-16v0c8.839 0 16 7.161 16 16z"></path>
</svg>
