<!-- Generated by IcoMoon.io -->
<svg version="1.1" xmlns="http://www.w3.org/2000/svg" width="24" height="24" viewBox="0 0 24 24">
<title>registered</title>
<path d="M13.955 9.415c0-0.777-0.268-1.326-0.804-1.621-0.268-0.147-0.643-0.241-1.567-0.241h-1.647v3.763h2.17c1.179 0 1.848-0.696 1.848-1.902zM14.652 13.232l2.746 4.996c0.067 0.134 0.067 0.295-0.013 0.415-0.067 0.134-0.214 0.214-0.362 0.214h-2.036c-0.161 0-0.308-0.080-0.375-0.228l-2.598-4.888h-2.076v4.688c0 0.241-0.188 0.429-0.429 0.429h-1.795c-0.241 0-0.429-0.188-0.429-0.429v-12.857c0-0.241 0.188-0.429 0.429-0.429h3.937c1.406 0 2.022 0.121 2.545 0.321 1.513 0.563 2.451 2.049 2.451 3.871 0 1.647-0.817 3.040-2.116 3.683 0.040 0.067 0.080 0.134 0.121 0.214zM12 2.143c-5.438 0-9.857 4.42-9.857 9.857s4.42 9.857 9.857 9.857 9.857-4.42 9.857-9.857-4.42-9.857-9.857-9.857zM24 12c0 6.629-5.371 12-12 12s-12-5.371-12-12 5.371-12 12-12v0c6.629 0 12 5.371 12 12z"></path>
</svg>
