<?xml version="1.0" encoding="utf-8"?>
<!-- Generated by IcoMoon.io -->
<!DOCTYPE svg PUBLIC "-//W3C//DTD SVG 1.1//EN" "http://www.w3.org/Graphics/SVG/1.1/DTD/svg11.dtd">
<svg version="1.1" xmlns="http://www.w3.org/2000/svg" xmlns:xlink="http://www.w3.org/1999/xlink" width="27" height="32" viewBox="0 0 27 32">
<path d="M27.428 16c0 7.554-6.161 13.714-13.714 13.714-4.089 0-7.946-1.804-10.554-4.946-0.179-0.232-0.161-0.571 0.036-0.768l2.446-2.464c0.125-0.107 0.286-0.161 0.446-0.161 0.161 0.018 0.321 0.089 0.411 0.214 1.75 2.268 4.375 3.554 7.214 3.554 5.036 0 9.143-4.107 9.143-9.143s-4.107-9.143-9.143-9.143c-2.339 0-4.554 0.893-6.214 2.446l2.446 2.464c0.339 0.321 0.429 0.821 0.25 1.232-0.179 0.429-0.589 0.714-1.054 0.714h-8c-0.625 0-1.143-0.518-1.143-1.143v-8c0-0.464 0.286-0.875 0.714-1.054 0.411-0.179 0.911-0.089 1.232 0.25l2.321 2.304c2.518-2.375 5.929-3.786 9.446-3.786 7.554 0 13.714 6.161 13.714 13.714z"></path>
</svg>
