<!-- Generated by IcoMoon.io -->
<svg version="1.1" xmlns="http://www.w3.org/2000/svg" width="24" height="24" viewBox="0 0 24 24">
<title>safari</title>
<path d="M12 0c-6.628 0-12 5.372-12 12s5.372 12 12 12 12-5.372 12-12-5.372-12-12-12zM22.462 11.081l-0.023-0.248c0.005 0.084 0.014 0.164 0.023 0.248zM20.822 6.3l-0.169-0.253c0.056 0.084 0.112 0.169 0.169 0.253zM20.17 5.405l-0.103-0.127c0.037 0.042 0.070 0.084 0.103 0.127zM18.717 3.928l-0.127-0.103c0.047 0.038 0.084 0.070 0.127 0.103zM17.953 3.347l-0.253-0.169c0.084 0.056 0.169 0.113 0.253 0.169zM13.167 1.566l-0.253-0.023c0.084 0.005 0.169 0.014 0.253 0.023zM11.081 1.537l-0.253 0.023c0.084-0.005 0.169-0.014 0.253-0.023zM6.3 3.178l-0.253 0.169c0.084-0.056 0.169-0.113 0.253-0.169zM5.405 3.83l-0.122 0.098c0.042-0.033 0.080-0.066 0.122-0.098zM3.928 5.283l-0.103 0.127c0.038-0.042 0.070-0.084 0.103-0.127zM3.347 6.047l-0.169 0.253c0.056-0.084 0.113-0.169 0.169-0.253zM1.566 10.833l-0.023 0.253c0.005-0.084 0.014-0.169 0.023-0.253zM1.537 12.919l0.023 0.253c-0.005-0.084-0.014-0.169-0.023-0.253zM3.178 17.695l0.169 0.253c-0.056-0.080-0.113-0.164-0.169-0.253zM3.375 17.991l1.87-1.252-0.206-0.314-1.87 1.252c-0.848-1.317-1.406-2.831-1.594-4.463l1.12-0.112-0.037-0.375-1.12 0.112c-0.019-0.216-0.028-0.436-0.033-0.656h2.25v-0.375h-2.25c0.005-0.22 0.014-0.436 0.033-0.656l1.12 0.108 0.037-0.375-1.12-0.108c0.188-1.631 0.75-3.145 1.598-4.462l1.87 1.252 0.206-0.314-1.875-1.242c0.127-0.178 0.253-0.356 0.389-0.525l0.867 0.713 0.239-0.291-0.867-0.713c0.141-0.169 0.291-0.328 0.441-0.487l1.589 1.589 0.267-0.267-1.589-1.589c0.159-0.15 0.319-0.3 0.483-0.441l0.712 0.872 0.291-0.239-0.713-0.867c0.173-0.136 0.347-0.267 0.525-0.394l1.252 1.87 0.314-0.206-1.252-1.87c1.317-0.848 2.831-1.406 4.463-1.594l0.112 1.12 0.375-0.037-0.112-1.12c0.216-0.019 0.436-0.028 0.656-0.033v2.25h0.375v-2.25c0.22 0.005 0.436 0.014 0.656 0.033l-0.108 1.12 0.375 0.037 0.108-1.12c1.631 0.188 3.145 0.75 4.462 1.598l-1.252 1.87 0.314 0.206 1.252-1.87c0.178 0.127 0.356 0.253 0.525 0.389l-0.713 0.867 0.291 0.239 0.712-0.867c0.169 0.141 0.328 0.291 0.487 0.441l-0.6 0.586-8.203 5.47-5.47 8.203-0.586 0.586c-0.15-0.159-0.3-0.319-0.441-0.483l0.867-0.712-0.239-0.291-0.867 0.712c-0.136-0.169-0.262-0.347-0.389-0.525zM3.928 18.717c-0.033-0.042-0.066-0.080-0.098-0.122l0.098 0.122zM5.283 20.072l0.122 0.098c-0.042-0.033-0.080-0.066-0.122-0.098zM6.047 20.648l0.253 0.169c-0.084-0.052-0.169-0.108-0.253-0.169zM10.833 22.434l0.253 0.023c-0.084-0.005-0.169-0.014-0.253-0.023zM12.919 22.462l0.248-0.023c-0.084 0.005-0.164 0.014-0.248 0.023zM17.7 20.822l0.253-0.169c-0.084 0.056-0.169 0.112-0.253 0.169zM18.595 20.17l0.127-0.103c-0.042 0.037-0.084 0.070-0.127 0.103zM19.416 19.434l0.019-0.019c-0.005 0.005-0.014 0.014-0.019 0.019zM20.072 18.717l0.103-0.127c-0.037 0.042-0.070 0.084-0.103 0.127zM20.236 18.516l-0.867-0.712-0.239 0.291 0.867 0.712c-0.141 0.169-0.291 0.328-0.441 0.488l-1.589-1.589-0.267 0.267 1.589 1.589c-0.159 0.15-0.319 0.3-0.483 0.441l-0.712-0.872-0.291 0.239 0.712 0.867c-0.173 0.136-0.347 0.267-0.525 0.394l-1.252-1.87-0.314 0.206 1.252 1.87c-1.317 0.848-2.831 1.406-4.463 1.594l-0.112-1.12-0.375 0.038 0.112 1.12c-0.216 0.019-0.436 0.028-0.656 0.033v-2.25h-0.375v2.25c-0.22-0.005-0.436-0.014-0.656-0.033l0.108-1.12-0.375-0.038-0.108 1.12c-1.631-0.188-3.145-0.75-4.462-1.598l1.252-1.87-0.314-0.206-1.242 1.87c-0.178-0.127-0.356-0.253-0.525-0.389l0.713-0.867-0.291-0.239-0.713 0.867c-0.169-0.141-0.328-0.291-0.487-0.441l0.591-0.586 8.203-5.47 5.47-8.203 0.586-0.586c0.15 0.159 0.3 0.319 0.441 0.483l-0.867 0.713 0.239 0.291 0.867-0.713c0.136 0.173 0.267 0.347 0.394 0.525l-1.87 1.252 0.206 0.314 1.87-1.252c0.848 1.317 1.406 2.831 1.594 4.462l-1.12 0.113 0.037 0.375 1.12-0.113c0.019 0.216 0.028 0.436 0.033 0.656h-2.25v0.375h2.25c-0.005 0.22-0.014 0.436-0.033 0.656l-1.12-0.108-0.037 0.375 1.12 0.108c-0.188 1.631-0.75 3.145-1.598 4.463l-1.87-1.252-0.206 0.314 1.87 1.252c-0.122 0.169-0.253 0.342-0.389 0.516zM22.462 12.914c-0.009 0.084-0.014 0.169-0.023 0.253l0.023-0.253zM20.822 17.7c-0.056 0.084-0.112 0.169-0.169 0.253l0.169-0.253z"></path>
<path d="M10.138 1.666l0.439 2.207-0.368 0.073-0.439-2.207 0.368-0.073z"></path>
<path d="M13.867 22.335l-0.439-2.207 0.368-0.073 0.439 2.207-0.368 0.073z"></path>
<path d="M9.132 1.896l0.327 1.077-0.359 0.109-0.327-1.077 0.359-0.109z"></path>
<path d="M14.87 22.099l-0.327-1.077 0.359-0.109 0.327 1.077-0.359 0.109z"></path>
<path d="M8.157 2.229l0.861 2.079-0.346 0.144-0.861-2.079 0.346-0.144z"></path>
<path d="M15.847 21.773l-0.861-2.079 0.346-0.144 0.861 2.079-0.346 0.144z"></path>
<path d="M6.882 2.828l0.331-0.177 0.53 0.992-0.331 0.177-0.53-0.992z"></path>
<path d="M17.112 21.171l-0.331 0.177-0.53-0.992 0.331-0.177 0.53 0.992z"></path>
<path d="M2.827 6.887l0.992 0.53-0.177 0.331-0.992-0.53 0.177-0.331z"></path>
<path d="M21.17 17.114l-0.992-0.53 0.177-0.331 0.992 0.53-0.177 0.331z"></path>
<path d="M4.308 9.015l-2.079-0.861 0.144-0.346 2.079 0.861-0.144 0.346z"></path>
<path d="M19.695 14.984l2.079 0.861-0.144 0.346-2.079-0.861 0.144-0.346z"></path>
<path d="M2.005 8.775l1.077 0.326-0.109 0.359-1.077-0.326 0.109-0.359z"></path>
<path d="M21.992 15.227l-1.077-0.326 0.109-0.359 1.077 0.326-0.109 0.359z"></path>
<path d="M1.736 9.768l2.207 0.439-0.073 0.368-2.207-0.439 0.073-0.368z"></path>
<path d="M22.26 14.232l-2.207-0.439 0.073-0.368 2.207 0.439-0.073 0.368z"></path>
<path d="M1.663 13.864l2.207-0.439 0.073 0.368-2.207 0.439-0.073-0.368z"></path>
<path d="M22.332 10.135l-2.207 0.439-0.073-0.368 2.207-0.439 0.073 0.368z"></path>
<path d="M1.898 14.871l1.077-0.327 0.109 0.359-1.077 0.327-0.109-0.359z"></path>
<path d="M22.101 9.134l-1.077 0.327-0.109-0.359 1.077-0.327 0.109 0.359z"></path>
<path d="M2.371 16.193l-0.144-0.346 2.079-0.861 0.144 0.346-2.079 0.861z"></path>
<path d="M21.628 7.81l0.143 0.346-2.079 0.861-0.143-0.346 2.079-0.861z"></path>
<path d="M2.832 17.116l-0.177-0.331 0.992-0.53 0.177 0.331-0.992 0.53z"></path>
<path d="M21.175 6.886l0.177 0.331-0.992 0.53-0.177-0.331 0.992-0.53z"></path>
<path d="M7.216 21.348l-0.331-0.177 0.53-0.992 0.331 0.177-0.53 0.992z"></path>
<path d="M16.783 2.65l0.331 0.177-0.53 0.992-0.331-0.177 0.53-0.992z"></path>
<path d="M7.811 21.628l0.861-2.079 0.346 0.144-0.861 2.079-0.346-0.144z"></path>
<path d="M16.193 2.37l-0.861 2.079-0.346-0.144 0.861-2.079 0.346 0.144z"></path>
<path d="M9.132 22.102l-0.359-0.109 0.327-1.077 0.359 0.109-0.327 1.077z"></path>
<path d="M14.868 1.896l0.359 0.109-0.326 1.077-0.359-0.109 0.326-1.077z"></path>
<path d="M10.136 22.332l-0.368-0.073 0.439-2.207 0.368 0.073-0.439 2.207z"></path>
<path d="M13.864 1.663l0.368 0.073-0.439 2.207-0.368-0.073 0.439-2.207z"></path>
</svg>
