<!-- Generated by IcoMoon.io -->
<svg version="1.1" xmlns="http://www.w3.org/2000/svg" width="22" height="24" viewBox="0 0 22 24">
<title>search-minus</title>
<path d="M13.714 9.857v0.857c0 0.228-0.201 0.429-0.429 0.429h-7.714c-0.228 0-0.429-0.201-0.429-0.429v-0.857c0-0.228 0.201-0.429 0.429-0.429h7.714c0.228 0 0.429 0.201 0.429 0.429zM15.429 10.286c0-3.308-2.692-6-6-6s-6 2.692-6 6 2.692 6 6 6 6-2.692 6-6zM22.286 21.429c0 0.951-0.763 1.714-1.714 1.714-0.455 0-0.897-0.188-1.205-0.509l-4.594-4.58c-1.567 1.085-3.442 1.661-5.344 1.661-5.21 0-9.429-4.219-9.429-9.429s4.219-9.429 9.429-9.429 9.429 4.219 9.429 9.429c0 1.902-0.576 3.777-1.661 5.344l4.594 4.594c0.308 0.308 0.496 0.75 0.496 1.205z"></path>
</svg>
