<!-- Generated by IcoMoon.io -->
<svg version="1.1" xmlns="http://www.w3.org/2000/svg" width="22" height="24" viewBox="0 0 22 24">
<title>share-square-o</title>
<path d="M18.857 13.246v3.469c0 2.129-1.728 3.857-3.857 3.857h-11.143c-2.129 0-3.857-1.728-3.857-3.857v-11.143c0-2.129 1.728-3.857 3.857-3.857h3.415c0.228 0 0.429 0.188 0.429 0.429 0 0.214-0.147 0.388-0.348 0.429-0.67 0.228-1.272 0.496-1.781 0.804-0.067 0.027-0.134 0.054-0.214 0.054h-1.5c-1.179 0-2.143 0.964-2.143 2.143v11.143c0 1.179 0.964 2.143 2.143 2.143h11.143c1.179 0 2.143-0.964 2.143-2.143v-2.866c0-0.161 0.094-0.308 0.241-0.388 0.268-0.121 0.509-0.295 0.723-0.496 0.121-0.121 0.308-0.174 0.469-0.107s0.281 0.214 0.281 0.388zM22.031 6.603l-5.143 5.143c-0.161 0.174-0.375 0.254-0.603 0.254-0.107 0-0.228-0.027-0.335-0.067-0.308-0.134-0.522-0.442-0.522-0.79v-2.571h-2.143c-2.946 0-4.821 0.563-5.866 1.754-1.085 1.246-1.406 3.254-0.991 6.335 0.027 0.188-0.094 0.375-0.268 0.455-0.054 0.013-0.107 0.027-0.161 0.027-0.134 0-0.268-0.067-0.348-0.174-0.094-0.134-2.223-3.147-2.223-5.826 0-3.589 1.125-7.714 9.857-7.714h2.143v-2.571c0-0.348 0.214-0.656 0.522-0.79 0.107-0.040 0.228-0.067 0.335-0.067 0.228 0 0.442 0.094 0.603 0.254l5.143 5.143c0.335 0.335 0.335 0.871 0 1.205z"></path>
</svg>
