<?xml version="1.0" encoding="utf-8"?>
<!-- Generated by IcoMoon.io -->
<!DOCTYPE svg PUBLIC "-//W3C//DTD SVG 1.1//EN" "http://www.w3.org/Graphics/SVG/1.1/DTD/svg11.dtd">
<svg version="1.1" xmlns="http://www.w3.org/2000/svg" xmlns:xlink="http://www.w3.org/1999/xlink" width="30" height="32" viewBox="0 0 30 32">
<path d="M25.143 17.661v4.625c0 2.839-2.304 5.143-5.143 5.143h-14.857c-2.839 0-5.143-2.304-5.143-5.143v-14.857c0-2.839 2.304-5.143 5.143-5.143h4.554c0.304 0 0.571 0.25 0.571 0.571 0 0.286-0.196 0.518-0.464 0.571-0.893 0.304-1.696 0.661-2.375 1.071-0.089 0.036-0.179 0.071-0.286 0.071h-2c-1.571 0-2.857 1.286-2.857 2.857v14.857c0 1.571 1.286 2.857 2.857 2.857h14.857c1.571 0 2.857-1.286 2.857-2.857v-3.821c0-0.214 0.125-0.411 0.321-0.518 0.357-0.161 0.679-0.393 0.964-0.661 0.161-0.161 0.411-0.232 0.625-0.143s0.375 0.286 0.375 0.518zM29.375 8.804l-6.857 6.857c-0.214 0.232-0.5 0.339-0.804 0.339-0.143 0-0.304-0.036-0.446-0.089-0.411-0.179-0.696-0.589-0.696-1.054v-3.429h-2.857c-3.929 0-6.429 0.75-7.821 2.339-1.446 1.661-1.875 4.339-1.321 8.446 0.036 0.25-0.125 0.5-0.357 0.607-0.071 0.018-0.143 0.036-0.214 0.036-0.179 0-0.357-0.089-0.464-0.232-0.125-0.179-2.964-4.196-2.964-7.768 0-4.786 1.5-10.286 13.143-10.286h2.857v-3.429c0-0.464 0.286-0.875 0.696-1.054 0.143-0.054 0.304-0.089 0.446-0.089 0.304 0 0.589 0.125 0.804 0.339l6.857 6.857c0.446 0.446 0.446 1.161 0 1.607z"></path>
</svg>
