<?xml version="1.0" encoding="utf-8"?>
<!-- Generated by IcoMoon.io -->
<!DOCTYPE svg PUBLIC "-//W3C//DTD SVG 1.1//EN" "http://www.w3.org/Graphics/SVG/1.1/DTD/svg11.dtd">
<svg version="1.1" xmlns="http://www.w3.org/2000/svg" xmlns:xlink="http://www.w3.org/1999/xlink" width="27" height="32" viewBox="0 0 27 32">
<path d="M21.143 16c0 0.304-0.125 0.589-0.339 0.804l-9.714 9.714c-0.214 0.214-0.5 0.339-0.804 0.339-0.625 0-1.143-0.518-1.143-1.143v-5.143h-8c-0.625 0-1.143-0.518-1.143-1.143v-6.857c0-0.625 0.518-1.143 1.143-1.143h8v-5.143c0-0.625 0.518-1.143 1.143-1.143 0.304 0 0.589 0.125 0.804 0.339l9.714 9.714c0.214 0.214 0.339 0.5 0.339 0.804zM27.429 9.714v12.571c0 2.839-2.304 5.143-5.143 5.143h-5.714c-0.304 0-0.571-0.268-0.571-0.571 0-0.5-0.232-1.714 0.571-1.714h5.714c1.571 0 2.857-1.286 2.857-2.857v-12.571c0-1.571-1.286-2.857-2.857-2.857h-5.143c-0.446 0-1.143 0.089-1.143-0.571 0-0.5-0.232-1.714 0.571-1.714h5.714c2.839 0 5.143 2.304 5.143 5.143z"></path>
</svg>
