<!-- Generated by IcoMoon.io -->
<svg version="1.1" xmlns="http://www.w3.org/2000/svg" width="21" height="24" viewBox="0 0 21 24">
<title>sign-in</title>
<path d="M15.857 12c0 0.228-0.094 0.442-0.254 0.603l-7.286 7.286c-0.161 0.161-0.375 0.254-0.603 0.254-0.469 0-0.857-0.388-0.857-0.857v-3.857h-6c-0.469 0-0.857-0.388-0.857-0.857v-5.143c0-0.469 0.388-0.857 0.857-0.857h6v-3.857c0-0.469 0.388-0.857 0.857-0.857 0.228 0 0.442 0.094 0.603 0.254l7.286 7.286c0.161 0.161 0.254 0.375 0.254 0.603zM20.571 7.286v9.429c0 2.129-1.728 3.857-3.857 3.857h-4.286c-0.228 0-0.429-0.201-0.429-0.429 0-0.375-0.174-1.286 0.429-1.286h4.286c1.179 0 2.143-0.964 2.143-2.143v-9.429c0-1.179-0.964-2.143-2.143-2.143h-3.857c-0.335 0-0.857 0.067-0.857-0.429 0-0.375-0.174-1.286 0.429-1.286h4.286c2.129 0 3.857 1.728 3.857 3.857z"></path>
</svg>
