<!-- Generated by IcoMoon.io -->
<svg version="1.1" xmlns="http://www.w3.org/2000/svg" width="24" height="24" viewBox="0 0 24 24">
<title>skype</title>
<path d="M9.97 0.881c-0.037-0.023-0.080-0.042-0.117-0.061-0.042 0.009-0.080 0.014-0.122 0.023l0.239 0.038z"></path>
<path d="M0.858 9.872c-0.009 0.042-0.014 0.084-0.019 0.122 0.023 0.038 0.038 0.075 0.061 0.113l-0.042-0.234z"></path>
<path d="M23.123 14.128c0.009-0.042 0.014-0.084 0.023-0.127-0.023-0.037-0.038-0.075-0.061-0.112l0.038 0.239z"></path>
<path d="M13.87 23.044c0.037 0.023 0.080 0.042 0.117 0.061 0.042-0.009 0.084-0.014 0.127-0.019l-0.244-0.042z"></path>
<path d="M23.147 14.002c-0.009 0.042-0.014 0.084-0.023 0.127l-0.042-0.244c0.023 0.042 0.042 0.080 0.066 0.117 0.122-0.675 0.188-1.364 0.188-2.053 0-1.528-0.3-3.014-0.891-4.411-0.572-1.35-1.388-2.564-2.428-3.605s-2.255-1.856-3.6-2.428c-1.397-0.591-2.883-0.891-4.411-0.891-0.722 0-1.444 0.066-2.147 0.202 0 0-0.005 0-0.005 0 0.038 0.019 0.080 0.037 0.117 0.061l-0.239-0.037c0.042-0.009 0.080-0.014 0.122-0.023-0.966-0.511-2.048-0.788-3.145-0.788-1.791 0-3.478 0.698-4.744 1.964s-1.964 2.953-1.964 4.744c0 1.139 0.295 2.264 0.844 3.253 0.009-0.042 0.014-0.084 0.019-0.122l0.042 0.239c-0.023-0.037-0.042-0.075-0.061-0.113-0.113 0.642-0.169 1.298-0.169 1.955 0 1.528 0.3 3.014 0.891 4.411 0.572 1.35 1.387 2.559 2.428 3.6s2.255 1.856 3.605 2.428c1.397 0.591 2.883 0.891 4.411 0.891 0.666 0 1.331-0.061 1.983-0.178-0.038-0.023-0.075-0.042-0.117-0.061l0.244 0.042c-0.042 0.009-0.084 0.014-0.127 0.019 1.003 0.567 2.142 0.872 3.3 0.872 1.791 0 3.478-0.698 4.744-1.964s1.964-2.953 1.964-4.744c-0.005-1.139-0.3-2.264-0.853-3.262zM12.047 18.891c-4.027 0-5.827-1.978-5.827-3.464 0-0.759 0.563-1.294 1.336-1.294 1.725 0 1.275 2.475 4.491 2.475 1.645 0 2.555-0.895 2.555-1.809 0-0.548-0.272-1.158-1.355-1.425l-3.581-0.895c-2.883-0.722-3.408-2.283-3.408-3.75 0-3.042 2.864-4.186 5.555-4.186 2.48 0 5.4 1.369 5.4 3.197 0 0.783-0.68 1.238-1.453 1.238-1.472 0-1.2-2.034-4.162-2.034-1.472 0-2.283 0.666-2.283 1.617s1.163 1.256 2.17 1.486l2.653 0.591c2.902 0.647 3.638 2.344 3.638 3.938 0 2.47-1.898 4.317-5.728 4.317z"></path>
</svg>
