<!-- Generated by IcoMoon.io -->
<svg version="1.1" xmlns="http://www.w3.org/2000/svg" width="24" height="24" viewBox="0 0 24 24">
<title>switch</title>
<path d="M15 3.436v3.187c0.849 0.37 1.629 0.9 2.303 1.575 1.417 1.417 2.197 3.3 2.197 5.303s-0.78 3.887-2.197 5.303c-1.417 1.417-3.3 2.197-5.303 2.197s-3.887-0.78-5.303-2.197c-1.417-1.417-2.197-3.3-2.197-5.303s0.78-3.887 2.197-5.303c0.674-0.674 1.455-1.204 2.303-1.575v-3.186c-4.337 1.291-7.5 5.308-7.5 10.064 0 5.799 4.701 10.5 10.5 10.5s10.5-4.701 10.5-10.5c0-4.756-3.163-8.773-7.5-10.064zM10.5 0h3v12h-3z"></path>
</svg>
