<?xml version="1.0" encoding="utf-8"?>
<!-- Generated by IcoMoon.io -->
<!DOCTYPE svg PUBLIC "-//W3C//DTD SVG 1.1//EN" "http://www.w3.org/Graphics/SVG/1.1/DTD/svg11.dtd">
<svg version="1.1" xmlns="http://www.w3.org/2000/svg" xmlns:xlink="http://www.w3.org/1999/xlink" width="27" height="32" viewBox="0 0 27 32">
<path d="M4.571 6.857c0-0.625-0.518-1.143-1.143-1.143s-1.143 0.518-1.143 1.143 0.518 1.143 1.143 1.143 1.143-0.518 1.143-1.143zM25.143 17.143c0-0.661-0.5-2.268-1.339-2.286 0.375-0.429 0.625-1.268 0.625-1.839 0-0.839-0.339-1.554-0.946-2.125 0.214-0.375 0.321-0.804 0.321-1.232 0-0.821-0.411-1.839-1.161-2.25 0.054-0.321 0.089-0.661 0.089-1 0-2.089-1.321-2.982-3.304-2.982h-2.286c-2.107 0-4.143 0.625-6.107 1.304-0.964 0.339-2.607 0.982-3.607 0.982h-0.571v11.429h0.571c1.411 0 3.536 3.054 4.339 4.089 0.446 0.554 0.875 1.107 1.375 1.625 1.732 1.821 1.143 4.554 2.286 5.714 2.446 0 2.857-1.339 2.857-3.429 0-2.107-1.714-3.625-1.714-5.714h6.286c1.196 0 2.286-1.071 2.286-2.286zM27.429 17.161c0 2.464-2.107 4.554-4.571 4.554h-3.143c0.536 1.107 0.857 2.179 0.857 3.429 0 1.179-0.071 2.25-0.625 3.321-0.875 1.732-2.661 2.393-4.518 2.393-0.607 0-1.179-0.25-1.607-0.661-1.786-1.75-1.232-4.571-2.286-5.732-0.679-0.714-1.304-1.482-1.911-2.268-0.536-0.696-1.75-2.304-2.446-2.768h-4.893c-1.268 0-2.286-1.018-2.286-2.286v-11.429c0-1.268 1.018-2.286 2.286-2.286h5.143c0.5 0 1.946-0.536 2.464-0.714 2.571-0.893 4.804-1.571 7.554-1.571h2c3.25 0 5.589 1.929 5.571 5.268v0.089c0.696 0.893 1.071 2.036 1.071 3.179 0 0.25-0.018 0.518-0.054 0.768 0.446 0.786 0.679 1.679 0.679 2.571 0 0.411-0.054 0.839-0.161 1.232 0.571 0.857 0.875 1.875 0.875 2.911z"></path>
</svg>
