<!-- Generated by IcoMoon.io -->
<svg version="1.1" xmlns="http://www.w3.org/2000/svg" width="21" height="24" viewBox="0 0 21 24">
<title>thumbs-o-down</title>
<path d="M3.429 5.143c0-0.469-0.388-0.857-0.857-0.857s-0.857 0.388-0.857 0.857 0.388 0.857 0.857 0.857 0.857-0.388 0.857-0.857zM18.857 12.857c0-0.496-0.375-1.701-1.004-1.714 0.281-0.321 0.469-0.951 0.469-1.379 0-0.629-0.254-1.165-0.71-1.594 0.161-0.281 0.241-0.603 0.241-0.924 0-0.616-0.308-1.379-0.871-1.688 0.040-0.241 0.067-0.496 0.067-0.75 0-1.567-0.991-2.237-2.478-2.237h-1.714c-1.58 0-3.107 0.469-4.58 0.978-0.723 0.254-1.955 0.737-2.705 0.737h-0.429v8.571h0.429c1.058 0 2.652 2.29 3.254 3.067 0.335 0.415 0.656 0.83 1.031 1.219 1.299 1.366 0.857 3.415 1.714 4.286 1.835 0 2.143-1.004 2.143-2.571 0-1.58-1.286-2.719-1.286-4.286h4.714c0.897 0 1.714-0.804 1.714-1.714zM20.571 12.871c0 1.848-1.58 3.415-3.429 3.415h-2.357c0.402 0.83 0.643 1.634 0.643 2.571 0 0.884-0.054 1.688-0.469 2.491-0.656 1.299-1.996 1.795-3.388 1.795-0.455 0-0.884-0.188-1.205-0.496-1.339-1.313-0.924-3.429-1.714-4.299-0.509-0.536-0.978-1.112-1.433-1.701-0.402-0.522-1.313-1.728-1.835-2.076h-3.67c-0.951 0-1.714-0.763-1.714-1.714v-8.571c0-0.951 0.763-1.714 1.714-1.714h3.857c0.375 0 1.46-0.402 1.848-0.536 1.929-0.67 3.603-1.179 5.665-1.179h1.5c2.438 0 4.192 1.446 4.179 3.951v0.067c0.522 0.67 0.804 1.527 0.804 2.384 0 0.188-0.013 0.388-0.040 0.576 0.335 0.589 0.509 1.259 0.509 1.929 0 0.308-0.040 0.629-0.121 0.924 0.429 0.643 0.656 1.406 0.656 2.183z"></path>
</svg>
