<?xml version="1.0" encoding="utf-8"?>
<!-- Generated by IcoMoon.io -->
<!DOCTYPE svg PUBLIC "-//W3C//DTD SVG 1.1//EN" "http://www.w3.org/Graphics/SVG/1.1/DTD/svg11.dtd">
<svg version="1.1" xmlns="http://www.w3.org/2000/svg" xmlns:xlink="http://www.w3.org/1999/xlink" width="27" height="32" viewBox="0 0 27 32">
<path d="M4.571 25.143c0-0.625-0.518-1.143-1.143-1.143s-1.143 0.518-1.143 1.143 0.518 1.143 1.143 1.143 1.143-0.518 1.143-1.143zM25.143 14.857c0-1.214-1.089-2.286-2.286-2.286h-6.286c0-2.089 1.714-3.607 1.714-5.714 0-2.089-0.411-3.429-2.857-3.429-1.143 1.161-0.554 3.893-2.286 5.714-0.5 0.518-0.929 1.071-1.375 1.625-0.804 1.036-2.929 4.089-4.339 4.089h-0.571v11.429h0.571c1 0 2.643 0.643 3.607 0.982 1.964 0.679 4 1.304 6.107 1.304h2.161c2.018 0 3.429-0.804 3.429-2.982 0-0.339-0.036-0.679-0.089-1 0.75-0.411 1.161-1.429 1.161-2.25 0-0.429-0.107-0.857-0.321-1.232 0.607-0.571 0.946-1.286 0.946-2.125 0-0.571-0.25-1.411-0.625-1.839 0.839-0.018 1.339-1.625 1.339-2.286zM27.429 14.839c0 1.036-0.304 2.054-0.875 2.911 0.107 0.393 0.161 0.821 0.161 1.232 0 0.893-0.232 1.786-0.679 2.571 0.036 0.25 0.054 0.518 0.054 0.768 0 1.143-0.375 2.286-1.071 3.179 0.036 3.375-2.268 5.357-5.571 5.357h-2.304c-2.536 0-4.893-0.75-7.25-1.571-0.518-0.179-1.964-0.714-2.464-0.714h-5.143c-1.268 0-2.286-1.018-2.286-2.286v-11.429c0-1.268 1.018-2.286 2.286-2.286h4.893c0.696-0.464 1.911-2.071 2.446-2.768 0.607-0.786 1.232-1.554 1.911-2.286 1.071-1.143 0.5-3.964 2.286-5.714 0.429-0.411 1-0.661 1.607-0.661 1.857 0 3.643 0.661 4.518 2.393 0.554 1.089 0.625 2.125 0.625 3.321 0 1.25-0.321 2.321-0.857 3.429h3.143c2.464 0 4.571 2.089 4.571 4.554z"></path>
</svg>
