<!-- Generated by IcoMoon.io -->
<svg version="1.1" xmlns="http://www.w3.org/2000/svg" width="21" height="24" viewBox="0 0 21 24">
<title>thumbs-o-up</title>
<path d="M3.429 18.857c0-0.469-0.388-0.857-0.857-0.857s-0.857 0.388-0.857 0.857 0.388 0.857 0.857 0.857 0.857-0.388 0.857-0.857zM18.857 11.143c0-0.911-0.817-1.714-1.714-1.714h-4.714c0-1.567 1.286-2.705 1.286-4.286 0-1.567-0.308-2.571-2.143-2.571-0.857 0.871-0.415 2.92-1.714 4.286-0.375 0.388-0.696 0.804-1.031 1.219-0.603 0.777-2.196 3.067-3.254 3.067h-0.429v8.571h0.429c0.75 0 1.982 0.482 2.705 0.737 1.473 0.509 3 0.978 4.58 0.978h1.621c1.513 0 2.571-0.603 2.571-2.237 0-0.254-0.027-0.509-0.067-0.75 0.563-0.308 0.871-1.071 0.871-1.688 0-0.321-0.080-0.643-0.241-0.924 0.455-0.429 0.71-0.964 0.71-1.594 0-0.429-0.188-1.058-0.469-1.379 0.629-0.013 1.004-1.219 1.004-1.714zM20.571 11.129c0 0.777-0.228 1.54-0.656 2.183 0.080 0.295 0.121 0.616 0.121 0.924 0 0.67-0.174 1.339-0.509 1.929 0.027 0.188 0.040 0.388 0.040 0.576 0 0.857-0.281 1.714-0.804 2.384 0.027 2.531-1.701 4.018-4.179 4.018h-1.728c-1.902 0-3.67-0.563-5.438-1.179-0.388-0.134-1.473-0.536-1.848-0.536h-3.857c-0.951 0-1.714-0.763-1.714-1.714v-8.571c0-0.951 0.763-1.714 1.714-1.714h3.67c0.522-0.348 1.433-1.554 1.835-2.076 0.455-0.589 0.924-1.165 1.433-1.714 0.804-0.857 0.375-2.973 1.714-4.286 0.321-0.308 0.75-0.496 1.205-0.496 1.393 0 2.732 0.496 3.388 1.795 0.415 0.817 0.469 1.594 0.469 2.491 0 0.938-0.241 1.741-0.643 2.571h2.357c1.848 0 3.429 1.567 3.429 3.415z"></path>
</svg>
