<!-- Generated by IcoMoon.io -->
<svg version="1.1" xmlns="http://www.w3.org/2000/svg" width="26" height="24" viewBox="0 0 26 24">
<title>trademark</title>
<path d="M11.478 5.571v1.567c0 0.228-0.201 0.415-0.429 0.415h-3.991v10.875c0 0.241-0.188 0.429-0.415 0.429h-1.808c-0.241 0-0.429-0.188-0.429-0.429v-10.875h-3.978c-0.241 0-0.429-0.188-0.429-0.415v-1.567c0-0.241 0.188-0.429 0.429-0.429h10.621c0.228 0 0.429 0.188 0.429 0.429zM25.379 5.531l1.031 12.871c0.013 0.121-0.027 0.228-0.107 0.321-0.080 0.080-0.188 0.134-0.308 0.134h-1.795c-0.214 0-0.402-0.174-0.415-0.388l-0.616-7.875-2.531 5.692c-0.067 0.161-0.214 0.254-0.388 0.254h-1.607c-0.161 0-0.308-0.094-0.388-0.254l-2.518-5.719-0.603 7.902c-0.013 0.214-0.201 0.388-0.415 0.388h-1.808c-0.121 0-0.228-0.054-0.308-0.134-0.080-0.094-0.121-0.201-0.121-0.321l1.045-12.871c0.013-0.214 0.201-0.388 0.415-0.388h1.902c0.174 0 0.321 0.107 0.388 0.254l2.946 6.964c0.094 0.214 0.188 0.455 0.268 0.683 0.094-0.228 0.174-0.469 0.268-0.683l2.96-6.964c0.067-0.147 0.214-0.254 0.388-0.254h1.888c0.228 0 0.415 0.174 0.429 0.388z"></path>
</svg>
