<?xml version="1.0" encoding="utf-8"?>
<!-- Generated by IcoMoon.io -->
<!DOCTYPE svg PUBLIC "-//W3C//DTD SVG 1.1//EN" "http://www.w3.org/Graphics/SVG/1.1/DTD/svg11.dtd">
<svg version="1.1" xmlns="http://www.w3.org/2000/svg" xmlns:xlink="http://www.w3.org/1999/xlink" width="35" height="32" viewBox="0 0 35 32">
<path d="M15.303 7.429v2.089c0 0.304-0.268 0.554-0.571 0.554h-5.321v14.5c0 0.321-0.25 0.571-0.554 0.571h-2.411c-0.321 0-0.571-0.25-0.571-0.571v-14.5h-5.304c-0.321 0-0.571-0.25-0.571-0.554v-2.089c0-0.321 0.25-0.571 0.571-0.571h14.161c0.304 0 0.571 0.25 0.571 0.571zM33.839 7.375l1.375 17.161c0.018 0.161-0.036 0.304-0.143 0.429-0.107 0.107-0.25 0.179-0.411 0.179h-2.393c-0.286 0-0.536-0.232-0.554-0.518l-0.821-10.5-3.375 7.589c-0.089 0.214-0.286 0.339-0.518 0.339h-2.143c-0.214 0-0.411-0.125-0.518-0.339l-3.357-7.625-0.804 10.536c-0.018 0.286-0.268 0.518-0.554 0.518h-2.411c-0.161 0-0.304-0.071-0.411-0.179-0.107-0.125-0.161-0.268-0.161-0.429l1.393-17.161c0.018-0.286 0.268-0.518 0.554-0.518h2.536c0.232 0 0.429 0.143 0.518 0.339l3.929 9.286c0.125 0.286 0.25 0.607 0.357 0.911 0.125-0.304 0.232-0.625 0.357-0.911l3.946-9.286c0.089-0.196 0.286-0.339 0.518-0.339h2.518c0.304 0 0.554 0.232 0.571 0.518z"></path>
</svg>
