<?xml version="1.0" encoding="utf-8"?>
<!-- Generated by IcoMoon.io -->
<!DOCTYPE svg PUBLIC "-//W3C//DTD SVG 1.1//EN" "http://www.w3.org/Graphics/SVG/1.1/DTD/svg11.dtd">
<svg version="1.1" xmlns="http://www.w3.org/2000/svg" xmlns:xlink="http://www.w3.org/1999/xlink" width="27" height="32" viewBox="0 0 27 32">
<path d="M12.571 24v-18.286c0-0.321-0.25-0.571-0.571-0.571h-8.571c-0.321 0-0.571 0.25-0.571 0.571v18.286c0 0.321 0.25 0.571 0.571 0.571h8.571c0.321 0 0.571-0.25 0.571-0.571zM24.571 17.143v-11.429c0-0.321-0.25-0.571-0.571-0.571h-8.571c-0.321 0-0.571 0.25-0.571 0.571v11.429c0 0.321 0.25 0.571 0.571 0.571h8.571c0.321 0 0.571-0.25 0.571-0.571zM27.429 3.429v25.143c0 0.625-0.518 1.143-1.143 1.143h-25.143c-0.625 0-1.143-0.518-1.143-1.143v-25.143c0-0.625 0.518-1.143 1.143-1.143h25.143c0.625 0 1.143 0.518 1.143 1.143z"></path>
</svg>
