<?xml version="1.0" encoding="utf-8"?>
<!-- Generated by IcoMoon.io -->
<!DOCTYPE svg PUBLIC "-//W3C//DTD SVG 1.1//EN" "http://www.w3.org/Graphics/SVG/1.1/DTD/svg11.dtd">
<svg version="1.1" xmlns="http://www.w3.org/2000/svg" xmlns:xlink="http://www.w3.org/1999/xlink" width="28" height="32" viewBox="0 0 28 32">
<path d="M23.005 11.058c-0.657 0.294-1.348 0.484-2.091 0.588 0.76-0.449 1.33-1.175 1.607-2.022-0.708 0.415-1.486 0.726-2.315 0.881-0.657-0.708-1.607-1.14-2.644-1.14-2.004 0-3.629 1.624-3.629 3.629 0 0.276 0.017 0.57 0.086 0.829-3.024-0.155-5.702-1.59-7.499-3.801-0.311 0.536-0.501 1.175-0.501 1.832 0 1.261 0.588 2.367 1.572 3.024-0.605-0.017-1.175-0.19-1.728-0.449v0.035c0 1.762 1.33 3.231 2.989 3.559-0.311 0.086-0.553 0.138-0.881 0.138-0.225 0-0.449-0.035-0.674-0.069 0.467 1.434 1.797 2.488 3.387 2.523-1.244 0.968-2.799 1.555-4.51 1.555-0.294 0-0.588-0.017-0.864-0.052 1.607 1.019 3.508 1.624 5.564 1.624 6.67 0 10.333-5.529 10.333-10.333 0-0.155 0-0.311-0.017-0.467 0.708-0.501 1.33-1.14 1.814-1.883zM27.429 7.706v16.588c0 2.747-2.229 4.976-4.976 4.976h-16.588c-2.747 0-4.976-2.229-4.976-4.976v-16.588c0-2.747 2.229-4.976 4.976-4.976h16.588c2.747 0 4.976 2.229 4.976 4.976z"></path>
</svg>
