<?xml version="1.0" encoding="utf-8"?>
<!-- Generated by IcoMoon.io -->
<!DOCTYPE svg PUBLIC "-//W3C//DTD SVG 1.1//EN" "http://www.w3.org/Graphics/SVG/1.1/DTD/svg11.dtd">
<svg version="1.1" xmlns="http://www.w3.org/2000/svg" xmlns:xlink="http://www.w3.org/1999/xlink" width="21" height="32" viewBox="0 0 21 32">
<path d="M18.857 13.714c0.946 0 1.714 0.768 1.714 1.714v10.286c0 0.946-0.768 1.714-1.714 1.714h-17.143c-0.946 0-1.714-0.768-1.714-1.714v-10.286c0-0.946 0.768-1.714 1.714-1.714h0.571v-5.714c0-4.411 3.589-8 8-8s8 3.589 8 8c0 0.625-0.518 1.143-1.143 1.143h-1.143c-0.625 0-1.143-0.518-1.143-1.143 0-2.518-2.054-4.571-4.571-4.571s-4.571 2.054-4.571 4.571v5.714h13.143z"></path>
</svg>
