<!-- Generated by IcoMoon.io -->
<svg version="1.1" xmlns="http://www.w3.org/2000/svg" width="24" height="24" viewBox="0 0 24 24">
<title>user-minus</title>
<path d="M9 17.25c0-3.545 2.247-6.574 5.391-7.739 0.382-0.856 0.609-1.809 0.609-2.761 0-3.728 0-6.75-4.5-6.75s-4.5 3.022-4.5 6.75c0 2.322 1.348 4.643 3 5.574v1.237c-5.088 0.416-9 2.916-9 5.939h9.312c-0.203-0.716-0.312-1.47-0.312-2.25z"></path>
<path d="M17.25 10.5c-3.728 0-6.75 3.022-6.75 6.75s3.022 6.75 6.75 6.75c3.728 0 6.75-3.022 6.75-6.75s-3.022-6.75-6.75-6.75zM21 18h-7.5v-1.5h7.5v1.5z"></path>
</svg>
