<!-- Generated by IcoMoon.io -->
<svg version="1.1" xmlns="http://www.w3.org/2000/svg" width="27" height="24" viewBox="0 0 27 24">
<title>users</title>
<path d="M18 18.061v-1.237c1.652-0.931 3-3.252 3-5.574 0-3.728 0-6.75-4.5-6.75s-4.5 3.022-4.5 6.75c0 2.322 1.348 4.643 3 5.574v1.237c-5.088 0.416-9 2.916-9 5.939h21c0-3.023-3.912-5.523-9-5.939z"></path>
<path d="M7.669 18.64c1.296-0.847 2.908-1.491 4.683-1.885-0.353-0.417-0.673-0.882-0.949-1.383-0.713-1.295-1.090-2.72-1.090-4.123 0-2.017 0-3.921 0.717-5.479 0.696-1.512 1.948-2.449 3.732-2.8-0.396-1.792-1.452-2.971-4.261-2.971-4.5 0-4.5 3.022-4.5 6.75 0 2.322 1.348 4.643 3 5.574v1.237c-5.088 0.416-9 2.916-9 5.939h6.539c0.34-0.303 0.717-0.59 1.129-0.86z"></path>
</svg>
