<!-- Generated by IcoMoon.io -->
<svg version="1.1" xmlns="http://www.w3.org/2000/svg" width="24" height="24" viewBox="0 0 24 24">
<title>whatsapp</title>
<path d="M20.459 3.488c-2.245-2.25-5.231-3.488-8.414-3.488-6.553 0-11.887 5.334-11.887 11.892 0 2.095 0.548 4.144 1.589 5.944l-1.688 6.164 6.305-1.655c1.739 0.947 3.694 1.448 5.681 1.448h0.005c0 0 0 0 0 0 6.553 0 11.892-5.334 11.892-11.892 0-3.178-1.237-6.164-3.483-8.414zM12.049 21.788v0c-1.777 0-3.516-0.478-5.034-1.378l-0.361-0.216-3.741 0.98 0.998-3.647-0.234-0.375c-0.994-1.57-1.514-3.389-1.514-5.259 0-5.452 4.434-9.886 9.891-9.886 2.639 0 5.123 1.031 6.989 2.897 1.866 1.87 2.892 4.35 2.892 6.994-0.005 5.456-4.439 9.891-9.886 9.891zM17.468 14.381c-0.295-0.15-1.758-0.867-2.030-0.966s-0.469-0.15-0.67 0.15c-0.197 0.295-0.769 0.966-0.942 1.167-0.173 0.197-0.347 0.225-0.642 0.075s-1.256-0.464-2.391-1.477c-0.881-0.787-1.481-1.762-1.655-2.058s-0.019-0.459 0.131-0.605c0.136-0.131 0.295-0.347 0.445-0.52s0.197-0.295 0.295-0.497c0.098-0.197 0.052-0.37-0.023-0.52s-0.67-1.613-0.914-2.208c-0.239-0.581-0.488-0.502-0.67-0.511-0.173-0.009-0.37-0.009-0.567-0.009s-0.52 0.075-0.792 0.37c-0.272 0.295-1.041 1.017-1.041 2.48s1.064 2.873 1.214 3.075c0.15 0.197 2.095 3.202 5.077 4.486 0.708 0.305 1.261 0.488 1.692 0.628 0.712 0.225 1.359 0.192 1.87 0.117 0.572-0.084 1.758-0.717 2.006-1.411s0.248-1.289 0.173-1.411c-0.070-0.131-0.267-0.206-0.567-0.356z"></path>
</svg>
