<!-- Generated by IcoMoon.io -->
<svg version="1.1" xmlns="http://www.w3.org/2000/svg" width="31" height="24" viewBox="0 0 31 24">
<title>wikipedia-w</title>
<path d="M20.009 21.944l-3.951-9.308c-1.567 3.067-3.295 6.268-4.781 9.308-0.013 0.013-0.723 0-0.723-0.013-2.263-5.29-4.634-10.54-6.897-15.844-0.549-1.286-2.384-3.375-3.643-3.362 0-0.147-0.013-0.482-0.013-0.683h7.808v0.67c-0.924 0.054-2.545 0.643-2.089 1.647 1.058 2.397 4.996 11.585 6.054 13.915 0.723-1.433 2.786-5.263 3.629-6.884-0.67-1.366-2.826-6.455-3.509-7.714-0.469-0.857-1.741-0.938-2.692-0.951v-0.67l6.871 0.013v0.629c-0.937 0.027-1.835 0.375-1.42 1.259 0.911 1.929 1.473 3.281 2.317 5.049 0.268-0.522 1.674-3.348 2.317-4.862 0.429-0.991-0.188-1.379-1.862-1.42 0.013-0.174 0-0.496 0.013-0.656 2.143-0.013 5.357-0.013 5.933-0.027v0.656c-1.085 0.040-2.21 0.616-2.799 1.527l-2.853 5.92c0.308 0.777 3.054 6.884 3.335 7.554l5.906-13.621c-0.415-1.112-1.754-1.353-2.277-1.366v-0.67l6.161 0.054 0.013 0.027-0.013 0.589c-1.353 0.040-2.17 0.763-2.692 1.942-1.205 2.786-4.982 11.571-7.487 17.29h-0.656z"></path>
</svg>
