<?xml version="1.0" encoding="utf-8"?>
<!-- Generated by IcoMoon.io -->
<!DOCTYPE svg PUBLIC "-//W3C//DTD SVG 1.1//EN" "http://www.w3.org/Graphics/SVG/1.1/DTD/svg11.dtd">
<svg version="1.1" xmlns="http://www.w3.org/2000/svg" xmlns:xlink="http://www.w3.org/1999/xlink" width="41" height="32" viewBox="0 0 41 32">
<path d="M26.679 29.259l-5.268-12.411c-2.089 4.089-4.393 8.357-6.375 12.411-0.018 0.018-0.964 0-0.964-0.018-3.018-7.054-6.179-14.054-9.196-21.125-0.732-1.714-3.179-4.5-4.857-4.482 0-0.196-0.018-0.643-0.018-0.911h10.411v0.893c-1.232 0.071-3.393 0.857-2.786 2.196 1.411 3.196 6.661 15.446 8.071 18.554 0.964-1.911 3.714-7.018 4.839-9.179-0.893-1.821-3.768-8.607-4.679-10.286-0.625-1.143-2.321-1.25-3.589-1.268v-0.893l9.161 0.018v0.839c-1.25 0.036-2.446 0.5-1.893 1.679 1.214 2.571 1.964 4.375 3.089 6.732 0.357-0.696 2.232-4.464 3.089-6.482 0.571-1.321-0.25-1.839-2.482-1.893 0.018-0.232 0-0.661 0.018-0.875 2.857-0.018 7.143-0.018 7.911-0.036v0.875c-1.446 0.054-2.946 0.821-3.732 2.036l-3.804 7.893c0.411 1.036 4.071 9.179 4.446 10.071l7.875-18.161c-0.554-1.482-2.339-1.804-3.036-1.821v-0.893l8.214 0.071 0.018 0.036-0.018 0.786c-1.804 0.054-2.893 1.018-3.589 2.589-1.607 3.714-6.643 15.429-9.982 23.054h-0.875z"></path>
</svg>
