<?xml version="1.0" encoding="utf-8"?>
<!-- Generated by IcoMoon.io -->
<!DOCTYPE svg PUBLIC "-//W3C//DTD SVG 1.1//EN" "http://www.w3.org/Graphics/SVG/1.1/DTD/svg11.dtd">
<svg version="1.1" xmlns="http://www.w3.org/2000/svg" xmlns:xlink="http://www.w3.org/1999/xlink" width="32" height="32" viewBox="0 0 32 32">
<path d="M2.268 16c0-1.982 0.429-3.875 1.196-5.589l6.554 17.946c-4.589-2.232-7.75-6.929-7.75-12.357zM25.268 15.304c0 1.179-0.482 2.536-1.054 4.446l-1.357 4.571-4.964-14.75s0.821-0.054 1.571-0.143c0.732-0.089 0.643-1.179-0.089-1.125-2.232 0.161-3.661 0.179-3.661 0.179s-1.339-0.018-3.607-0.179c-0.75-0.054-0.839 1.071-0.089 1.125 0.696 0.071 1.429 0.143 1.429 0.143l2.143 5.857-3 9-5-14.857s0.821-0.054 1.571-0.143c0.732-0.089 0.643-1.179-0.089-1.125-2.214 0.161-3.661 0.179-3.661 0.179-0.25 0-0.554-0.018-0.875-0.018 2.446-3.732 6.661-6.196 11.464-6.196 3.571 0 6.821 1.375 9.268 3.607h-0.179c-1.339 0-2.304 1.161-2.304 2.429 0 1.125 0.661 2.071 1.357 3.214 0.536 0.911 1.125 2.089 1.125 3.786zM16.232 17.196l4.232 11.554c0.018 0.071 0.054 0.143 0.089 0.196-1.429 0.5-2.946 0.786-4.554 0.786-1.339 0-2.643-0.196-3.875-0.571zM28.036 9.411c1.071 1.964 1.696 4.196 1.696 6.589 0 5.071-2.75 9.482-6.839 11.857l4.196-12.107c0.696-2 1.054-3.536 1.054-4.929 0-0.5-0.036-0.964-0.107-1.411zM16 0c8.821 0 16 7.179 16 16s-7.179 16-16 16-16-7.179-16-16 7.179-16 16-16zM16 31.268c8.411 0 15.268-6.857 15.268-15.268s-6.857-15.268-15.268-15.268-15.268 6.857-15.268 15.268 6.857 15.268 15.268 15.268z"></path>
</svg>
