<!-- Generated by IcoMoon.io -->
<svg version="1.1" xmlns="http://www.w3.org/2000/svg" width="24" height="24" viewBox="0 0 24 24">
<title>wordpress</title>
<path d="M1.701 12c0-1.487 0.321-2.906 0.897-4.192l4.915 13.46c-3.442-1.674-5.813-5.196-5.813-9.268zM18.951 11.478c0 0.884-0.362 1.902-0.79 3.335l-1.018 3.429-3.723-11.063s0.616-0.040 1.179-0.107c0.549-0.067 0.482-0.884-0.067-0.844-1.674 0.121-2.746 0.134-2.746 0.134s-1.004-0.013-2.705-0.134c-0.563-0.040-0.629 0.804-0.067 0.844 0.522 0.054 1.071 0.107 1.071 0.107l1.607 4.393-2.25 6.75-3.75-11.143s0.616-0.040 1.179-0.107c0.549-0.067 0.482-0.884-0.067-0.844-1.661 0.121-2.746 0.134-2.746 0.134-0.188 0-0.415-0.013-0.656-0.013 1.835-2.799 4.996-4.647 8.598-4.647 2.679 0 5.116 1.031 6.951 2.705h-0.134c-1.004 0-1.728 0.871-1.728 1.821 0 0.844 0.496 1.554 1.018 2.411 0.402 0.683 0.844 1.567 0.844 2.839zM12.174 12.897l3.174 8.665c0.013 0.054 0.040 0.107 0.067 0.147-1.071 0.375-2.21 0.589-3.415 0.589-1.004 0-1.982-0.147-2.906-0.429zM21.027 7.058c0.804 1.473 1.272 3.147 1.272 4.942 0 3.804-2.063 7.112-5.129 8.893l3.147-9.080c0.522-1.5 0.79-2.652 0.79-3.696 0-0.375-0.027-0.723-0.080-1.058zM12 0c6.616 0 12 5.384 12 12s-5.384 12-12 12-12-5.384-12-12 5.384-12 12-12zM12 23.451c6.308 0 11.451-5.143 11.451-11.451s-5.143-11.451-11.451-11.451-11.451 5.143-11.451 11.451 5.143 11.451 11.451 11.451z"></path>
</svg>
