<?xml version="1.0" encoding="utf-8"?>
<!-- Generated by IcoMoon.io -->
<!DOCTYPE svg PUBLIC "-//W3C//DTD SVG 1.1//EN" "http://www.w3.org/Graphics/SVG/1.1/DTD/svg11.dtd">
<svg version="1.1" xmlns="http://www.w3.org/2000/svg" xmlns:xlink="http://www.w3.org/1999/xlink" width="32" height="32" viewBox="0 0 32 32">
<path d="M12.696 20.143l8.643-4.464-8.643-4.518v8.982zM16 4.75c6.732 0 11.196 0.321 11.196 0.321 0.625 0.071 2 0.071 3.214 1.357 0 0 0.982 0.964 1.268 3.179 0.339 2.589 0.321 5.179 0.321 5.179v2.429s0.018 2.589-0.321 5.179c-0.286 2.196-1.268 3.179-1.268 3.179-1.214 1.268-2.589 1.268-3.214 1.339 0 0-4.464 0.339-11.196 0.339v0c-8.321-0.071-10.875-0.321-10.875-0.321-0.714-0.125-2.321-0.089-3.536-1.357 0 0-0.982-0.982-1.268-3.179-0.339-2.589-0.321-5.179-0.321-5.179v-2.429s-0.018-2.589 0.321-5.179c0.286-2.214 1.268-3.179 1.268-3.179 1.214-1.286 2.589-1.286 3.214-1.357 0 0 4.464-0.321 11.196-0.321v0z"></path>
</svg>
