<?xml version="1.0" encoding="utf-8"?>
<!-- Generated by IcoMoon.io -->
<!DOCTYPE svg PUBLIC "-//W3C//DTD SVG 1.1//EN" "http://www.w3.org/Graphics/SVG/1.1/DTD/svg11.dtd">
<svg version="1.1" xmlns="http://www.w3.org/2000/svg" xmlns:xlink="http://www.w3.org/1999/xlink" width="27" height="32" viewBox="0 0 27 32">
<path d="M16.411 23.268v-2.804c0-0.589-0.179-0.893-0.518-0.893-0.196 0-0.393 0.089-0.589 0.286v4c0.196 0.196 0.393 0.286 0.589 0.286 0.339 0 0.518-0.286 0.518-0.875zM19.696 21.089h1.179v-0.607c0-0.607-0.196-0.911-0.589-0.911s-0.589 0.304-0.589 0.911v0.607zM9.5 16.339v1.25h-1.429v7.554h-1.321v-7.554h-1.393v-1.25h4.143zM13.089 18.589v6.554h-1.196v-0.714c-0.464 0.536-0.911 0.804-1.357 0.804-0.375 0-0.643-0.161-0.75-0.5-0.071-0.196-0.107-0.5-0.107-0.964v-5.179h1.179v4.821c0 0.268 0 0.429 0.018 0.464 0.018 0.179 0.107 0.268 0.268 0.268 0.25 0 0.482-0.179 0.75-0.554v-5h1.196zM17.589 20.571v2.607c0 0.589-0.036 1.036-0.125 1.304-0.143 0.5-0.464 0.75-0.946 0.75-0.411 0-0.821-0.25-1.214-0.732v0.643h-1.196v-8.804h1.196v2.875c0.375-0.464 0.786-0.714 1.214-0.714 0.482 0 0.804 0.25 0.946 0.75 0.089 0.268 0.125 0.696 0.125 1.321zM22.071 22.875v0.161c0 0.393-0.018 0.643-0.036 0.768-0.036 0.268-0.125 0.5-0.268 0.714-0.321 0.482-0.821 0.714-1.429 0.714-0.625 0-1.107-0.232-1.446-0.679-0.25-0.321-0.375-0.839-0.375-1.536v-2.304c0-0.696 0.107-1.196 0.357-1.536 0.339-0.446 0.821-0.679 1.429-0.679 0.589 0 1.071 0.232 1.393 0.679 0.25 0.339 0.375 0.839 0.375 1.536v1.357h-2.375v1.161c0 0.607 0.196 0.911 0.607 0.911 0.286 0 0.464-0.161 0.536-0.464 0-0.071 0.018-0.339 0.018-0.804h1.214zM14.018 8.161v2.786c0 0.607-0.196 0.911-0.571 0.911-0.393 0-0.571-0.304-0.571-0.911v-2.786c0-0.607 0.179-0.929 0.571-0.929 0.375 0 0.571 0.321 0.571 0.929zM23.536 20.893v0c0-1.536 0-3.161-0.339-4.643-0.25-1.054-1.107-1.821-2.125-1.929-2.429-0.268-4.893-0.268-7.357-0.268-2.446 0-4.911 0-7.339 0.268-1.036 0.107-1.893 0.875-2.125 1.929-0.339 1.482-0.357 3.107-0.357 4.643v0c0 1.518 0 3.143 0.357 4.643 0.232 1.036 1.089 1.804 2.107 1.929 2.446 0.268 4.911 0.268 7.357 0.268s4.911 0 7.357-0.268c1.018-0.125 1.875-0.893 2.107-1.929 0.357-1.5 0.357-3.125 0.357-4.643zM10.054 9.268l1.607-5.286h-1.339l-0.911 3.482-0.946-3.482h-1.393c0.268 0.821 0.571 1.643 0.839 2.464 0.429 1.25 0.696 2.179 0.821 2.821v3.589h1.321v-3.589zM15.214 10.714v-2.321c0-0.696-0.125-1.214-0.375-1.554-0.339-0.446-0.804-0.679-1.393-0.679-0.607 0-1.071 0.232-1.393 0.679-0.25 0.339-0.375 0.857-0.375 1.554v2.321c0 0.696 0.125 1.214 0.375 1.554 0.321 0.446 0.786 0.679 1.393 0.679 0.589 0 1.054-0.232 1.393-0.679 0.25-0.321 0.375-0.857 0.375-1.554zM18.446 12.857h1.196v-6.607h-1.196v5.054c-0.268 0.375-0.518 0.554-0.75 0.554-0.161 0-0.268-0.089-0.286-0.286-0.018-0.036-0.018-0.179-0.018-0.464v-4.857h-1.196v5.232c0 0.464 0.036 0.768 0.107 0.982 0.125 0.321 0.393 0.482 0.768 0.482 0.446 0 0.893-0.268 1.375-0.804v0.714zM27.429 7.429v17.143c0 2.839-2.304 5.143-5.143 5.143h-17.143c-2.839 0-5.143-2.304-5.143-5.143v-17.143c0-2.839 2.304-5.143 5.143-5.143h17.143c2.839 0 5.143 2.304 5.143 5.143z"></path>
</svg>
